<svg width="263" height="238" viewBox="0 0 263 238" fill="none" xmlns="http://www.w3.org/2000/svg">
<path d="M232.684 199.796C232.422 197.163 231.025 194.815 228.852 193.355L200.06 173.999L183.525 151.596C182.936 150.798 183.227 150.028 183.38 149.734C183.535 149.436 184.004 148.746 184.987 148.779L185.077 148.78L185.077 148.781C206.067 149.289 222.182 135.791 232.005 124.378C243.606 110.899 252.692 92.9078 256.307 76.2607C258.476 66.4227 259.564 58.2358 259.634 51.2318C259.657 48.8202 258.381 46.5957 256.301 45.4267C254.221 44.2584 251.673 44.3327 249.652 45.6222L197.322 79.0196C197.428 71.7286 196.905 64.258 195.713 56.9157C194.135 46.9976 192.157 39.0097 189.665 32.4951C188.803 30.2438 186.788 28.6614 184.424 28.3573C182.053 28.0563 179.707 29.0908 178.303 31.0561L137.169 88.6443L134.416 84.9091C131.285 79.9777 126.432 76.6315 120.737 75.4828C115.036 74.3172 109.197 75.5553 104.374 78.9423C99.242 82.546 96.1231 88.1394 95.3846 94.0593L92.7399 97.8332L84.9081 84.0991L80.9881 83.048L14.0201 122.33L12.9632 126.3L35.8389 166.416L39.7589 167.467L106.727 128.185L107.784 124.215L102.138 114.314L104.623 114.541C106.571 115.853 108.73 116.846 111.019 117.453C110.62 119.254 110.303 121.078 110.074 122.905C106.184 153.847 127.152 182.251 157.356 188.033C158.628 188.276 159.919 188.48 161.222 188.642C164.625 189.064 168.041 189.184 171.433 189.013L186.045 225.527C187.195 228.4 189.683 230.321 192.492 230.858C194.09 231.164 195.793 231.023 197.411 230.354C199.287 229.578 200.851 228.159 201.814 226.357C201.919 226.162 202.015 225.964 202.104 225.763C204.949 226.995 208.359 226.651 210.964 224.576C212.557 223.306 213.674 221.506 214.107 219.507C214.143 219.343 214.174 219.178 214.201 219.013C216.856 219.42 219.668 218.589 221.717 216.519C223.151 215.069 224.05 213.149 224.248 211.115C224.299 210.588 224.303 210.063 224.263 209.546C224.74 209.528 225.218 209.47 225.695 209.373C227.982 208.904 229.957 207.562 231.254 205.595C232.379 203.888 232.887 201.829 232.684 199.796ZM182.952 34.4433C183.177 34.1282 183.475 34.0938 183.684 34.1201C183.899 34.1503 184.172 34.2544 184.309 34.6129C186.322 39.8738 188.043 46.4795 189.441 54.2913L177.223 62.4336L180.366 67.2795L190.447 60.5614C191.023 64.7722 191.419 69.4231 191.536 74.3082L191.092 73.4945L175.272 82.3639L178.037 87.4415L191.542 79.8704C191.522 80.8317 191.49 81.7983 191.446 82.7695L153.164 107.201C152.27 107.772 151.084 107.57 150.425 106.747L150.455 106.672L140.758 93.5149L182.952 34.4433ZM96.127 103.022C96.5745 104.51 97.1842 105.966 97.973 107.36C98.1233 107.625 98.2817 107.885 98.4423 108.142L92.8933 107.636L96.127 103.022ZM76.5187 92.3704L65.246 119.819C63.086 125.079 57.6949 128.176 52.1363 127.35L24.0053 123.174L76.5187 92.3704ZM37.8465 158.289L20.9095 128.588L47.8702 132.591L37.8465 158.289ZM44.0175 158.268L53.7661 133.276C60.3111 133.326 66.381 129.767 69.5987 123.965L96.5309 127.465L44.0175 158.268ZM99.9047 122.044L72.0272 118.422L82.8336 92.1082L89.078 103.059L85.3324 108.404L87.4007 112.968L95.1316 113.674L99.9047 122.044ZM161.947 182.877C132.83 179.254 112.116 152.678 115.769 123.612C116.095 121.021 116.615 118.437 117.313 115.929L114.852 112.265C109.805 111.748 105.474 108.901 102.959 104.458C98.9933 97.4482 101.047 88.3344 107.634 83.709C111.16 81.2332 115.409 80.3442 119.589 81.1786C123.775 82.0236 127.339 84.4935 129.624 88.133L145.8 110.095L145.77 110.172C148.191 113.45 152.776 114.3 156.211 112.109L252.7 50.5307C253.023 50.3239 253.311 50.4052 253.494 50.5067C253.678 50.6101 253.896 50.8141 253.892 51.1999C253.828 57.7011 252.755 65.7159 250.701 75.03C250.687 75.0936 250.672 75.1581 250.658 75.2218L236.539 78.1108L237.096 80.957L237.653 83.8036L249.022 81.4772C247.816 85.4843 246.279 89.6134 244.439 93.7478L227.35 95.8833L228.027 101.647L241.436 99.9717C239.608 103.489 237.57 106.965 235.341 110.326L217.815 110.26L217.767 116.068L231.221 116.119C229.053 118.955 226.744 121.665 224.309 124.201L207.121 124.57L207.217 130.376L217.955 130.146C208.366 138.156 197.248 143.265 185.24 142.975L185.223 142.975C182.31 142.876 179.656 144.439 178.3 147.053C176.947 149.658 177.184 152.736 178.918 155.085L194.669 176.426C184.774 181.996 173.272 184.282 161.947 182.877ZM226.481 202.387C226.037 203.061 225.361 203.52 224.578 203.681C223.794 203.841 222.998 203.685 222.335 203.238L218.034 200.346L214.401 204.824L217.679 208.143C218.31 208.783 218.621 209.668 218.533 210.572C218.486 211.064 218.297 211.784 217.668 212.42C216.498 213.601 214.602 213.604 213.44 212.428L209.642 208.582L205.346 212.44L207.935 215.773C208.486 216.483 208.692 217.399 208.5 218.287C208.395 218.77 208.123 219.462 207.424 220.019C206.126 221.053 204.244 220.83 203.227 219.522L201.499 217.298L196.578 220.201L196.912 221.034C197.247 221.872 197.194 222.812 196.767 223.612C196.534 224.048 196.083 224.638 195.26 224.979C193.732 225.611 191.986 224.869 191.368 223.326L177.391 188.398C185.087 187.221 192.524 184.528 199.233 180.431L225.659 198.196C226.403 198.696 226.881 199.501 226.972 200.404C227.02 200.895 226.975 201.638 226.481 202.387Z" fill="#070707" fill-opacity="0.22"/>
<path d="M114.802 91.1474C113.687 89.6952 112.069 88.7678 110.272 88.5491C108.466 88.3245 106.678 88.8257 105.238 89.9602C103.797 91.0952 102.877 92.7268 102.648 94.5555C102.418 96.384 102.906 98.1903 104.02 99.6413C105.042 100.972 106.48 101.859 108.104 102.169C108.252 102.197 108.401 102.221 108.551 102.24C110.357 102.464 112.145 101.963 113.585 100.828C115.025 99.6939 115.945 98.0623 116.175 96.2337C116.405 94.4055 115.917 92.599 114.802 91.1474ZM110.07 96.2523C109.939 96.3559 109.66 96.5227 109.276 96.4751C108.696 96.3942 108.268 95.8576 108.344 95.2619C108.393 94.8726 108.621 94.6402 108.753 94.5365C108.884 94.4329 109.162 94.266 109.547 94.3137C109.572 94.3167 109.596 94.3207 109.619 94.3252C109.961 94.3906 110.167 94.6 110.263 94.724C110.364 94.8568 110.528 95.1376 110.479 95.5269C110.43 95.9162 110.202 96.1481 110.07 96.2523Z" fill="#070707" fill-opacity="0.22"/>
</svg>
