<svg width="270" height="261" viewBox="0 0 270 261" fill="none" xmlns="http://www.w3.org/2000/svg">
<path d="M44.4498 221.309C44.4576 218.522 45.5931 215.974 47.5658 214.318L73.6974 192.387L87.6471 167.902C88.1435 167.03 87.7886 166.234 87.613 165.933C87.4347 165.627 86.915 164.925 85.9641 165.012L85.8763 165.019L85.8767 165.02C65.5525 166.678 48.6473 153.322 38.0444 141.825C25.5221 128.247 15.0185 109.781 9.95045 92.4384C6.92358 82.1909 5.10047 73.6249 4.37674 66.2505C4.12799 63.7113 5.15888 61.2996 7.06801 59.9568C8.97682 58.6147 11.4566 58.5565 13.5395 59.8067L67.4578 92.1864C66.6714 84.5115 66.4788 76.6138 66.9484 68.8154C67.5507 58.2829 68.7225 49.7624 70.5309 42.7662C71.1562 40.3486 72.9641 38.5736 75.2296 38.1268C77.5033 37.6827 79.8765 38.6469 81.4233 40.6421L126.741 99.1044L129.063 95.0223C131.64 89.6598 136.037 85.875 141.457 84.3599C146.88 82.8268 152.664 83.8184 157.662 87.1281C162.98 90.6496 166.531 96.3748 167.803 102.571L170.723 106.405L177.038 91.5181L180.744 90.201L249.42 127.996L250.818 132.122L232.374 175.605L228.667 176.923L159.991 139.128L158.593 135.002L163.145 124.27L160.755 124.642C158.987 126.129 156.985 127.29 154.82 128.052C155.376 129.928 155.855 131.833 156.248 133.745C162.922 166.132 145.232 197.176 116.458 204.884C115.247 205.208 114.013 205.492 112.763 205.733C109.501 206.36 106.196 206.669 102.887 206.67L92.1263 245.918C91.2793 249.005 89.0442 251.162 86.3683 251.879C84.8461 252.287 83.1804 252.229 81.5471 251.611C79.6533 250.894 78.0027 249.483 76.8992 247.636C76.7793 247.436 76.6669 247.233 76.562 247.026C73.9162 248.477 70.5743 248.296 67.8521 246.25C66.1863 244.998 64.9344 243.161 64.3263 241.079C64.276 240.908 64.2304 240.736 64.1892 240.563C61.6501 241.134 58.8428 240.409 56.661 238.338C55.1329 236.887 54.0801 234.913 53.6982 232.781C53.599 232.228 53.5455 231.676 53.5359 231.129C53.0718 231.135 52.6021 231.1 52.1306 231.023C49.8661 230.651 47.8245 229.344 46.3813 227.341C45.1295 225.603 44.4435 223.461 44.4498 221.309ZM77.2282 44.4592C76.9806 44.1392 76.6885 44.1189 76.4876 44.1578C76.2816 44.2012 76.0272 44.3254 75.9274 44.7105C74.4669 50.3601 73.4147 57.411 72.7902 65.7149L85.4113 73.638L82.8147 78.9112L72.4012 72.3739C72.2359 76.8405 72.2872 81.7612 72.632 86.9135L72.9859 86.0326L89.1718 94.5288L86.9633 100.026L73.1468 92.7732C73.2564 93.7847 73.3781 94.8013 73.5118 95.8221L112.955 119.509C113.876 120.063 115.009 119.787 115.571 118.884L115.535 118.806L123.714 104.427L77.2282 44.4592ZM167.922 112.052C167.627 113.644 167.171 115.21 166.536 116.721C166.416 117.009 166.286 117.291 166.154 117.571L171.492 116.74L167.922 112.052ZM185.955 99.7821L199.467 128.093C202.056 133.519 207.579 136.493 212.896 135.325L239.808 129.419L185.955 99.7821ZM229.664 167.152L243.32 134.957L217.528 140.618L229.664 167.152ZM223.673 167.46L211.87 141.655C205.522 142.058 199.297 138.634 195.631 132.694L169.819 137.823L223.673 167.46ZM166.037 132.294L192.755 126.985L179.802 99.844L174.767 111.714L178.903 117.144L177.323 122.063L169.886 123.221L166.037 132.294ZM111.52 199.699C139.441 194.322 157.055 165.218 150.787 134.795C150.227 132.082 149.481 129.388 148.569 126.784L150.613 122.792C155.464 121.977 159.401 118.746 161.425 113.931C164.618 106.335 161.771 96.8439 154.945 92.324C151.29 89.9048 147.083 89.1958 143.105 90.2985C139.12 91.4128 135.893 94.2056 134.016 98.1619L120.373 122.163L120.41 122.243C118.368 125.825 113.997 126.967 110.457 124.843L11.0412 65.1406C10.7082 64.9401 10.4357 65.0412 10.2675 65.1579C10.0987 65.2767 9.90647 65.5033 9.94615 65.9095C10.618 72.7545 12.4102 81.1401 15.2756 90.8419C15.2949 90.9081 15.3162 90.9752 15.3357 91.0416L29.3096 93.329L29.0356 96.357L28.7617 99.3855L17.5092 97.5436C19.0552 101.7 20.9333 105.968 23.107 110.224L39.8933 111.559L39.7753 117.667L26.6041 116.62C28.7082 120.227 31.0119 123.78 33.4897 127.202L50.4944 126.194L51.0843 132.309L38.0319 133.083C40.4014 135.955 42.8963 138.686 45.4975 141.226L62.2132 140.695L62.6643 146.817L52.2207 147.149C62.2775 155.074 73.5474 159.861 85.1741 158.912L85.1906 158.911C88.0093 158.651 90.7312 160.155 92.2927 162.836C93.8494 165.507 93.9078 168.763 92.4448 171.33L79.1565 194.655C89.2821 199.992 100.659 201.785 111.52 199.699ZM50.7131 223.707C51.2071 224.392 51.9058 224.84 52.6807 224.967C53.4566 225.094 54.2149 224.887 54.8168 224.381L58.7206 221.104L62.6656 225.627L59.7951 229.299C59.2422 230.006 59.0232 230.955 59.1935 231.903C59.2857 232.419 59.5366 233.167 60.2068 233.803C61.4525 234.985 63.2932 234.887 64.3108 233.585L67.6368 229.331L72.1677 233.164L69.9673 236.814C69.4983 237.592 69.3844 238.567 69.6542 239.493C69.8014 239.996 70.13 240.71 70.8606 241.26C72.2168 242.279 74.0233 241.944 74.8873 240.512L76.3559 238.076L81.4047 240.871L81.1581 241.767C80.9117 242.668 81.0508 243.655 81.5408 244.474C81.8076 244.921 82.3002 245.519 83.1314 245.833C84.6738 246.417 86.2986 245.542 86.7536 243.884L97.0473 206.341C89.468 205.513 81.9976 203.075 75.1018 199.118L51.1177 219.247C50.4428 219.814 50.054 220.687 50.0511 221.643C50.0502 222.164 50.1637 222.944 50.7131 223.707Z" fill="#DFA43D" fill-opacity="0.65"/>
<path d="M148.684 100.544C149.63 98.954 151.114 97.8904 152.837 97.5638C154.57 97.2305 156.352 97.6627 157.856 98.7808C159.36 99.8992 160.406 101.569 160.8 103.483C161.194 105.397 160.89 107.326 159.944 108.914C159.077 110.371 157.765 111.382 156.217 111.796C156.077 111.833 155.934 111.866 155.79 111.894C154.058 112.227 152.276 111.794 150.772 110.677C149.268 109.559 148.223 107.889 147.828 105.975C147.434 104.061 147.738 102.132 148.684 100.544ZM153.755 105.668C153.892 105.77 154.178 105.931 154.547 105.86C155.102 105.744 155.467 105.155 155.338 104.532C155.254 104.125 155.011 103.892 154.873 103.79C154.735 103.688 154.45 103.527 154.081 103.598C154.057 103.602 154.035 103.608 154.012 103.614C153.687 103.701 153.506 103.932 153.425 104.068C153.339 104.213 153.206 104.518 153.29 104.926C153.374 105.333 153.617 105.565 153.755 105.668Z" fill="#DFA43D" fill-opacity="0.65"/>
</svg>
