<svg width="32" height="32" viewBox="0 0 32 32" fill="none" xmlns="http://www.w3.org/2000/svg">
<g clip-path="url(#clip0_990_37)">
<path d="M26 32H6C2.686 32 0 29.314 0 26V6C0 2.686 2.686 0 6 0H26C29.314 0 32 2.686 32 6V26C32 29.314 29.314 32 26 32Z" fill="#CE67FF"/>
<path d="M22.8986 11.5581C22.9974 11.5583 23.0944 11.5854 23.179 11.6365C23.2635 11.6877 23.3326 11.7609 23.3786 11.8484C23.4208 11.926 23.4426 12.0131 23.4419 12.1014V20.3172C23.4419 20.4613 23.3846 20.5995 23.2827 20.7013C23.1809 20.8032 23.0427 20.8605 22.8986 20.8605H9.1014C8.95731 20.8605 8.81914 20.8032 8.71726 20.7013C8.61538 20.5995 8.55814 20.4613 8.55814 20.3172V12.1014C8.55743 12.0131 8.5792 11.926 8.6214 11.8484C8.66743 11.7609 8.73646 11.6877 8.82104 11.6365C8.90562 11.5854 9.00255 11.5583 9.1014 11.5581H22.8986ZM22.8986 11H9.1014C8.80929 11 8.52914 11.116 8.32259 11.3226C8.11604 11.5291 8 11.8093 8 12.1014V20.3172C8.00049 20.6092 8.11669 20.889 8.32313 21.0955C8.52958 21.3019 8.80944 21.4181 9.1014 21.4186H22.8986C23.1906 21.4181 23.4704 21.3019 23.6769 21.0955C23.8833 20.889 23.9995 20.6092 24 20.3172V12.1014C24 11.8093 23.884 11.5291 23.6774 11.3226C23.4709 11.116 23.1907 11 22.8986 11Z" fill="white"/>
<path d="M22.8986 11.5581C22.9329 11.5584 22.9671 11.5615 23.0009 11.5674L16.7553 16.5647C16.5404 16.7357 16.2738 16.8288 15.9991 16.8288C15.7244 16.8288 15.4578 16.7357 15.2428 16.5647L8.99907 11.5674C9.03286 11.5615 9.06709 11.5584 9.1014 11.5581H22.8986ZM22.8986 11H9.1014C8.90135 11.0005 8.70519 11.0552 8.53383 11.1584C8.36246 11.2617 8.22233 11.4094 8.12837 11.586L14.8949 17C15.2087 17.2506 15.5984 17.3871 16 17.3871C16.4016 17.3871 16.7913 17.2506 17.1051 17L23.8716 11.586C23.7777 11.4094 23.6375 11.2617 23.4662 11.1584C23.2948 11.0552 23.0986 11.0005 22.8986 11Z" fill="white"/>
<path d="M8.75348 21.3388C8.68564 21.3403 8.61955 21.3171 8.56744 21.2737C8.53917 21.2503 8.51581 21.2216 8.49872 21.1892C8.48162 21.1568 8.47113 21.1213 8.46784 21.0848C8.46455 21.0483 8.46854 21.0115 8.47956 20.9765C8.49059 20.9415 8.50844 20.9091 8.53209 20.8811L13.1721 15.3202C13.1948 15.2899 13.2235 15.2646 13.2563 15.2458C13.2891 15.2269 13.3255 15.215 13.3631 15.2106C13.4007 15.2062 13.4388 15.2096 13.475 15.2204C13.5113 15.2312 13.545 15.2493 13.574 15.2736C13.6031 15.2978 13.6269 15.3277 13.644 15.3615C13.6612 15.3953 13.6713 15.4321 13.6737 15.4699C13.6761 15.5077 13.6708 15.5456 13.6582 15.5812C13.6455 15.6169 13.6257 15.6496 13.6 15.6774L8.96744 21.2327C8.94167 21.2649 8.90916 21.2911 8.8722 21.3094C8.83524 21.3278 8.79472 21.3378 8.75348 21.3388Z" fill="white"/>
<path d="M23.2558 21.3388C23.213 21.3392 23.1707 21.3298 23.132 21.3114C23.0933 21.2931 23.0593 21.2662 23.0326 21.2327L18.4 15.6774C18.3743 15.6496 18.3545 15.6169 18.3418 15.5812C18.3292 15.5456 18.3239 15.5077 18.3263 15.4699C18.3287 15.4321 18.3388 15.3953 18.356 15.3615C18.3731 15.3277 18.3969 15.2978 18.426 15.2736C18.455 15.2493 18.4887 15.2312 18.525 15.2204C18.5612 15.2096 18.5993 15.2062 18.6369 15.2106C18.6745 15.215 18.7109 15.2269 18.7437 15.2458C18.7765 15.2646 18.8052 15.2899 18.8279 15.3202L23.4605 20.8811C23.4841 20.9091 23.502 20.9415 23.513 20.9765C23.524 21.0115 23.528 21.0483 23.5247 21.0848C23.5214 21.1213 23.5109 21.1568 23.4938 21.1892C23.4767 21.2216 23.4534 21.2503 23.4251 21.2737C23.3774 21.3135 23.3179 21.3364 23.2558 21.3388Z" fill="white"/>
</g>
<defs>
<clipPath id="clip0_990_37">
<rect width="32" height="32" fill="white"/>
</clipPath>
</defs>
</svg>
