<svg width="280" height="280" viewBox="0 0 280 280" fill="none" xmlns="http://www.w3.org/2000/svg">
<path d="M118.92 137.409C118.92 130.316 113.998 126.075 105.299 126.075C101.75 126.075 99.3477 126.418 98.0879 126.761V149.549C99.576 149.893 101.407 150.005 103.924 150.005C113.196 150 118.92 145.308 118.92 137.409Z" fill="#C2984D"/>
<path d="M248.292 100.156H241.568V67.7138C241.568 67.5116 241.537 67.3078 241.51 67.103C241.499 65.8146 241.088 64.5497 240.206 63.5482L186.219 1.87776C186.203 1.86193 186.187 1.85631 186.173 1.83946C185.855 1.47994 185.477 1.18069 185.081 0.922284C184.964 0.84364 184.846 0.777762 184.723 0.708821C184.38 0.522423 184.015 0.366156 183.637 0.253296C183.536 0.225209 183.447 0.184865 183.346 0.157289C182.94 0.06026 182.511 0 182.085 0H49.4117C43.3535 0 38.4316 4.92753 38.4316 10.9806V100.153H31.708C23.0428 100.153 16.0154 107.176 16.0154 115.846V197.459C16.0154 206.12 23.0428 213.152 31.708 213.152H38.4316V269.02C38.4316 275.073 43.3535 280 49.4117 280H230.588C236.641 280 241.568 275.073 241.568 269.02V213.155H248.292C256.956 213.155 263.984 206.124 263.984 197.459V115.849C263.985 107.18 256.956 100.156 248.292 100.156ZM230.588 266.047H49.4117V213.155H230.588V266.047H230.588ZM80.802 190.642V114.521C86.1825 113.604 93.737 112.912 104.385 112.912C115.143 112.912 122.812 114.977 127.966 119.094C132.888 122.987 136.207 129.393 136.207 136.954C136.207 144.515 133.689 150.922 129.111 155.27C123.16 160.882 114.344 163.397 104.039 163.397C101.75 163.397 99.6909 163.285 98.0874 163.055V190.642H80.802ZM138.507 113.491H158.425L166.323 132.032C168.727 137.64 170.33 141.759 172.276 146.804H172.504C174.22 141.99 176.05 137.528 178.343 132.032L186.125 113.491H205.699L180.286 158.481V190.643H162.888V159.039L138.507 113.491ZM230.588 100.156H49.4117V10.9831H176.598V67.1628C176.598 70.1957 179.058 72.6526 182.088 72.6526H230.588V100.156Z" fill="#C2984D"/>
</svg>
