<svg width="280" height="280" viewBox="0 0 280 280" fill="none" xmlns="http://www.w3.org/2000/svg">
<path d="M220 35H89.9993C87.2393 35.0021 85.0026 37.2388 85.0005 40.0009V200C85.0026 202.76 87.2393 204.997 89.9993 204.999H220C222.76 204.997 224.998 202.76 225 200V40.0009C224.998 37.2388 222.76 35.0021 220 35ZM99.999 64.9991H105C108.61 65.0119 111.93 66.9772 113.682 70.1324C114.117 70.0598 114.557 70.015 115 70H130C135.52 70.0064 139.993 74.4797 140 79.9997V99.9991C142.762 99.9991 145.001 102.238 145.001 105C145.001 107.762 142.762 110.001 140 110.001H134.999C132.239 110.001 130 107.762 130 105V79.9997H115V105C115 107.762 112.761 110.001 110.001 110.001C107.239 110.001 105 107.762 105 105V75.0009H99.999C97.239 75.0009 95.0002 72.7621 95.0002 70C95.0002 67.2379 97.239 64.9991 99.999 64.9991ZM201.998 176.967C202.784 178.807 204.591 180.001 206.593 180.001H210C212.762 180.001 215.001 182.238 215.001 185C215.001 187.762 212.762 190.001 210 190.001H206.593C200.592 190.003 195.168 186.425 192.807 180.909L192.5 180.191L192.192 180.909C189.832 186.425 184.408 190.003 178.407 190.001H175C172.238 190.001 169.999 187.762 169.999 185C169.999 182.238 172.238 180.001 175 180.001H178.407C180.409 180.001 182.216 178.807 183.002 176.967L187.061 167.5L183.002 158.032C182.216 156.193 180.409 154.998 178.407 155.001H175C172.238 155.001 169.999 152.762 169.999 150C169.999 147.238 172.238 145.001 175 145.001H178.407C184.408 144.997 189.832 148.575 192.192 154.093L192.5 154.81L192.807 154.093C195.168 148.575 200.592 144.997 206.593 145.001H210C212.762 145.001 215.001 147.238 215.001 150C215.001 152.762 212.762 155.001 210 155.001H206.593C204.591 154.998 202.784 156.193 201.998 158.032L197.939 167.5L201.998 176.967ZM210 89.9994H183.385L144.644 186.858C143.963 188.557 142.41 189.746 140.594 189.964C140.397 189.988 140.199 190.001 140 190.001C138.385 189.998 136.87 189.219 135.932 187.905L112.428 155.001H99.999C97.239 155.001 95.0002 152.762 95.0002 150C95.0002 147.238 97.239 145.001 99.999 145.001H115C116.615 144.999 118.129 145.779 119.067 147.094L138.754 174.654L175.354 83.1421C176.115 81.243 177.954 79.9997 180.001 79.9997H210C212.762 79.9997 215.001 82.2385 215.001 85.0006C215.001 87.7606 212.762 89.9994 210 89.9994Z" fill="#C2984D"/>
<path d="M35 260.001C35.0107 271.041 43.9594 279.989 54.9994 280H239.999C242.761 279.998 244.998 277.761 245 274.999V239.999H54.9994C43.9594 240.012 35.0107 248.958 35 260.001ZM79.9997 255H229.999C232.762 255 235 257.238 235 260.001C235 262.761 232.762 264.999 229.999 264.999H79.9997C77.2375 264.999 75.0009 262.761 75.0009 260.001C75.0009 257.238 77.2375 255 79.9997 255ZM64.9991 260.001C64.9991 262.761 62.7625 264.999 60.0003 264.999H50.0006C47.2385 264.999 44.9997 262.761 44.9997 260.001C44.9997 257.238 47.2385 255 50.0006 255H60.0003C62.7625 255 64.9991 257.238 64.9991 260.001Z" fill="#C2984D"/>
<path d="M239.999 0H54.9994C43.9594 0.0106811 35.0107 8.95935 35 19.9994V237.703C40.4837 232.747 47.6102 230.002 54.9994 229.999H245V5.00092C244.998 2.23877 242.761 0.00213623 239.999 0ZM60.0003 210C60.0003 212.762 57.7615 215.001 54.9994 215.001C52.2394 215.001 50.0006 212.762 50.0006 210V35C50.0006 32.2379 52.2394 29.9991 54.9994 29.9991C57.7615 29.9991 60.0003 32.2379 60.0003 35V210ZM60.0003 15.0006C60.0003 17.7606 57.7615 19.9994 54.9994 19.9994C52.2394 19.9994 50.0006 17.7606 50.0006 15.0006V9.99969C50.0006 7.23755 52.2394 5.00092 54.9994 5.00092C57.7615 5.00092 60.0003 7.23755 60.0003 9.99969V15.0006ZM235 200C234.992 208.28 228.28 214.99 220 215.001H89.9994C81.7194 214.99 75.0095 208.28 75.0009 200V40.0009C75.0095 31.7188 81.7194 25.0089 89.9994 25.0003H220C228.28 25.0089 234.992 31.7188 235 40.0009V200Z" fill="#C2984D"/>
</svg>
