<svg width="377" height="387" viewBox="0 0 377 387" fill="none" xmlns="http://www.w3.org/2000/svg">
<path d="M164.589 366.815L366.292 107.96C367.824 105.994 367.905 103.262 366.492 101.209C365.079 99.1554 362.499 98.2546 360.114 98.9835L289.075 120.703L297.428 148.026L286.499 151.367L278.145 124.044L250.822 132.397L259.176 159.72L248.247 163.062L239.893 135.739L212.57 144.092L220.924 171.415L209.995 174.757L201.641 147.434L174.318 155.787L182.672 183.11L171.742 186.452L163.389 159.129L136.066 167.482L144.419 194.805L133.49 198.146L125.137 170.823L103.278 177.506C100.26 178.429 98.5617 181.623 99.4844 184.641L154.617 364.973C155.241 367.012 156.948 368.534 159.044 368.922C161.141 369.309 163.279 368.496 164.589 366.815ZM184.423 275.757C182.288 275.398 180.541 273.863 179.908 271.793L162.365 214.415C161.443 211.397 163.141 208.202 166.159 207.28L242.664 183.89C245.016 183.171 247.564 184.037 248.99 186.042C250.417 188.045 250.4 190.737 248.95 192.724L189.988 273.492C188.711 275.24 186.557 276.118 184.423 275.757Z" fill="#C2984D"/>
<path d="M286.143 80.9194L269.436 26.2734C268.513 23.2553 265.319 21.5568 262.301 22.4795L232.246 31.6684L241.063 60.5094L230.134 63.8508L221.316 35.0097L188.529 45.0339L197.346 73.875L186.417 77.2164L177.6 48.3753L139.347 60.0702L148.165 88.9112L137.236 92.2526L128.418 63.4116L90.166 75.1064L98.9836 103.947L88.0544 107.289L79.2368 78.4478L46.4492 88.472L55.2668 117.313L44.3376 120.654L35.52 91.8134L5.46476 101.002C2.44665 101.925 0.748119 105.119 1.67084 108.137L18.3778 162.783C19.3005 165.802 22.495 167.5 25.5131 166.577L282.349 88.0547C285.367 87.132 287.066 83.9375 286.143 80.9194Z" fill="#C2984D"/>
</svg>
