<svg width="346" height="316" viewBox="0 0 346 316" fill="none" xmlns="http://www.w3.org/2000/svg">
<path d="M217.755 16.1659L31.7276 110.951C14.2315 119.866 7.25078 141.348 16.1655 158.844L79.5892 283.32C88.5045 300.817 109.987 307.796 127.483 298.882L313.509 204.096C331.006 195.182 337.986 173.7 329.071 156.203L265.647 31.7267C256.733 14.2305 235.251 7.25113 217.755 16.1659ZM63.5507 198.051C70.1437 194.692 78.2187 197.317 81.5795 203.913C84.9365 210.501 82.3132 218.576 75.7202 221.936C69.4275 225.142 61.1073 222.788 57.6914 216.084C54.2865 209.402 57.2254 201.274 63.5507 198.051ZM303.867 169.045C305.7 172.644 304.265 177.059 300.668 178.892L125.405 268.192L55.3349 130.671L230.597 41.3707C234.195 39.5377 238.61 40.9719 240.443 44.569L303.867 169.045Z" fill="#C2984D"/>
<path d="M86.9322 141.653L166.18 101.274C168.503 100.091 169.423 97.2548 168.24 94.9328C167.057 92.6113 164.222 91.6891 161.899 92.8724L82.6514 133.251C80.3289 134.435 79.4082 137.271 80.5911 139.592C81.7737 141.915 84.6096 142.836 86.9322 141.653Z" fill="#C2984D"/>
<path d="M95.4937 158.456L174.741 118.077C177.064 116.894 177.985 114.058 176.802 111.736C175.619 109.415 172.783 108.492 170.461 109.676L91.2129 150.054C88.8904 151.238 87.9697 154.074 89.1526 156.396C90.3355 158.718 93.1711 159.639 95.4937 158.456Z" fill="#C2984D"/>
<path d="M104.055 175.259L183.303 134.88C185.626 133.697 186.547 130.861 185.364 128.539C184.181 126.218 181.345 125.296 179.023 126.479L99.7747 166.858C97.4522 168.041 96.5315 170.877 97.7144 173.199C98.897 175.521 101.733 176.443 104.055 175.259Z" fill="#C2984D"/>
<path d="M228.033 59.1758L182.054 82.6033C179.732 83.7862 178.811 86.6229 179.993 88.9444L197.117 122.551C198.3 124.873 201.136 125.794 203.458 124.611L249.437 101.184C251.759 100 252.68 97.1645 251.497 94.8425L234.374 61.2362C233.191 58.9147 230.355 57.9927 228.033 59.1758ZM240.954 94.9223L203.377 114.069L190.535 88.8646L228.112 69.7179L240.954 94.9223Z" fill="#C2984D"/>
<path d="M251.53 113.345L109.406 185.761C107.084 186.944 106.163 189.78 107.346 192.102C108.529 194.424 111.365 195.345 113.687 194.162L255.811 121.746C258.133 120.563 259.055 117.727 257.872 115.405C256.689 113.084 253.852 112.162 251.53 113.345Z" fill="#C2984D"/>
<path d="M260.092 130.148L117.968 202.564C115.645 203.747 114.725 206.583 115.907 208.905C117.091 211.227 119.927 212.148 122.249 210.965L264.373 138.549C266.695 137.366 267.616 134.53 266.433 132.208C265.25 129.887 262.414 128.965 260.092 130.148Z" fill="#C2984D"/>
<path d="M268.653 146.951L126.53 219.367C124.207 220.55 123.286 223.387 124.469 225.708C125.652 228.03 128.488 228.952 130.81 227.768L272.935 155.352C275.257 154.169 276.178 151.333 274.995 149.011C273.812 146.69 270.975 145.768 268.653 146.951Z" fill="#C2984D"/>
<path d="M277.214 163.753L135.091 236.169C132.768 237.353 131.847 240.189 133.031 242.511C134.214 244.833 137.05 245.754 139.372 244.571L281.496 172.155C283.818 170.972 284.739 168.136 283.556 165.814C282.373 163.493 279.536 162.57 277.214 163.753Z" fill="#C2984D"/>
</svg>
