<svg width="280" height="280" viewBox="0 0 280 280" fill="none" xmlns="http://www.w3.org/2000/svg">
<path d="M269.322 29.1927H41.9055C36.015 29.1927 31.2337 33.2062 31.2337 38.1522C31.2337 43.0981 36.0091 47.1116 41.9055 47.1116H258.651V262.082H50.5196C34.4314 262.082 21.3429 251.094 21.3488 237.582V42.4134C21.3488 28.9067 34.4308 17.9184 50.5196 17.9184H269.322C275.219 17.9184 280 13.9048 280 8.95891C279.999 4.01352 275.219 0 269.322 0H50.5196C22.6607 0 0 19.0302 0 42.4184V237.587C0 260.97 22.6614 280 50.5196 280H269.322C275.213 280 280 275.986 280 271.041V38.1522C279.999 33.2068 275.219 29.1927 269.322 29.1927Z" fill="#C2984D"/>
<path d="M206.316 172.741C198.193 172.741 195.314 169.305 195.164 169.14C192.367 164.786 185.886 163.17 180.7 165.524C175.514 167.877 173.59 173.318 176.393 177.667C177.254 179.002 185.376 190.664 206.316 190.664C216.109 190.664 224.641 187.364 230.359 181.389C235.128 176.405 237.753 169.722 237.753 162.573C237.753 152.366 232.307 141.713 221.976 136.282L231.937 121.086C233.763 118.31 233.7 114.932 231.781 112.205C229.861 109.477 226.364 107.803 222.589 107.803H188.036C182.14 107.803 177.364 111.816 177.364 116.762C177.364 121.708 182.14 125.722 188.036 125.722H204.535L196.967 137.263C195.146 140.039 195.21 143.412 197.129 146.14C199.054 148.868 202.546 150.542 206.315 150.542C213.663 150.542 216.402 157.919 216.402 162.568C216.402 165.611 215.419 168.378 213.708 170.169C212.652 171.275 210.744 172.741 206.316 172.741Z" fill="#C2984D"/>
<path d="M164.52 135.375C164.52 120.169 150.535 107.798 133.343 107.798C116.151 107.798 102.167 120.169 102.167 135.375C102.167 140.32 106.947 144.334 112.839 144.334C118.73 144.334 123.51 140.325 123.51 135.375C123.51 130.05 127.921 125.716 133.344 125.716C138.767 125.716 143.177 130.05 143.177 135.375C143.177 142.902 137.714 146.144 127.239 151.682C116.66 157.278 102.173 164.941 102.173 181.705C102.173 186.655 106.948 190.664 112.844 190.664H153.848C159.745 190.664 164.52 186.655 164.52 181.705C164.52 176.754 159.74 172.74 153.843 172.74H128.637C131.025 170.954 134.309 169.124 138.61 166.848C149.541 161.063 164.52 153.148 164.52 135.375Z" fill="#C2984D"/>
<path d="M77.2217 190.664C83.1122 190.664 87.8935 186.655 87.8993 181.71V116.767C87.8993 113.083 85.2227 109.778 81.1411 108.429C77.0595 107.075 72.4118 107.958 69.4232 110.652L40.2003 136.947C36.1825 140.563 36.4138 146.237 40.7266 149.61C45.0337 152.978 51.7795 152.784 55.809 149.168L66.5499 139.5V181.705C66.5499 186.656 71.3252 190.664 77.2217 190.664Z" fill="#C2984D"/>
</svg>
