<svg width="709" height="783" viewBox="0 0 709 783" fill="none" xmlns="http://www.w3.org/2000/svg">
<path d="M443.181 696.352C447.914 676.616 444.618 655.732 433.959 638.334L409.776 598.732C425.476 585.517 439.136 569.17 449.72 549.993C457.096 536.63 462.486 522.737 466.091 508.649L484.264 513.16C498.798 516.765 514.124 514.487 526.884 506.803C539.581 499.086 548.745 486.639 552.279 472.128C559.549 441.925 540.926 411.374 510.691 403.868L461.557 391.653C503.573 386.827 541.157 364.366 561.699 327.148C562.07 326.477 562.422 325.81 562.78 325.132C597.395 332.522 634.138 317.049 652.017 284.656C673.982 244.861 659.341 194.396 619.36 172.139C593.552 157.772 563.444 158.639 539.417 171.739C527.297 157.918 512.474 145.77 495.244 136.178C478.003 126.58 459.889 120.393 441.815 117.389C440.145 89.9844 424.897 63.8682 399.115 49.5153C359.134 27.2583 308.748 41.5233 286.783 81.3182C268.897 113.723 275.308 153.203 299.891 178.769C299.508 179.434 299.132 180.086 298.761 180.758C278.219 217.976 279.18 261.895 297.369 300.235L261.031 264.869C238.645 243.082 202.996 243.436 181.363 265.627C170.995 276.302 165.292 290.676 165.534 305.612C165.795 320.544 171.986 334.816 182.731 345.285L196.171 358.371C186.154 368.874 177.303 380.841 169.914 394.228C159.33 413.405 152.776 433.708 149.936 454.082L103.68 454.471C83.3266 454.638 63.9513 462.885 49.8127 477.369C35.636 491.863 27.8751 511.446 28.1969 531.761C28.8421 574.131 63.7275 608.177 106.102 607.816L211.83 606.986C217.301 611.054 223.091 614.835 229.202 618.237C235.313 621.64 241.556 624.572 247.896 627.064L303.222 717.55C325.396 753.845 372.62 765.508 408.716 743.591C426.041 733.101 438.441 716.1 443.181 696.352ZM386.369 204.619C394.026 208.882 396.842 218.545 392.635 226.167C388.428 233.789 378.77 236.523 371.112 232.26C363.442 227.991 360.639 218.334 364.852 210.7C369.066 203.066 378.699 200.349 386.369 204.619ZM494.585 266.187C502.255 270.457 505.059 280.113 500.845 287.747C496.631 295.381 486.998 298.098 479.328 293.828C471.659 289.559 468.848 279.915 473.062 272.28C477.276 264.646 486.915 261.917 494.585 266.187ZM254.086 559.406C246.911 534.941 227.467 468.501 227.062 467.142C218.912 439.037 235.025 409.845 263.07 401.905C291.064 394 320.309 410.217 328.546 438.194C356.535 430.383 385.727 446.698 393.886 474.728C402.055 502.828 385.942 532.021 357.878 539.966C356.503 540.334 290.095 558.981 265.646 565.841C260.697 567.222 255.531 564.345 254.086 559.406ZM599.243 208.556C619.013 219.561 626.286 244.576 615.418 264.265C607.334 278.911 591.443 286.543 575.726 284.994C579.362 258.788 574.66 231.644 562.727 206.878C574.047 201.859 587.548 202.045 599.243 208.556ZM424.738 263.918C448.901 277.369 458.786 305.817 446.847 327.449C434.907 349.081 405.621 355.723 381.482 342.286C357.332 328.842 347.428 300.398 359.374 278.754C371.314 257.122 400.563 250.46 424.738 263.918ZM323.401 101.703C334.269 82.0135 359.234 74.9456 379.016 85.958C390.711 92.4684 398.023 103.868 399.79 116.157C372.546 119.13 347.121 129.502 326.944 146.468C317.27 133.914 315.318 116.349 323.401 101.703Z" fill="#C2984D"/>
<path d="M401.831 305.421C412.635 311.435 425.724 308.463 431.067 298.783C436.41 289.103 431.984 276.38 421.18 270.366C410.377 264.352 397.288 267.324 391.945 277.004C386.602 286.684 391.028 299.407 401.831 305.421Z" fill="#C2984D"/>
</svg>
