<svg width="304" height="304" viewBox="0 0 304 304" fill="none" xmlns="http://www.w3.org/2000/svg">
<g clip-path="url(#clip0_44_165)">
<path d="M136.624 175.885L125.075 189.64C121.971 193.353 116.424 193.86 112.689 190.723L98.9288 179.183C95.0258 175.896 89.1461 176.364 85.8176 180.33C82.5144 184.267 83.0233 190.132 86.9645 193.439L121.723 222.603L150.886 187.847C154.183 183.915 153.669 178.035 149.739 174.738C145.807 171.438 139.921 171.947 136.624 175.885Z" fill="#C2984D"/>
<path d="M192.722 18.6848L9.7268 34.6948C4.89175 35.1179 1.3103 39.379 1.73387 44.2204L7.74465 112.924L18.881 111.95C23.7224 111.526 27.9836 115.108 28.4066 119.943C28.8302 124.784 25.2551 129.045 20.4137 129.468L9.27733 130.443L11.0169 150.325L22.1532 149.351C26.9946 148.928 31.2558 152.509 31.6788 157.344C32.102 162.181 28.5275 166.448 23.6861 166.872L12.5497 167.846L14.2892 187.729L25.4256 186.755C30.267 186.331 34.5276 189.906 34.9512 194.748C35.3742 199.583 31.7997 203.85 26.9583 204.273L15.8219 205.248L22.7605 284.555C23.1835 289.391 27.451 292.971 32.2861 292.548L215.282 276.538C220.123 276.115 223.697 271.848 223.274 267.013L202.248 26.6777C201.824 21.8363 197.564 18.2612 192.722 18.6848ZM164.356 199.155L129.537 240.644C126.427 244.364 120.88 244.856 117.152 241.728L75.6633 206.915C64.2794 197.363 62.7881 180.415 72.3481 169.022C81.8965 157.643 98.8424 156.158 110.237 165.707L117.261 171.601L123.154 164.577C132.688 153.22 149.681 151.734 161.041 161.262C172.402 170.795 173.889 187.794 164.356 199.155ZM172.535 103.096C172.958 107.937 169.377 112.198 164.542 112.621L60.4563 121.728C55.6213 122.151 51.3543 118.576 50.9307 113.735L47.2467 71.626C46.8236 66.791 50.4045 62.5234 55.2396 62.1004L159.325 52.9941C164.16 52.5711 168.428 56.152 168.851 60.9871L172.535 103.096Z" fill="#C2984D"/>
<path d="M65.5315 78.8527L152.096 71.2792L154.248 95.8694L67.6829 103.443L65.5315 78.8527Z" fill="#C2984D"/>
<path d="M250.817 12.8902C234.812 14.2905 222.926 28.4454 224.327 44.453L224.779 49.6264L282.832 44.5475L282.379 39.374C280.979 23.3665 266.825 11.4897 250.817 12.8902Z" fill="#C2984D"/>
<path d="M262.559 261.099C266.374 270.606 280.254 269.398 282.35 259.367L294.342 202.14L240.816 206.823L262.559 261.099Z" fill="#C2984D"/>
<path d="M226.312 67.145L284.364 62.0661L295.069 184.423L237.017 189.502L226.312 67.145Z" fill="#C2984D"/>
</g>
<defs>
<clipPath id="clip0_44_165">
<rect width="280" height="280" fill="white" transform="translate(0 24.4036) rotate(-5)"/>
</clipPath>
</defs>
</svg>
