<svg width="280" height="280" viewBox="0 0 280 280" fill="none" xmlns="http://www.w3.org/2000/svg">
<g clip-path="url(#clip0_44_272)">
<path d="M255.032 8.75H24.9681C11.2005 8.75 0 19.962 0 33.7427V57.8484H280V33.7427C280 19.962 268.799 8.75 255.032 8.75ZM37.427 42.4282H25.1825C20.6522 42.4282 16.9794 38.7554 16.9794 34.2251C16.9794 29.6948 20.6522 26.022 25.1825 26.022H37.427C41.9573 26.022 45.6302 29.6948 45.6302 34.2251C45.6302 38.7554 41.9573 42.4282 37.427 42.4282ZM74.019 42.4282H61.7744C57.2441 42.4282 53.5713 38.7554 53.5713 34.2251C53.5713 29.6948 57.2441 26.022 61.7744 26.022H74.019C78.5493 26.022 82.2221 29.6948 82.2221 34.2251C82.2221 38.7554 78.5493 42.4282 74.019 42.4282ZM110.61 42.4282H98.3659C93.8355 42.4282 90.1627 38.7554 90.1627 34.2251C90.1627 29.6948 93.8355 26.022 98.3659 26.022H110.61C115.141 26.022 118.814 29.6948 118.814 34.2251C118.814 38.7554 115.141 42.4282 110.61 42.4282Z" fill="#C2984D"/>
<path d="M0 199.959C0 213.74 11.2005 224.952 24.9681 224.952H255.032C268.799 224.952 280 213.74 280 199.959V74.2549H0V199.959ZM174.626 125.74C171.537 122.427 171.718 117.237 175.031 114.147C178.343 111.056 183.534 111.238 186.624 114.551L214.607 144.555C217.546 147.706 217.546 152.594 214.607 155.745L186.624 185.749C185.009 187.481 182.819 188.358 180.623 188.358C178.62 188.358 176.612 187.628 175.031 186.154C171.717 183.064 171.536 177.873 174.626 174.56L197.391 150.15L174.626 125.74ZM122.095 177.602L141.743 117.593C143.153 113.288 147.786 110.941 152.091 112.35C156.397 113.759 158.745 118.393 157.335 122.698L137.687 182.707C136.555 186.165 133.344 188.359 129.893 188.359C129.047 188.359 128.187 188.227 127.339 187.95C123.033 186.54 120.686 181.907 122.095 177.602ZM65.3926 144.555L93.3756 114.551C96.4655 111.239 101.657 111.056 104.969 114.147C108.283 117.237 108.464 122.427 105.374 125.74L82.6087 150.15L105.374 174.559C108.463 177.872 108.282 183.063 104.969 186.153C103.389 187.628 101.38 188.357 99.3765 188.357C97.1808 188.357 94.9911 187.481 93.3756 185.748L65.3926 155.744C62.4537 152.594 62.4537 147.706 65.3926 144.555Z" fill="#C2984D"/>
</g>
<defs>
<clipPath id="clip0_44_272">
<rect width="280" height="280" fill="white"/>
</clipPath>
</defs>
</svg>
