<svg width="280" height="280" viewBox="0 0 280 280" fill="none" xmlns="http://www.w3.org/2000/svg">
<g clip-path="url(#clip0_59_9)">
<path d="M111.519 8.02393C98.7612 10.8939 86.0912 14.8577 74.1912 20.8339C74.4625 31.3164 75.145 41.3439 76.5187 51.5027C71.9162 54.4689 67.0862 57.0152 62.7987 60.4802C58.4237 63.8052 53.9612 67.0427 49.9887 70.9627C42.0612 65.7652 33.7225 60.8477 25.06 56.5164C15.7587 66.5002 7.10496 77.2977 -0.00878906 89.3727C5.31996 98.0352 10.9287 106.094 16.9487 113.803H17.0887V187.95C17.2287 187.95 17.36 187.95 17.5 187.994L62.9825 192.369C65.3537 192.596 67.2175 194.513 67.3575 196.928L68.7662 216.983L108.412 219.809L111.151 201.303C111.519 198.888 113.566 197.111 115.981 197.111H163.966C166.381 197.111 168.429 198.888 168.796 201.303L171.535 219.809L211.181 216.983L212.59 196.928C212.73 194.513 214.594 192.596 217.009 192.369L262.447 187.994C262.587 187.994 262.719 187.95 262.859 187.95V113.803H263.042C269.062 106.146 274.619 98.0352 279.947 89.3727C272.886 77.2977 264.18 66.4914 254.879 56.5164C246.269 60.8477 237.877 65.7652 229.95 70.9627C225.986 67.0427 221.567 63.8052 217.192 60.4802C212.861 57.0152 208.031 54.4602 203.429 51.5027C204.794 41.3439 205.476 31.3164 205.756 20.8339C193.909 14.8664 181.239 10.9027 168.429 8.02393C163.327 16.6339 158.672 25.9352 154.621 35.0002C149.791 34.2214 144.917 33.9064 140.087 33.8627H139.86C135.03 33.9064 130.156 34.2302 125.326 35.0002C121.266 25.9352 116.62 16.6339 111.475 8.02393H111.519ZM75.5562 116.576C90.685 116.576 102.944 128.879 102.944 144.008C102.944 159.136 90.685 171.395 75.5562 171.395C60.4275 171.395 48.1687 159.136 48.1687 144.008C48.1687 128.879 60.4275 116.576 75.5562 116.576ZM204.444 116.576C219.572 116.576 231.831 128.879 231.831 144.008C231.831 159.136 219.572 171.395 204.444 171.395C189.315 171.395 177.056 159.136 177.056 144.008C177.056 128.879 189.315 116.576 204.444 116.576ZM78.155 127.47C68.1275 127.47 59.9725 135.581 59.9725 145.653C59.9725 155.68 68.1275 163.791 78.155 163.791C88.2262 163.791 96.3812 155.68 96.3812 145.653C96.3812 135.581 88.2262 127.47 78.155 127.47ZM201.801 127.47C191.774 127.47 183.619 135.581 183.619 145.653C183.619 155.68 191.774 163.791 201.801 163.791C211.872 163.791 219.984 155.68 219.984 145.653C219.984 135.581 211.872 127.47 201.801 127.47ZM140 132.755C144.874 132.755 148.837 136.308 148.837 140.726V165.97C148.837 170.389 144.874 173.994 140 173.994C135.126 173.994 131.162 170.398 131.162 165.97V140.726C131.162 136.308 135.126 132.755 140 132.755ZM17.045 197.741C17.045 202.16 17.0887 206.946 17.0887 207.9C17.0887 251.108 71.8637 271.836 139.904 272.064H140.087C208.127 271.836 262.859 251.099 262.859 207.9C262.859 206.946 262.902 202.16 262.946 197.741L222.066 201.705L220.657 221.891C220.474 224.306 218.557 226.266 216.142 226.406L167.335 229.871C164.964 229.871 162.872 228.139 162.505 225.724L159.722 206.859H120.207L117.425 225.724C117.057 228.226 114.826 230.055 112.227 229.871L63.8312 226.406C61.4162 226.223 59.4562 224.306 59.2725 221.891L57.9075 201.705L17.0275 197.785L17.045 197.741Z" fill="#C2984D"/>
</g>
<defs>
<clipPath id="clip0_59_9">
<rect width="280" height="280" fill="white"/>
</clipPath>
</defs>
</svg>
