<svg width="280" height="280" viewBox="0 0 280 280" fill="none" xmlns="http://www.w3.org/2000/svg">
<g clip-path="url(#clip0_48_472)">
<path fill-rule="evenodd" clip-rule="evenodd" d="M43.0381 12.5107H236.962C245.804 12.5107 253.039 19.745 253.039 28.587V187.431H26.9612V28.587C26.9612 19.745 34.1955 12.5107 43.0381 12.5107ZM48.7389 34.2885V171.875H231.261V34.2885H48.7389Z" fill="#C2984D"/>
<path fill-rule="evenodd" clip-rule="evenodd" d="M280 254.784V267.489H0V254.784H280Z" fill="#C2984D"/>
<path fill-rule="evenodd" clip-rule="evenodd" d="M280 248.562H174.13V240.611C174.13 236.238 170.552 232.661 166.179 232.661H113.821C109.448 232.661 105.87 236.238 105.87 240.611V248.562H0L26.9612 193.653H253.038L280 248.562ZM45.388 204.302H58.223V210.524H45.388V204.302ZM80.666 204.301H93.501V210.524H80.666V204.301ZM115.944 204.301H128.778V210.524H115.944V204.301ZM151.222 204.301H164.056V210.524H151.222V204.301ZM186.499 204.301H199.334V210.524H186.499V204.301ZM221.777 204.302H234.612V210.524H221.777V204.302ZM45.388 215.791H58.223V222.013H45.388V215.791ZM80.666 215.79H93.501V222.013H80.666V215.79ZM115.944 215.79H128.778V222.013H115.944V215.79ZM151.222 215.79H164.056V222.013H151.222V215.79ZM186.499 215.79H199.334V222.013H186.499V215.79ZM221.777 215.791H234.612V222.013H221.777V215.791Z" fill="#C2984D"/>
</g>
<defs>
<clipPath id="clip0_48_472">
<rect width="280" height="280" fill="white"/>
</clipPath>
</defs>
</svg>
