<svg width="280" height="280" viewBox="0 0 280 280" fill="none" xmlns="http://www.w3.org/2000/svg">
<g clip-path="url(#clip0_48_449)">
<path d="M50.2015 92.0313C54.8307 92.0313 58.5841 88.2663 58.5841 83.6238C58.5841 78.9791 54.8307 75.2141 50.2015 75.2141H32.7527C28.1257 75.2141 24.3723 78.9791 24.3723 83.6238C24.3723 88.2663 28.1257 92.0313 32.7527 92.0313H50.2015Z" fill="#C2984D"/>
<path d="M73.2043 156.265H83.0075C87.6367 156.265 91.3901 152.5 91.3901 147.857C91.3901 143.213 87.6367 139.448 83.0075 139.448H73.2043C68.5751 139.448 64.8218 143.213 64.8218 147.857C64.8218 152.5 68.5751 156.265 73.2043 156.265Z" fill="#C2984D"/>
<path d="M73.2043 185.539H83.0075C87.6367 185.539 91.3901 181.777 91.3901 177.132C91.3901 172.487 87.6367 168.722 83.0075 168.722H73.2043C68.5751 168.722 64.8218 172.487 64.8218 177.132C64.8218 181.777 68.5751 185.539 73.2043 185.539Z" fill="#C2984D"/>
<path d="M118.503 197.997H39.9966C35.3674 197.997 31.6162 201.762 31.6162 206.406C31.6162 211.049 35.3674 214.814 39.9966 214.814H118.503C123.132 214.814 126.884 211.049 126.884 206.406C126.884 201.762 123.132 197.997 118.503 197.997Z" fill="#C2984D"/>
<path d="M118.503 227.271H39.9966C35.3674 227.271 31.6162 231.036 31.6162 235.681C31.6162 240.323 35.3674 244.088 39.9966 244.088H118.503C123.132 244.088 126.884 240.323 126.884 235.681C126.884 231.036 123.132 227.271 118.503 227.271Z" fill="#C2984D"/>
<path d="M54.7197 188.992C58.4538 186.248 59.2634 180.987 56.529 177.241L45.8415 162.601L56.529 147.962C59.2634 144.217 58.4538 138.953 54.7197 136.209C50.9855 133.465 45.7411 134.279 43.0067 138.024L28.6918 157.633C26.5321 160.591 26.5321 164.613 28.6918 167.568L43.0067 187.177C45.7432 190.925 50.9855 191.736 54.7197 188.992Z" fill="#C2984D"/>
<path d="M166.786 207.579L177.474 222.218L166.786 236.858C164.052 240.604 164.862 245.865 168.596 248.609C172.328 251.353 177.572 250.544 180.309 246.794L194.624 227.188C196.783 224.23 196.783 220.208 194.624 217.25L180.309 197.641C177.574 193.896 172.33 193.084 168.596 195.826C164.862 198.57 164.052 203.834 166.786 207.579Z" fill="#C2984D"/>
<path d="M150.433 194.373C145.896 193.435 141.468 196.372 140.541 200.923L132.53 240.137C131.6 244.688 134.523 249.131 139.056 250.062C143.574 250.995 148.017 248.076 148.949 243.515L156.96 204.298C157.889 199.75 154.967 195.306 150.433 194.373Z" fill="#C2984D"/>
<path d="M272.899 17.804L261.981 6.85581C252.507 -2.6626 237.145 -2.63905 227.703 6.85581C207.063 27.5557 220.309 14.2681 182.428 52.2818H182.421C175.526 52.2818 23.176 52.2818 8.38043 52.2818C3.74909 52.2818 0 56.0425 0 60.6893V271.864C0 276.511 3.74909 280.274 8.38043 280.274H219.476C224.11 280.274 227.859 276.511 227.859 271.864V97.3931L272.899 52.2026C282.38 42.6777 282.354 27.2925 272.899 17.804ZM218.103 40.2676L222.924 45.1007C156.406 111.841 172.558 95.6336 145.283 123.005L140.461 118.168C176.213 82.2967 182.253 76.2372 218.103 40.2676ZM146.639 148.149L124.04 156.203L132.062 133.527C141.03 142.517 137.701 139.178 146.639 148.149ZM165.66 69.099L150.055 84.7561H87.6773L82.6764 69.099H165.66ZM211.096 263.457H16.763V69.099H65.076L73.5803 95.7321C74.6912 99.2145 77.9147 101.573 81.5592 101.573H133.292L122.682 112.22C121.784 113.119 121.118 114.202 120.721 115.33C120.714 115.336 120.71 115.347 120.71 115.353L102.349 167.224C100.012 173.861 106.378 180.334 113.056 177.965L164.56 159.611C165.93 159.14 166.978 158.47 167.878 157.564L211.096 114.202V263.457ZM161.95 139.728L157.133 134.895C223.183 68.6152 165.825 126.175 234.776 56.9949L239.593 61.828C218.218 83.2728 183.058 118.551 161.95 139.728ZM261.041 40.3062L251.449 49.9316C238.239 36.6867 243.137 41.6011 229.959 28.3712L239.553 18.7458C242.473 15.8156 247.205 15.8113 250.129 18.7458L261.041 29.694C263.957 32.6178 263.974 37.3652 261.041 40.3062Z" fill="#C2984D"/>
</g>
<defs>
<clipPath id="clip0_48_449">
<rect width="280" height="280" fill="white"/>
</clipPath>
</defs>
</svg>
