<svg width="394" height="368" viewBox="0 0 394 368" fill="none" xmlns="http://www.w3.org/2000/svg">
<path d="M303.03 283.359C309.41 278.574 314.142 271.994 316.199 264.11C321.579 243.484 306.672 221.675 282.97 215.492L280.482 214.843C286.148 211.875 291.656 201.748 293.166 195.957C298.546 175.331 283.64 153.521 259.938 147.339C254.59 145.944 250.84 144.966 245.609 143.601L250.235 125.868L274.116 132.097C294.535 137.423 314.911 129.434 323.607 113.933L345.571 119.663L357.202 141.56L374.829 135.065L364.564 115.739L382.96 103.889L370.751 89.6118L349.908 103.038L327.943 97.3087C327.925 79.5357 314.048 62.6114 293.629 57.2855L243.214 44.1353C235.097 42.0181 226.056 43.6799 216.342 49.0735C203.151 56.3982 193.872 68.1526 190.216 82.1723L178.742 126.16L173.966 124.914C150.263 118.732 126.603 130.482 121.223 151.108C119.219 158.792 120.034 166.64 123.067 173.784L120.579 173.135C100.904 168.002 81.2687 175.235 72.0835 189.636C67.2042 174.316 46.3333 167.551 32.8943 176.909C26.9911 181.019 23.91 187.324 24.4401 194.207L28.0193 240.704C14.4456 262.579 29.0814 291.316 57.2316 298.658L276.936 355.965C300.639 362.148 324.298 350.398 329.678 329.772C334.541 311.129 322.829 291.522 303.03 283.359ZM272.764 194.462C257.604 191.115 249.187 175.951 256.041 164.089C270.462 168.1 278.602 182.405 272.764 194.462ZM209.321 87.1557C211.894 77.2905 218.363 69.0518 227.538 63.9577C232.26 61.3353 236.499 60.1399 238.878 60.7603L266.84 68.0539L262.504 84.6787L281.609 89.6619L285.945 73.0371L289.293 73.9105C302.462 77.3453 310.743 89.4616 307.754 100.921C304.765 112.379 291.621 118.907 278.453 115.473L235.467 104.26L226.505 138.618L197.848 131.143L209.322 87.1558L209.321 87.1557ZM140.329 156.091C143.318 144.632 156.462 138.104 169.63 141.539L236.664 159.024C229.438 176.024 237.64 195.955 255.774 206.149C252.261 206.672 248.512 206.504 244.761 205.526L158.79 183.101C145.621 179.666 137.34 167.55 140.329 156.091ZM213.973 215.251C203.726 224.381 185.407 219.655 180.904 206.625L213.973 215.251ZM116.243 189.76L160.438 201.287C160.954 216.721 173.163 231.24 190.934 235.875C208.705 240.511 226.45 233.805 234.439 220.589L278.633 232.117C291.802 235.552 300.083 247.668 297.094 259.127C294.105 270.586 280.961 277.114 267.793 273.679L105.402 231.322C92.2341 227.887 83.953 215.77 86.9419 204.312C89.9308 192.853 103.075 186.325 116.243 189.76ZM131.929 255.997C121.682 265.126 103.363 260.401 98.86 247.371L131.929 255.997ZM49.7688 190.176C51.6716 190.673 53.0988 192.106 53.4047 193.828L58.4946 222.494C54.2536 222.967 50.1819 223.996 46.3974 225.534L43.9852 194.204C43.7694 191.401 46.6471 189.362 49.7688 190.176ZM212.2 321.324C222.447 312.195 240.766 316.92 245.269 329.95L212.2 321.324ZM281.272 339.341L265.734 335.288C265.219 319.854 253.01 305.335 235.239 300.7C217.468 296.064 199.723 302.77 191.734 315.986L61.568 282.034C43.5395 277.331 36.2927 257.424 48.637 245.825C54.5385 240.292 63.6411 238.185 72.4089 240.472L78.3944 242.033C78.9101 257.466 91.1188 271.986 108.89 276.621C126.661 281.256 144.406 274.55 152.395 261.335L292.113 297.779C305.282 301.213 313.563 313.33 310.574 324.789C307.585 336.248 294.44 342.775 281.272 339.341Z" fill="#AF8E53"/>
</svg>
