<svg width="215" height="278" viewBox="0 0 215 278" fill="none" xmlns="http://www.w3.org/2000/svg">
<g clip-path="url(#clip0_44_252)">
<path d="M112.174 129.071C119.918 129.071 126.196 122.404 126.196 114.178V74.4641C126.196 66.239 119.918 59.5713 112.174 59.5713H84.1304C76.3864 59.5713 70.1087 66.239 70.1087 74.4641V94.3213H98.1522C100.733 94.3213 102.826 96.5439 102.826 99.2856C102.826 102.027 100.733 104.25 98.1522 104.25H42.0652C34.3212 104.25 28.0435 110.918 28.0435 119.143V148.928C28.0435 157.154 34.3212 163.821 42.0652 163.821H60.7608V153.893C60.7763 140.191 71.2302 129.088 84.1304 129.071H112.174ZM88.8043 84.3927C86.223 84.3927 84.1304 82.1701 84.1304 79.4284C84.1304 76.6867 86.223 74.4641 88.8043 74.4641C91.3857 74.4641 93.4782 76.6867 93.4782 79.4284C93.4782 82.1701 91.3857 84.3927 88.8043 84.3927Z" fill="#C2984D"/>
<path d="M51.413 39.7143V7.01953L6.60889 54.6072H37.3913C45.1353 54.6072 51.413 47.9394 51.413 39.7143Z" fill="#C2984D"/>
<path d="M98.1521 163.821H154.239C161.983 163.821 168.261 157.154 168.261 148.929V119.143C168.261 110.918 161.983 104.25 154.239 104.25H135.543V114.179C135.528 127.88 125.074 138.984 112.174 139H84.1304C76.3864 139 70.1086 145.668 70.1086 153.893V193.607C70.1086 201.832 76.3864 208.5 84.1304 208.5H112.174C119.918 208.5 126.196 201.832 126.196 193.607V173.75H98.1521C95.5708 173.75 93.4782 171.527 93.4782 168.786C93.4782 166.044 95.5708 163.821 98.1521 163.821ZM107.5 183.679C110.081 183.679 112.174 185.901 112.174 188.643C112.174 191.385 110.081 193.607 107.5 193.607C104.919 193.607 102.826 191.385 102.826 188.643C102.826 185.901 104.919 183.679 107.5 183.679Z" fill="#C2984D"/>
<path d="M205.652 20.7705V243.25C205.637 256.952 195.183 268.055 182.283 268.071H19.5557C21.5292 274 26.7966 277.974 32.7174 278H200.978C208.722 278 215 271.332 215 263.107V34.7499C214.975 28.4613 211.235 22.8667 205.652 20.7705Z" fill="#C2984D"/>
<path d="M196.304 243.25V14.8929C196.304 6.66776 190.027 0 182.283 0H60.7609V39.7143C60.7454 53.416 50.2916 64.5193 37.3913 64.5357H0V243.25C0 251.475 6.27775 258.143 14.0217 258.143H182.283C190.027 258.143 196.304 251.475 196.304 243.25ZM172.935 9.92857H182.283C184.864 9.92857 186.957 12.1512 186.957 14.8929C186.957 17.6346 184.864 19.8571 182.283 19.8571H172.935C170.353 19.8571 168.261 17.6346 168.261 14.8929C168.261 12.1512 170.353 9.92857 172.935 9.92857ZM126.196 9.92857H154.239C156.82 9.92857 158.913 12.1512 158.913 14.8929C158.913 17.6346 156.82 19.8571 154.239 19.8571H126.196C123.614 19.8571 121.522 17.6346 121.522 14.8929C121.522 12.1512 123.614 9.92857 126.196 9.92857ZM23.3696 243.25H18.6957C16.1143 243.25 14.0217 241.027 14.0217 238.286C14.0217 235.544 16.1143 233.321 18.6957 233.321H23.3696C25.9509 233.321 28.0435 235.544 28.0435 238.286C28.0435 241.027 25.9509 243.25 23.3696 243.25ZM112.174 243.25H42.0652C39.4839 243.25 37.3913 241.027 37.3913 238.286C37.3913 235.544 39.4839 233.321 42.0652 233.321H112.174C114.755 233.321 116.848 235.544 116.848 238.286C116.848 241.027 114.755 243.25 112.174 243.25ZM112.174 218.429H84.1304C71.2302 218.412 60.7763 207.309 60.7609 193.607V173.75H42.0652C29.165 173.734 18.7111 162.63 18.6957 148.929V119.143C18.7111 105.441 29.165 94.3378 42.0652 94.3214H60.7609V74.4643C60.7763 60.7626 71.2302 49.6593 84.1304 49.6429H112.174C125.074 49.6593 135.528 60.7626 135.543 74.4643V94.3214H154.239C167.139 94.3378 177.593 105.441 177.609 119.143V148.929C177.593 162.63 167.139 173.734 154.239 173.75H135.543V193.607C135.528 207.309 125.074 218.412 112.174 218.429ZM177.609 243.25H135.543C132.962 243.25 130.87 241.027 130.87 238.286C130.87 235.544 132.962 233.321 135.543 233.321H177.609C180.19 233.321 182.283 235.544 182.283 238.286C182.283 241.027 180.19 243.25 177.609 243.25Z" fill="#C2984D"/>
</g>
<defs>
<clipPath id="clip0_44_252">
<rect width="215" height="278" fill="white"/>
</clipPath>
</defs>
</svg>
