<svg width="280" height="280" viewBox="0 0 280 280" fill="none" xmlns="http://www.w3.org/2000/svg">
<path d="M276.183 120.377C276.177 120.324 276.2 120.282 276.194 120.24C276.171 120.113 276.065 120.024 276.024 119.898C275.919 119.555 275.779 119.235 275.561 118.95C275.432 118.766 275.291 118.624 275.128 118.466C274.905 118.261 274.659 118.087 274.378 117.918C274.231 117.834 274.137 117.698 273.974 117.629L258.607 111.095L268.893 102.261C269.76 101.525 270.212 100.461 270.112 99.3926L266.344 57.9558C266.267 57.4979 266.168 57.4079 266.127 57.2821C266.021 56.9453 265.875 56.6191 265.664 56.3345C265.534 56.1555 265.394 56.0132 265.23 55.8506C265.002 55.6454 264.762 55.4712 264.48 55.3134C264.334 55.2243 264.24 55.0869 264.076 55.0133L134.878 0.0520579C134.878 0.0520579 131.497 -0.295419 130.307 0.805085L1.10329 121.724C0.687351 122.214 0.447057 122.587 0.276804 123.004C0.0128037 123.667 -0.0453837 124.167 0.0311224 124.662L5.21199 160.181C5.38224 161.365 6.21411 162.397 7.41558 162.928L25.4495 170.798L10.9909 184.328C10.9435 184.37 10.9381 184.433 10.8918 184.481C10.5696 184.818 10.3293 185.191 10.1655 185.607C10.1364 185.681 10.0717 185.739 10.048 185.813C9.90149 186.27 9.84869 186.765 9.91873 187.265L15.0996 222.78C15.2698 223.969 16.1017 225.001 17.3032 225.533L141.32 279.647C141.361 279.662 141.401 279.652 141.442 279.668C141.935 279.868 142.474 280 143.048 280H143.053C143.123 280 143.188 280 143.258 279.995C143.434 279.984 143.587 279.906 143.751 279.885C144.055 279.827 144.354 279.79 144.635 279.684C144.881 279.585 145.08 279.437 145.298 279.3C145.462 279.195 145.649 279.142 145.79 279.016L278.773 164.866C279.64 164.13 280.085 163.066 279.986 161.992L276.218 120.555C276.235 120.498 276.194 120.45 276.183 120.377ZM138.534 20.5309L233.504 60.5517L208.267 83.1676L113.959 43.9154L138.534 20.5309ZM12.8195 157.35L8.85734 130.19L127.211 179.803L128.846 207.973L12.8195 157.35ZM22.7125 219.949L18.7503 192.794L137.104 242.417L138.745 270.582L22.7125 219.949ZM136.695 205.871L135.118 178.859L259.128 66.2787L262.041 98.2708L136.695 205.871ZM146.588 268.482L145.017 241.47L269.021 128.889L271.934 160.881L146.588 268.482Z" fill="#C2984D"/>
</svg>
