<svg width="308" height="308" viewBox="0 0 308 308" fill="none" xmlns="http://www.w3.org/2000/svg">
<g clip-path="url(#clip0_44_261)">
<path d="M140.693 279.211C143.99 279.558 146.943 277.166 147.29 273.872C147.636 270.574 145.245 267.621 141.948 267.275C138.653 266.928 135.7 269.32 135.353 272.617C135.01 275.909 137.399 278.859 140.693 279.211Z" fill="#C2984D"/>
<path d="M65.6182 262.358C64.3224 274.965 73.5008 286.234 86.109 287.517L192.357 298.684C204.957 300.05 216.277 290.936 217.631 278.335L219.411 261.404L67.3977 245.427L65.6182 262.358ZM142.796 259.204C150.549 260.019 156.176 266.964 155.361 274.718C154.546 282.471 147.601 288.098 139.847 287.283C132.091 286.468 126.467 279.523 127.282 271.769C128.104 264.019 135.044 258.399 142.796 259.204Z" fill="#C2984D"/>
<path d="M221.625 20.2178L115.377 9.05067C102.778 7.68392 91.4567 16.7985 90.1031 29.3992L89.1719 38.2589L182.74 48.0933C184.968 48.3275 186.586 50.3252 186.352 52.5532C186.118 54.7813 184.12 56.399 181.892 56.1648L88.3236 46.3304L68.2461 237.355L220.259 253.332L240.336 62.3076L222.128 60.3938C219.9 60.1597 218.283 58.162 218.517 55.9339C218.751 53.7059 220.749 52.0882 222.977 52.3224L241.185 54.2361L242.116 45.3764C243.412 32.7696 234.233 21.5005 221.625 20.2178ZM131.735 168.255C133.281 169.879 133.218 172.446 131.595 173.992C129.971 175.537 127.401 175.474 125.856 173.851L104.629 151.548C103.811 150.686 103.409 149.509 103.533 148.327C103.657 147.145 104.296 146.075 105.275 145.402L130.675 128C132.524 126.733 135.051 127.206 136.318 129.055C137.584 130.904 137.112 133.429 135.263 134.695L113.791 149.405L131.735 168.255ZM167.629 121.279L145.85 188.741C145.147 190.856 142.872 192.009 140.752 191.326C138.63 190.641 137.46 188.374 138.127 186.247L159.905 118.786C160.608 116.671 162.884 115.518 165.004 116.203C167.126 116.886 168.296 119.152 167.629 121.279ZM199.432 49.8477L206.844 50.6268C209.072 50.861 210.69 52.8586 210.456 55.0867C210.222 57.3147 208.224 58.9324 205.996 58.6982L198.584 57.9192C196.356 57.685 194.738 55.6874 194.972 53.4593C195.207 51.2312 197.204 49.6136 199.432 49.8477ZM202.511 161.836L177.112 179.238C175.262 180.505 172.735 180.032 171.469 178.183C170.202 176.334 170.674 173.809 172.524 172.543L193.996 157.835L176.051 138.982C174.506 137.359 174.568 134.791 176.192 133.246C177.815 131.7 180.385 131.763 181.931 133.387L203.157 155.69C203.975 156.552 204.378 157.728 204.253 158.911C204.129 160.096 203.491 161.163 202.511 161.836Z" fill="#C2984D"/>
</g>
<defs>
<clipPath id="clip0_44_261">
<rect width="280" height="280" fill="white" transform="translate(29.2681) rotate(6)"/>
</clipPath>
</defs>
</svg>
