<svg width="217" height="247" viewBox="0 0 217 247" fill="none" xmlns="http://www.w3.org/2000/svg">
<path d="M191.623 157.546L183.902 143.477L137.32 105.924L145.987 100.296L150.985 107.992L155.206 105.252L142.129 85.1155L137.909 87.8562L142.903 95.5472L132.687 102.182L102.516 77.8691C101.822 74.4136 100.493 71.0174 98.4207 67.8262C91.1423 56.6183 77.7545 52.2904 67.1801 57.07L50.1278 30.8118L44.8379 34.2472L61.8902 60.5053C53.2439 68.2078 51.7365 82.2087 59.015 93.4166C61.9371 97.9163 65.8467 101.295 70.1595 103.461L79.0658 137.004L68.4491 143.898L63.4545 136.207L59.2289 138.951L72.3055 159.088L76.5364 156.34L71.538 148.643L80.6057 142.755L95.9544 200.591L105.677 213.359L118.731 246.195L115.094 212L118.068 196.011L95.2209 103.179L170.735 161.809L186.54 165.602L216.305 182.83L191.623 157.546ZM88.9974 95.7641C81.4735 100.65 70.9274 97.7682 65.4369 89.3135C59.9501 80.8647 61.6029 70.0522 69.1268 65.1661C76.6507 60.28 87.1901 63.1748 92.6768 71.6236C98.1674 80.0784 96.5213 90.8781 88.9974 95.7641Z" fill="#C2984D"/>
<path d="M84.0936 88.2246C87.7979 85.819 88.6095 80.4945 85.9063 76.3319C83.203 72.1693 78.0087 70.745 74.3044 73.1506C70.6001 75.5562 69.7886 80.8808 72.4918 85.0434C75.195 89.2059 80.3893 90.6302 84.0936 88.2246Z" fill="#C2984D"/>
</svg>
