<svg width="280" height="280" viewBox="0 0 280 280" fill="none" xmlns="http://www.w3.org/2000/svg">
<path d="M275.403 51.4883L228.513 4.59774C222.382 -1.53258 212.443 -1.53258 206.315 4.59774L188.33 22.5822L205.216 39.4678C208.077 42.3285 208.077 46.9661 205.216 49.8268C202.355 52.6875 197.718 52.6875 194.858 49.8268L177.971 32.9411L149.483 61.4297L166.369 78.3154C169.231 81.1761 169.231 85.8137 166.369 88.6744C163.508 91.5351 158.87 91.5351 156.01 88.6744L139.125 71.7887L110.636 100.277L127.522 117.162C130.383 120.023 130.383 124.66 127.522 127.521C124.661 130.382 120.024 130.382 117.163 127.521L100.278 110.636L71.7899 139.124L88.6754 156.011C91.5361 158.871 91.5361 163.51 88.6754 166.37C85.8147 169.229 81.1772 169.23 78.3165 166.37L61.4309 149.482L32.9425 177.97L49.8281 194.857C52.6888 197.718 52.6888 202.356 49.8281 205.216C46.9674 208.077 42.3298 208.077 39.4691 205.216L22.5836 188.329L4.59771 206.314C-1.53257 212.445 -1.53257 222.384 4.59771 228.512L51.488 275.402C57.6183 281.533 67.5565 281.533 73.686 275.402L275.402 73.6849C281.532 67.5561 281.532 57.6178 275.403 51.4883Z" fill="#C2984D"/>
</svg>
