<svg width="280" height="280" viewBox="0 0 280 280" fill="none" xmlns="http://www.w3.org/2000/svg">
<g clip-path="url(#clip0_44_47)">
<path d="M46.1063 165.878C46.6831 165.878 47.2706 165.756 47.8303 165.498C69.4275 155.569 105.778 159.544 115.737 165.321C117.711 166.466 120.24 165.793 121.387 163.819C122.532 161.843 121.859 159.313 119.885 158.168C113.4 154.409 100.535 151.766 86.3102 151.273C76.821 150.946 58.7571 151.377 44.3781 157.989C42.3038 158.944 41.3959 161.396 42.3487 163.471C43.0451 164.985 44.5405 165.878 46.1063 165.878Z" fill="#C2984D"/>
<path d="M46.1063 196.206C46.6831 196.206 47.2706 196.085 47.8303 195.826C69.4275 185.895 105.778 189.872 115.737 195.647C117.711 196.792 120.24 196.119 121.387 194.145C122.532 192.171 121.859 189.642 119.885 188.497C113.4 184.737 100.535 182.094 86.3102 181.601C76.821 181.272 58.7571 181.706 44.3781 188.317C42.3038 189.272 41.3959 191.725 42.3487 193.799C43.0451 195.313 44.5405 196.206 46.1063 196.206Z" fill="#C2984D"/>
<path d="M235.639 157.989C221.252 151.378 203.185 150.944 193.694 151.273C179.467 151.766 166.602 154.409 160.117 158.169C158.143 159.314 157.47 161.843 158.615 163.819C159.76 165.793 162.289 166.466 164.263 165.321C174.22 159.544 210.577 155.569 232.187 165.5C232.747 165.756 233.332 165.878 233.911 165.878C235.477 165.878 236.972 164.985 237.668 163.471C238.621 161.396 237.711 158.942 235.639 157.989Z" fill="#C2984D"/>
<path d="M235.639 188.317C221.252 181.706 203.185 181.272 193.694 181.601C179.467 182.094 166.602 184.737 160.117 188.497C158.143 189.642 157.47 192.171 158.615 194.145C159.76 196.121 162.289 196.794 164.263 195.647C174.22 189.872 210.577 185.897 232.187 195.826C232.747 196.085 233.332 196.206 233.911 196.206C235.477 196.206 236.972 195.313 237.668 193.797C238.621 191.725 237.711 189.27 235.639 188.317Z" fill="#C2984D"/>
<path d="M93.9963 79.0684C92.4561 79.0684 91.1658 79.6601 90.1404 80.7923C89.0681 81.9587 88.5874 83.3707 88.5874 84.9558C88.5874 86.5858 89.0061 88.1537 90.2024 89.303C91.2598 90.3284 92.5202 90.886 93.9963 90.886C95.4575 90.886 96.6859 90.3113 97.7262 89.2881C98.8926 88.1217 99.3284 86.5708 99.3284 84.9558C99.3284 83.3857 98.8627 81.9736 97.8052 80.7923C96.7948 79.675 95.5195 79.0684 93.9963 79.0684Z" fill="#C2984D"/>
<path d="M82.8345 55.2021C85.524 55.2021 86.7053 53.3223 87.0322 50.7609C87.5769 48.9131 88.8821 46.7534 90.1404 45.2324C91.2918 43.8652 93.0478 43.4935 94.7568 43.4935C96.4679 43.4935 97.944 44.0211 99.1403 45.2473C100.307 46.4436 100.836 47.9048 100.836 49.5646C100.836 50.4042 100.663 51.2117 100.292 51.9722C99.903 52.7327 99.4373 53.4312 98.8605 54.0678C97.959 55.0782 96.9485 56.0566 95.9851 57.0179C94.7119 58.2762 93.4216 59.5814 92.2873 60.9636C91.3068 62.1577 90.5612 63.5099 90.0165 64.954C89.3628 66.6459 89.162 68.5109 89.162 70.3117C89.162 71.7387 89.4418 73.2298 90.4373 74.3022C91.3068 75.2186 92.3941 75.6993 93.6545 75.6993C96.312 75.6993 97.6193 73.9753 98.0231 71.508C98.1769 70.7155 98.3499 69.9229 98.5358 69.1304C98.6447 68.7117 98.7985 68.278 98.9865 67.8743C99.2044 67.3765 99.5462 66.8959 99.8709 66.475C100.369 65.8235 100.945 65.2018 101.535 64.6272C103.338 62.8114 105.173 60.9636 106.897 59.0687C108.001 57.8724 108.888 56.4903 109.586 55.0312C110.411 53.2924 110.736 51.3975 110.736 49.4877C110.736 46.8623 110.069 44.3928 108.747 42.1263C107.38 39.8127 105.483 38.0418 103.12 36.7537C100.525 35.3566 97.6791 34.7969 94.7568 34.7969C91.5866 34.7969 88.5553 35.4655 85.8337 37.1425C83.4091 38.6165 81.4032 40.5732 80.0211 43.0577C78.7927 45.2473 78.0151 47.6399 78.0151 50.1713C78.0151 51.4744 78.5278 52.6088 79.3823 53.5872C80.2859 54.6425 81.4352 55.2021 82.8345 55.2021Z" fill="#C2984D"/>
<path d="M151.245 87.0045C151.658 87.4254 151.997 87.7906 152.281 88.0983C153.3 89.1899 154.65 90.6361 156.699 90.6361C156.962 90.6361 157.237 90.6126 157.524 90.5613C160.04 90.1106 160.91 88.0235 161.544 86.4982C161.713 86.0945 161.918 85.6031 162.176 85.0306L174.212 58.4816H208.03C210.314 58.4816 212.164 56.6316 212.164 54.348C212.164 52.0643 210.314 50.2144 208.03 50.2144H171.548C169.927 50.2144 168.453 51.165 167.784 52.6411L155.563 79.6025L147.404 71.284C145.806 69.6541 143.189 69.6284 141.56 71.2263C139.93 72.8242 139.904 75.4411 141.502 77.071L151.245 87.0045Z" fill="#C2984D"/>
<path d="M196.031 79.5189L200.383 74.7679C201.16 73.8835 201.673 72.826 201.673 71.6319C201.673 70.4356 201.254 69.3632 200.368 68.5557C199.528 67.6863 198.471 67.2676 197.257 67.2676C195.875 67.2676 194.724 67.8721 193.854 68.9445L190.511 73.1208L187.247 68.9595C186.378 67.8721 185.226 67.2676 183.844 67.2676C183.237 67.2676 182.646 67.3765 182.088 67.6094C181.59 67.8273 181.122 68.1221 180.719 68.4788L180.704 68.4938L180.689 68.5258C179.834 69.3632 179.428 70.4356 179.428 71.6319C179.428 72.8431 179.926 73.8984 180.736 74.7828L185.072 79.5189L179.428 85.699C178.698 86.4616 178.42 87.455 178.42 88.5103C178.42 89.7386 178.854 90.8088 179.708 91.6633C180.58 92.5328 181.652 92.9664 182.866 92.9664C184.327 92.9664 185.523 92.082 186.425 90.9947L190.513 85.887L194.679 90.9947C195.581 92.082 196.777 92.9664 198.238 92.9664C199.451 92.9664 200.539 92.5328 201.393 91.6633C202.25 90.8088 202.701 89.7386 202.701 88.5103C202.701 87.455 202.359 86.4915 201.643 85.699L196.031 79.5189Z" fill="#C2984D"/>
<path d="M259.422 77.7162H259.232C259.206 66.4689 252.883 64.6788 243.315 61.9765L243.148 61.9273C240.213 61.0878 237.239 60.3721 234.133 59.7548C232.809 53.7242 230.512 47.8795 227.269 42.415C219.295 28.9802 206.559 19.4527 191.411 15.5925C171.24 10.4356 150.792 16.4854 136.67 29.8155C125.8 16.3786 108.931 9.33333 91.5097 11.2474C77.9831 12.7278 65.8429 19.3822 57.3257 29.9843C50.4321 38.5655 46.5826 48.9027 46.1533 59.6971C42.9532 60.3209 39.8856 61.0557 36.8628 61.9252L36.6833 61.9765C27.1173 64.6809 20.7919 66.4711 20.7663 77.7183H20.5783C9.23279 77.7162 0 86.9404 0 98.2796V242.059C0 255.209 9.45068 268.522 27.5125 268.522H66.8234C69.1071 268.522 70.957 266.672 70.957 264.389C70.957 262.107 69.1071 260.257 66.8234 260.257H27.5125C14.2892 260.257 8.26508 250.824 8.26508 242.059V98.2796C8.26508 91.4992 13.7894 85.9834 20.5783 85.9834H20.7684V234.932C20.7684 242.022 26.4423 247.792 33.4192 247.792H135.875V260.257H86.3635C84.0799 260.257 82.2299 262.107 82.2299 264.389C82.2299 266.672 84.0799 268.522 86.3635 268.522H252.487C270.549 268.522 280 255.209 280 242.059V98.2796C280 86.9404 270.767 77.7162 259.422 77.7162ZM189.364 23.5991H189.366C202.378 26.9166 213.313 35.0984 220.16 46.634C223.351 52.0088 225.46 57.8151 226.483 63.7965C226.494 63.8777 226.509 63.9546 226.524 64.0336C227.647 70.814 227.374 77.8145 225.618 84.6739C223.146 94.3339 217.932 102.941 210.54 109.565C209.509 110.492 209.009 111.875 209.212 113.248C209.59 115.801 209.831 117.965 210.088 120.257C210.32 122.346 210.56 124.504 210.91 126.948C210.502 129.466 209.588 131.032 208.188 131.6C206.172 132.421 202.758 131.472 200.073 129.342L190.964 122.122C190.229 121.537 189.321 121.227 188.398 121.227C188.106 121.227 187.811 121.259 187.518 121.323C179.871 122.987 172.116 122.842 164.473 120.892C156.355 118.815 149.045 114.848 143.033 109.352C142.905 109.215 142.775 109.087 142.632 108.969C139.182 105.744 136.163 102.016 133.685 97.8438C126.841 86.3081 124.899 72.8007 128.219 59.8146C135.087 32.9814 162.518 16.7396 189.364 23.5991ZM63.7708 35.1582C70.9058 26.2779 81.0764 20.7045 92.4112 19.4633C107.422 17.812 121.94 24.099 131.011 35.9807C126.059 42.2185 122.31 49.5671 120.212 57.7659C116.956 70.5 118.044 83.6592 123.224 95.5174C117.012 100.347 109.636 103.342 101.712 104.216C95.0345 104.938 88.4955 104.139 82.2791 101.841C81.1169 101.411 79.8267 101.524 78.7585 102.148L70.1346 107.194C67.7954 108.559 64.9521 108.963 63.5251 108.13C62.4121 107.482 62.0981 105.85 62.0554 104.419C62.6578 102.353 63.1277 100.525 63.5828 98.7517C64.0656 96.8739 64.5206 95.103 65.1294 93.0308C65.5225 91.7021 65.2213 90.2666 64.3304 89.207C58.9108 82.7492 55.5591 74.8942 54.6405 66.4882C53.3951 55.1683 56.6357 44.0407 63.7708 35.1582ZM29.0335 77.7803C29.0335 74.0654 29.8239 73.4395 30.2982 73.0678C31.676 71.9804 34.7202 71.1195 38.9328 69.9296L39.1315 69.8741C41.5411 69.1798 43.9871 68.5881 46.51 68.0647C47.6187 77.1052 51.0858 85.5968 56.6058 92.7873C56.2277 94.163 55.8987 95.4426 55.5762 96.6966C55.0742 98.6491 54.6021 100.495 53.9569 102.659C53.848 103.024 53.7881 103.404 53.7839 103.787C53.6963 110.903 57.2424 114.039 59.3637 115.273C61.1389 116.307 63.2623 116.818 65.5118 116.818C68.3936 116.818 71.4825 115.978 74.3045 114.331L81.29 110.247C88.0939 112.456 95.419 113.214 102.612 112.434C111.573 111.443 119.947 108.179 127.11 102.934C129.614 106.993 132.557 110.683 135.875 113.953V226.208C124.814 221.974 107.566 219.009 89.3542 218.378C75.6119 217.902 50.524 218.436 29.0335 226.483V77.7803ZM144.14 235.173C162.509 226.517 216.753 221.091 250.947 235.364C250.738 237.694 248.869 239.527 246.598 239.527H144.14V235.173ZM29.0549 235.364C63.2516 221.087 117.505 226.515 135.875 235.173V239.525H33.4192C31.1398 239.525 29.2621 237.694 29.0549 235.364ZM271.735 242.059C271.735 250.824 265.711 260.257 252.487 260.257H144.14V247.792H246.598C253.564 247.792 259.232 242.022 259.232 234.932V167.211C259.232 164.928 257.382 163.078 255.1 163.078C252.816 163.078 250.966 164.928 250.966 167.211V226.483C229.476 218.436 204.392 217.9 190.654 218.378C172.445 219.009 155.201 221.974 144.14 226.208V120.721C149.643 124.431 155.804 127.206 162.426 128.9C170.681 131.007 179.05 131.304 187.33 129.789L194.94 135.82C198.49 138.637 202.677 140.148 206.522 140.148C208.208 140.148 209.831 139.857 211.303 139.257C213.813 138.236 218.175 135.347 219.188 127.471C219.235 127.095 219.233 126.715 219.175 126.339C218.799 123.79 218.558 121.629 218.301 119.341C218.12 117.702 217.932 116.025 217.69 114.201C225.441 106.703 230.931 97.2478 233.627 86.7247C235.175 80.6728 235.742 74.5247 235.357 68.4642C237.233 68.8893 239.068 69.3571 240.886 69.8784L241.067 69.9296C245.28 71.1217 248.324 71.9804 249.702 73.0678C250.174 73.4395 250.966 74.0654 250.966 77.7824V147.708C250.966 149.989 252.816 151.839 255.1 151.839C257.382 151.839 259.232 149.989 259.232 147.708V85.9834H259.422C266.211 85.9834 271.735 91.4992 271.735 98.2796V242.059Z" fill="#C2984D"/>
</g>
<defs>
<clipPath id="clip0_44_47">
<rect width="280" height="280" fill="white"/>
</clipPath>
</defs>
</svg>
