<svg width="280" height="280" viewBox="0 0 280 280" fill="none" xmlns="http://www.w3.org/2000/svg">
<path d="M264.515 258.491H67.1575C58.2909 258.491 51.3333 250.43 53.1999 241.224C54.5575 234.564 60.7515 229.939 67.5393 229.939H264.558C268.164 229.939 271.048 227.012 271.048 223.448C271.048 219.885 268.121 216.958 264.558 216.958H68.303C53.3696 216.958 40.3454 228.454 39.8787 243.388C39.4121 258.83 51.7999 271.515 67.1575 271.515H264.558C268.164 271.515 271.048 268.588 271.048 265.024C271.048 261.418 268.121 258.491 264.515 258.491Z" fill="#C2984D"/>
<path d="M88.8786 208.43H222.6C237.957 208.43 250.345 195.745 249.879 180.303C249.412 165.37 236.388 153.873 221.454 153.873H88.8786C85.2725 153.873 82.3877 156.8 82.3877 160.363C82.3877 163.927 85.315 166.854 88.8786 166.854H222.218C229.048 166.854 235.2 171.479 236.557 178.139C238.424 187.345 231.424 195.406 222.6 195.406H88.8786C85.2725 195.406 82.3877 198.333 82.3877 201.897C82.3877 205.545 85.315 208.43 88.8786 208.43Z" fill="#C2984D"/>
<path d="M32.3271 252.339H13.8726V270.242H42.6786C42.2544 269.945 41.8726 269.521 41.4907 269.139C36.8665 264.388 33.7271 258.618 32.3271 252.339Z" fill="#C2984D"/>
<path d="M32.709 56.0424C45.8605 56.0424 56.509 45.394 56.509 32.2849H97.3635C97.3635 45.394 108.012 56.0424 121.121 56.0424C134.273 56.0424 144.921 45.394 144.921 32.2849C144.921 19.1333 134.273 8.48486 121.121 8.48486H32.709C19.5999 8.48486 8.95142 19.1333 8.95142 32.2849C8.95142 45.394 19.5999 56.0424 32.709 56.0424ZM120.442 21.2121C126.933 21.2121 132.576 26.5152 132.151 33.0061C131.812 38.5212 127.357 42.9333 121.885 43.2727C121.63 43.2727 121.376 43.3152 121.121 43.3152C115.012 43.3152 110.091 37.8 110.091 31.5637C110.091 25.8364 114.715 21.2121 120.442 21.2121ZM33.4302 21.2121C39.1575 21.2121 43.7817 25.8364 43.7817 31.5637C43.7817 38.0546 38.4787 43.7394 31.9878 43.2727C26.4726 42.9333 22.0605 38.5212 21.7211 33.0061C21.2969 26.5152 26.9393 21.2121 33.4302 21.2121Z" fill="#C2984D"/>
<path d="M157.139 144.836C158.242 144.836 159.303 144.412 160.151 143.606L179.921 123.836C178.776 122.988 177.673 122.097 176.697 121.079C175.679 120.06 174.788 118.957 173.939 117.812L154.17 137.582C152.515 139.236 152.515 141.909 154.17 143.564C154.976 144.412 156.079 144.836 157.139 144.836Z" fill="#C2984D"/>
<path d="M186.964 104.788V90.3638C186.964 88.0304 188.873 86.1214 191.206 86.1214C193.539 86.1214 195.448 88.0304 195.448 90.3638V96.3032L210.212 81.5395V67.1153C210.212 64.782 212.121 62.8729 214.454 62.8729C216.788 62.8729 218.697 64.782 218.697 67.1153V73.0547L233.461 58.291V43.8668C233.461 41.5335 235.37 39.6244 237.703 39.6244C240.036 39.6244 241.945 41.5335 241.945 43.8668V49.8062L245.806 45.9456C247.461 44.291 250.133 44.291 251.788 45.9456C253.442 47.6001 253.442 50.2729 251.788 51.9274L247.927 55.788H253.867C256.2 55.788 258.109 57.6971 258.109 60.0304C258.109 62.3638 256.2 64.2729 253.867 64.2729H239.442L224.679 79.0365H230.618C232.951 79.0365 234.861 80.9456 234.861 83.2789C234.861 85.6123 232.951 87.5214 230.618 87.5214H216.194L201.43 102.285H207.37C209.703 102.285 211.612 104.194 211.612 106.527C211.612 108.861 209.703 110.77 207.37 110.77H192.945L186.03 117.685C193.836 122.733 204.358 121.843 211.188 115.012L263.836 62.3638C272.151 54.0486 271.685 40.2183 262.351 32.5395C254.248 25.8365 242.158 27.0244 234.691 34.491L182.679 86.5456C175.848 93.3759 174.958 103.897 180.006 111.703L186.964 104.788Z" fill="#C2984D"/>
<path d="M85.9514 175.085C84.2544 174.746 82.6423 174.109 81.1575 173.218V189.17C82.5999 188.279 84.212 187.6 85.9514 187.261C87.1817 183.273 87.1817 179.03 85.9514 175.085Z" fill="#C2984D"/>
<path d="M76.9575 51.7998C79.2908 51.7998 81.1999 53.7089 81.1999 56.0423V147.594C83.4484 146.236 86.0787 145.388 88.9211 145.388H89.7696V74.412C89.7696 72.0786 91.6787 70.1695 94.0121 70.1695C96.3454 70.1695 98.2545 72.0786 98.2545 74.412V145.388H110.939V62.8301C100.842 59.4362 92.9515 51.121 90.109 40.7695H63.8909C61.0484 51.121 53.1575 59.4362 43.0605 62.8301V218.357C49.7212 212.248 58.6302 208.473 68.3454 208.473H74.1575C74.1575 208.345 74.1999 208.26 74.2424 208.133C73.3515 207.37 72.7575 206.266 72.7575 204.994V56.0423C72.7151 53.7089 74.5818 51.7998 76.9575 51.7998ZM64.1454 186.624C64.1454 188.957 62.2363 190.867 59.903 190.867C57.5696 190.867 55.6605 188.957 55.6605 186.624V74.412C55.6605 72.0786 57.5696 70.1695 59.903 70.1695C62.2363 70.1695 64.1454 72.0786 64.1454 74.412V186.624Z" fill="#C2984D"/>
<path d="M24.3938 234.394V243.855H31.4362C31.4362 243.6 31.3938 243.388 31.3938 243.133C31.4786 240.121 31.9877 237.194 32.8362 234.394H24.3938Z" fill="#C2984D"/>
<path d="M67.5393 238.424C64.612 238.424 62.0241 240.376 61.515 242.921C61.0059 245.382 62.0241 247.079 62.7029 247.885C63.8059 249.242 65.4605 250.006 67.1999 250.006H258.703C257.897 246.188 257.897 242.242 258.703 238.424H67.5393Z" fill="#C2984D"/>
<path d="M222.6 186.964C224.339 186.964 225.994 186.2 227.097 184.842C227.733 184.036 228.751 182.339 228.285 179.879C227.776 177.333 225.188 175.382 222.26 175.382H94.7756C95.5817 179.2 95.5817 183.145 94.7756 186.964H222.6Z" fill="#C2984D"/>
</svg>
