<svg width="48" height="48" viewBox="0 0 180 180" fill="none" xmlns="http://www.w3.org/2000/svg">
<g clip-path="url(#clip0_1210_12)">
<rect width="180" height="180" rx="45" fill="#ECD0A0"/>
<path d="M84.3182 108.57L41.1243 76.7399L35.34 96.7142C32.6184 106.112 51.8413 119.815 78.2754 127.32C104.71 134.825 128.345 133.291 131.066 123.893L136.728 104.342L84.3182 108.57Z" fill="#3B4D81"/>
<path d="M99.6464 55.6396L21.0893 61.9762L41.1243 76.7399L84.3182 108.57L136.728 104.342L162.875 102.233L99.6464 55.6396Z" fill="#3B4D81"/>
<path d="M146.361 139.859C149.023 140.615 151.724 139.35 152.395 137.035C153.065 134.719 151.451 132.23 148.789 131.474C146.128 130.718 143.426 131.983 142.756 134.298C142.085 136.614 143.7 139.103 146.361 139.859Z" fill="#D71920"/>
<path d="M164.679 100.249L101.45 53.6554C100.803 53.1791 99.9819 52.946 99.1786 53.0106L20.6219 59.3473C19.4481 59.442 18.4982 60.1542 18.2075 61.158C17.9169 62.1617 18.3413 63.2639 19.2861 63.96L37.7634 77.576L32.4581 95.8959C30.8271 101.528 34.9658 108.221 44.1121 114.741C52.5248 120.737 64.3991 126.096 77.5488 129.829C90.6984 133.563 103.637 135.249 113.98 134.578C125.226 133.848 132.317 130.344 133.948 124.712L139.132 106.815L146.867 106.19L146.096 108.851C145.695 110.237 146.66 111.727 148.251 112.179C149.843 112.631 151.459 111.873 151.86 110.488L153.254 105.675L163.343 104.861C164.517 104.767 165.467 104.055 165.758 103.051C166.048 102.047 165.624 100.945 164.679 100.249ZM128.185 123.075C126.197 129.937 105.51 132.337 79.0017 124.811C52.4939 117.284 36.2343 104.394 38.2214 97.5323L42.9037 81.3637L82.5148 110.553C82.8379 110.792 83.2051 110.969 83.5914 111.079C83.9778 111.188 84.3839 111.23 84.7856 111.198L132.744 107.329L128.185 123.075ZM85.109 105.839L28.4031 64.0528L98.8559 58.3697L155.562 100.156L85.109 105.839Z" fill="#6B5226"/>
<path d="M151.671 132.386L152.223 116.181C152.255 115.241 151.082 114.435 149.603 114.383C148.124 114.33 146.899 115.049 146.867 115.99L146.315 132.194C143.671 132.776 141.762 134.345 141.697 136.25C141.611 138.758 144.75 140.913 148.694 141.054C152.638 141.195 155.916 139.27 156.001 136.762C156.066 134.856 154.268 133.155 151.671 132.386ZM148.81 137.648C147.82 137.613 147.031 137.072 147.053 136.442C147.074 135.812 147.897 135.328 148.888 135.364C149.878 135.399 150.667 135.94 150.645 136.57C150.624 137.2 149.801 137.684 148.81 137.648Z" fill="#6B5226"/>
<path d="M83.4646 68.4444C82.3544 68.1292 81.4593 67.267 81.2588 66.1901C80.9886 64.7393 82.0817 63.4485 83.7009 63.3074L92.9801 62.4965C94.5975 62.354 96.1305 63.4158 96.4005 64.8672C96.6708 66.3181 95.5779 67.6089 93.9584 67.75L84.6792 68.5608C84.2622 68.5974 83.8506 68.554 83.4646 68.4444Z" fill="#6B5226"/>
<path d="M46.6677 71.66C45.5572 71.3448 44.6623 70.4827 44.4616 69.4057C44.1914 67.9549 45.2845 66.6641 46.9037 66.523L71.8619 64.3419C73.4793 64.1991 75.0123 65.2612 75.2823 66.7126C75.5526 68.1635 74.4594 69.4543 72.8402 69.5954L47.882 71.7765C47.465 71.813 47.0534 71.7696 46.6677 71.66Z" fill="#6B5226"/>
</g>
<defs>
<clipPath id="clip0_1210_12">
<rect width="180" height="180" rx="45" fill="white"/>
</clipPath>
</defs>
</svg>
