<svg width="180" height="180" viewBox="0 0 180 180" fill="none" xmlns="http://www.w3.org/2000/svg">
<rect width="180" height="180" rx="45" fill="#ECD0A0"/>
<g clip-path="url(#clip0_1210_12)">
<path d="M137.925 103.474C133.764 96.9942 125.972 89.9407 120.815 85.2733C119.687 84.2507 118.665 83.3268 117.816 82.5285C113.36 78.3604 110.005 74.2431 108.629 71.2322C108.339 70.5863 108.06 69.9495 107.785 69.3215V39.1313C107.785 31.9552 100.221 26.1157 90.9183 26.1157C81.6153 26.1157 74.0521 31.9552 74.0521 39.1313L74.0598 68.1554C72.8044 78.2557 71.6304 88.0271 71.3398 90.467C62.9164 91.4716 53.0981 93.7411 46.6933 98.7942C46.6623 98.8181 46.674 98.857 46.6468 98.8809C43.0899 101.141 40.862 104.365 41.0092 107.926C41.1875 112.219 44.663 115.843 49.7194 117.793C42.7257 119.578 37.7972 124.057 38.0064 129.212C38.2311 134.666 44.0005 139.082 51.7497 140.272C46.2671 142.093 42.5591 145.561 42.718 149.481C42.9427 154.866 50.1999 159.082 59.2975 159.193C58.8248 159.381 58.3327 159.56 57.9026 159.776C54.892 161.295 53.2841 163.316 53.3693 165.457C53.5398 169.607 59.9252 172.734 68.2246 172.734L106.452 171.805C110.307 171.712 113.713 170.929 116.332 169.732C116.363 169.724 116.394 169.727 116.421 169.715C117.138 169.422 133.942 162.392 138.623 143.866C139.959 138.579 136.499 130.225 135.635 128.252C136.984 125.698 143.536 112.219 137.925 103.474ZM43.9152 107.851C43.6944 102.562 49.9558 98.1035 57.8677 97.9121L100.496 96.8656L101.035 96.8597C108.788 96.8597 115.026 100.917 115.239 106.105C115.344 108.64 113.972 111.062 111.38 112.934C109.04 114.629 105.936 115.643 102.573 115.924C102.093 115.9 101.632 115.834 101.143 115.834L55.7522 116.938C49.1305 116.202 44.1089 112.489 43.9152 107.851ZM40.9085 129.14C40.6915 123.851 47.321 119.386 55.6863 119.186L55.8064 119.18C56.5697 119.249 57.3253 119.339 58.1196 119.339L101.372 118.28C101.802 118.271 102.213 118.199 102.631 118.167C110.09 118.633 115.902 122.451 116.103 127.298C116.204 129.822 114.759 132.244 112.031 134.118C109.226 136.047 105.429 137.162 101.322 137.261L56.4729 138.358L55.8839 138.367C47.7046 138.364 41.1216 134.319 40.9085 129.14ZM45.6239 149.409C45.4457 145.053 51.7381 141.348 59.6462 141.148L102.275 140.101L102.918 140.092C110.481 140.092 116.774 143.489 116.944 147.651C117.122 152.008 110.834 155.715 102.926 155.91L60.2971 156.959L59.6539 156.971C51.9589 156.971 45.8022 153.646 45.6239 149.409ZM106.363 169.568L68.9182 170.486L68.2246 170.495C61.7501 170.495 56.3876 168.202 56.2753 165.394C56.221 164.057 57.364 162.73 59.4912 161.656C61.8431 160.472 65.0358 159.773 68.4765 159.689L105.921 158.768L106.599 158.759C113.081 158.759 118.451 161.049 118.568 163.863C118.684 166.787 113.097 169.404 106.363 169.568ZM135.779 143.438C133.179 153.712 126.518 160.266 121.443 163.953C121.443 163.896 121.47 163.848 121.466 163.788C121.322 160.371 116.925 157.68 110.749 156.822C116.27 155.007 120.005 151.526 119.846 147.585C119.668 143.256 114.922 139.71 108.354 138.415C110.435 137.79 112.337 136.908 113.961 135.793C117.347 133.469 119.141 130.426 119.009 127.229C118.82 122.613 114.639 118.747 108.664 116.944C110.381 116.337 111.988 115.562 113.364 114.57C116.576 112.255 118.273 109.217 118.137 106.03C117.882 99.6284 110.357 94.6201 101.027 94.6201L58.0111 95.6636C70.8555 91.3281 87.2762 91.9949 87.4815 92.0039C88.2797 92.0517 88.9694 91.5703 89.0159 90.9514C89.0662 90.3324 88.454 89.8032 87.652 89.7643C87.1444 89.7404 81.5107 89.5102 74.2884 90.159C74.6604 87.0524 75.7685 77.8341 76.9542 68.2631V39.1343C76.9542 33.1931 83.2156 28.3612 90.9144 28.3612C98.6094 28.3612 104.875 33.1931 104.875 39.1343V69.5039C104.875 69.6235 104.902 69.7431 104.952 69.8568C105.247 70.5534 105.557 71.2591 105.886 71.9797C107.92 76.4288 112.829 81.3953 115.573 83.9577C116.437 84.762 117.46 85.6979 118.603 86.7295C123.671 91.3132 131.315 98.241 135.318 104.472C140.808 113.033 132.822 127.636 132.749 127.782C132.605 128.046 132.594 128.339 132.718 128.602C132.764 128.694 137.119 138.143 135.779 143.438Z" fill="#6B5226"/>
<path d="M92.5697 33.9724L71.584 18.5229L68.7737 28.218C67.4514 32.7795 76.7908 39.4305 89.6338 43.0734C102.477 46.7164 113.96 45.9718 115.282 41.4103L118.033 31.9205L92.5697 33.9724Z" fill="#3B4D81"/>
<path d="M100.017 8.28119L61.85 11.3569L71.584 18.5229L92.5697 33.9724L118.033 31.9205L130.737 30.8968L100.017 8.28119Z" fill="#3B4D81"/>
<path d="M122.713 49.1596C124.007 49.5265 125.319 48.9127 125.645 47.7889C125.97 46.665 125.186 45.4566 123.893 45.0897C122.6 44.7229 121.287 45.3366 120.962 46.4605C120.636 47.5844 121.42 48.7928 122.713 49.1596Z" fill="#D71920"/>
<path d="M131.613 29.9337L100.893 7.31814C100.579 7.08694 100.18 6.97377 99.7896 7.00514L61.6229 10.0809C61.0526 10.1268 60.5911 10.4725 60.4499 10.9597C60.3087 11.4469 60.5149 11.9819 60.9739 12.3198L69.9511 18.9287L67.3735 27.8208C66.5811 30.5547 68.5919 33.8031 73.0356 36.9677C77.1229 39.8783 82.892 42.4793 89.2808 44.2914C95.6695 46.1036 101.955 46.9221 106.981 46.5963C112.445 46.242 115.89 44.5413 116.682 41.8075L119.201 33.1205L122.959 32.8176L122.584 34.1091C122.39 34.7817 122.858 35.5049 123.632 35.7242C124.405 35.9435 125.19 35.576 125.385 34.9034L126.062 32.5675L130.964 32.1725C131.534 32.1267 131.996 31.781 132.137 31.2938C132.278 30.8066 132.072 30.2716 131.613 29.9337ZM113.882 41.0132C112.917 44.3437 102.866 45.5086 89.9867 41.8554C77.1079 38.2023 69.2082 31.9456 70.1736 28.6151L72.4485 20.7672L91.6935 34.9352C91.8505 35.0509 92.0289 35.137 92.2166 35.1902C92.4043 35.2435 92.6016 35.2639 92.7968 35.2481L116.097 33.3704L113.882 41.0132ZM92.9539 32.6472L65.4034 12.3648L99.6328 9.60637L127.183 29.8888L92.9539 32.6472Z" fill="#6B5226"/>
<path d="M125.293 45.5323L125.561 37.6669C125.577 37.2105 125.007 36.8195 124.288 36.7939C123.57 36.7682 122.974 37.1175 122.959 37.574L122.691 45.4394C121.406 45.7217 120.478 46.4831 120.447 47.4081C120.405 48.6252 121.93 49.6712 123.847 49.7396C125.763 49.8081 127.355 48.8735 127.397 47.6563C127.428 46.7312 126.555 45.9056 125.293 45.5323ZM123.903 48.0865C123.422 48.0693 123.039 47.8067 123.049 47.501C123.06 47.1953 123.46 46.9606 123.941 46.9777C124.422 46.9949 124.805 47.2576 124.795 47.5633C124.784 47.869 124.384 48.1037 123.903 48.0865Z" fill="#6B5226"/>
<path d="M92.155 14.4964C91.6156 14.3434 91.1807 13.9249 91.0833 13.4022C90.952 12.698 91.4831 12.0715 92.2698 12.003L96.7781 11.6094C97.5639 11.5403 98.3087 12.0557 98.4399 12.7601C98.5712 13.4644 98.0402 14.0909 97.2534 14.1594L92.7451 14.5529C92.5425 14.5707 92.3425 14.5496 92.155 14.4964Z" fill="#6B5226"/>
<path d="M74.2772 16.0572C73.7377 15.9042 73.3029 15.4857 73.2054 14.963C73.0741 14.2588 73.6052 13.6323 74.3919 13.5638L86.5178 12.5051C87.3036 12.4358 88.0484 12.9514 88.1796 13.6559C88.3109 14.3601 87.7798 14.9866 86.9931 15.0551L74.8672 16.1137C74.6646 16.1315 74.4646 16.1104 74.2772 16.0572Z" fill="#6B5226"/>
</g>
<defs>
<clipPath id="clip0_1210_12">
<rect width="103" height="166" fill="white" transform="translate(38 7)"/>
</clipPath>
</defs>
</svg>
