<svg width="94" height="157" viewBox="0 0 94 157" fill="none" xmlns="http://www.w3.org/2000/svg">
<g clip-path="url(#clip0_1511_7)">
<path d="M92.0364 91.4302C88.2036 85.2895 81.0269 78.6048 76.2769 74.1813C75.2384 73.2122 74.2962 72.3366 73.5147 71.58C69.4107 67.6298 66.3201 63.7278 65.0532 60.8742C64.7856 60.2621 64.5286 59.6586 64.2752 59.0635V30.4515C64.2752 23.6506 57.3091 18.1163 48.7406 18.1163C40.172 18.1163 33.2058 23.6506 33.2058 30.4515L33.213 57.9583C32.0567 67.5306 30.9754 76.7912 30.7077 79.1035C22.9493 80.0556 13.9061 82.2064 8.00701 86.9954C7.97846 87.0181 7.98917 87.0549 7.96419 87.0776C4.68809 89.2199 2.63607 92.2746 2.77168 95.6496C2.93584 99.7188 6.13699 103.153 10.7942 105.001C4.35263 106.693 -0.186802 110.937 0.0059101 115.823C0.212897 120.991 5.52674 125.177 12.6642 126.305C7.61445 128.03 4.19917 131.318 4.34549 135.032C4.55248 140.136 11.2367 144.132 19.6161 144.236C19.1807 144.415 18.7275 144.585 18.3314 144.789C15.5585 146.229 14.0774 148.144 14.1559 150.173C14.313 154.106 20.1942 157.07 27.8385 157.07L63.0476 156.189C66.5985 156.101 69.7354 155.359 72.1479 154.225C72.1764 154.217 72.205 154.22 72.23 154.208C72.8902 153.931 88.3678 147.268 92.6788 129.711C93.91 124.701 90.7231 116.783 89.9273 114.913C91.1692 112.493 97.204 99.7188 92.0364 91.4302ZM5.44823 95.5787C5.24481 90.5659 11.0119 86.3408 18.2992 86.1595L57.5625 85.1677L58.0585 85.162C65.1995 85.162 70.9452 89.0073 71.1415 93.9238C71.2378 96.3268 69.9745 98.6221 67.587 100.396C65.4315 102.003 62.573 102.963 59.4753 103.23C59.0328 103.207 58.6081 103.145 58.1584 103.145L16.3507 104.19C10.2517 103.493 5.62667 99.9738 5.44823 95.5787ZM2.67889 115.755C2.47904 110.742 8.58515 106.511 16.29 106.321L16.4007 106.316C17.1037 106.381 17.7996 106.466 18.5312 106.466L58.369 105.463C58.7651 105.454 59.1434 105.386 59.5288 105.355C66.3986 105.797 71.7517 109.416 71.9373 114.009C72.0301 116.401 70.699 118.696 68.1866 120.473C65.6028 122.301 62.1055 123.358 58.3226 123.451L17.0145 124.491L16.472 124.5C8.93845 124.497 2.87517 120.663 2.67889 115.755ZM7.02204 134.965C6.85788 130.836 12.6535 127.325 19.9373 127.135L59.2005 126.143L59.7929 126.135C66.7591 126.135 72.5547 129.354 72.7117 133.298C72.8759 137.427 67.0838 140.941 59.8 141.125L20.5368 142.12L19.9444 142.131C12.8569 142.131 7.1862 138.98 7.02204 134.965ZM62.9655 154.069L28.4773 154.939L27.8385 154.948C21.8751 154.948 16.936 152.774 16.8325 150.114C16.7825 148.847 17.8353 147.589 19.7945 146.571C21.9608 145.449 24.9014 144.786 28.0704 144.707L62.5587 143.834L63.1832 143.826C69.1537 143.826 74.1 145.996 74.207 148.663C74.3141 151.434 69.168 153.914 62.9655 154.069ZM90.0593 129.306C87.6647 139.042 81.5301 145.254 76.855 148.748C76.855 148.694 76.88 148.648 76.8764 148.592C76.7444 145.353 72.6939 142.803 67.0053 141.989C72.0908 140.269 75.531 136.971 75.3847 133.236C75.2206 129.133 70.8489 125.772 64.7999 124.545C66.7163 123.953 68.4685 123.117 69.9638 122.06C73.0829 119.858 74.7352 116.973 74.6139 113.944C74.439 109.569 70.5883 105.905 65.0853 104.196C66.6663 103.621 68.1473 102.887 69.4142 101.946C72.3727 99.7528 73.9358 96.8737 73.8109 93.853C73.5754 87.786 66.6449 83.0395 58.0514 83.0395L18.4313 84.0285C30.2616 79.9196 45.3859 80.5515 45.5751 80.56C46.3102 80.6054 46.9455 80.1491 46.9883 79.5626C47.0347 78.976 46.4708 78.4744 45.7321 78.4376C45.2646 78.4149 40.0757 78.1967 33.4235 78.8116C33.7661 75.8674 34.7868 67.1311 35.8788 58.0604V30.4543C35.8788 24.8237 41.6459 20.2445 48.737 20.2445C55.8245 20.2445 61.5951 24.8237 61.5951 30.4543V59.2363C61.5951 59.3497 61.6201 59.463 61.6665 59.5707C61.9377 60.231 62.2232 60.8997 62.5266 61.5827C64.4002 65.7992 68.9217 70.506 71.4484 72.9345C72.2442 73.6968 73.1864 74.5837 74.2392 75.5614C78.9071 79.9054 85.9482 86.4712 89.6347 92.3766C94.6916 100.49 87.3364 114.329 87.2686 114.468C87.1366 114.718 87.1258 114.995 87.24 115.245C87.2829 115.333 91.2941 124.287 90.0593 129.306Z" fill="#6B5226"/>
<path d="M50.2616 25.5624L30.9326 10.9205L28.3441 20.1088C27.1263 24.4318 35.7283 30.7351 47.5574 34.1876C59.3866 37.6402 69.9632 36.9344 71.181 32.6114L73.7147 23.6177L50.2616 25.5624Z" fill="#3B4D81"/>
<path d="M57.1208 1.21421L21.9671 4.1291L30.9326 10.9205L50.2616 25.5624L73.7147 23.6177L85.4153 22.6475L57.1208 1.21421Z" fill="#3B4D81"/>
<path d="M78.0254 39.9557C79.2165 40.3033 80.4253 39.7217 80.7253 38.6566C81.0254 37.5914 80.3031 36.4462 79.112 36.0985C77.9209 35.7509 76.712 36.3325 76.412 37.3976C76.1119 38.4628 76.8343 39.608 78.0254 39.9557Z" fill="#D71920"/>
<path d="M86.2223 21.7348L57.9278 0.301508C57.6384 0.082392 57.271 -0.0248594 56.9115 0.00487252L21.7579 2.9198C21.2326 2.96334 20.8076 3.29098 20.6775 3.75271C20.5474 4.21444 20.7373 4.72144 21.1601 5.04169L29.4286 11.3051L27.0545 19.7324C26.3246 22.3233 28.1768 25.4019 32.2696 28.401C36.0342 31.1596 41.3479 33.6245 47.2323 35.342C53.1166 37.0594 58.9064 37.8351 63.535 37.5264C68.5674 37.1906 71.7408 35.5788 72.4707 32.9879L74.7901 24.755L78.2516 24.4679L77.9068 25.6919C77.7272 26.3293 78.1591 27.0148 78.8712 27.2226C79.5833 27.4305 80.3064 27.0821 80.486 26.4447L81.1096 24.2309L85.6247 23.8566C86.1499 23.8132 86.575 23.4855 86.705 23.0238C86.8351 22.5621 86.6451 22.055 86.2223 21.7348ZM69.8914 32.2351C69.0022 35.3915 59.7449 36.4955 47.8825 33.0333C36.0204 29.5711 28.7444 23.6415 29.6336 20.4851L31.7289 13.0475L49.4545 26.4748C49.5992 26.5845 49.7635 26.6661 49.9363 26.7166C50.1092 26.767 50.2909 26.7864 50.4707 26.7714L71.9318 24.9918L69.8914 32.2351ZM50.6154 24.3065L25.24 5.08434L56.767 2.47012L82.1424 21.6923L50.6154 24.3065Z" fill="#6B5226"/>
<path d="M80.4013 36.5179L80.6484 29.0637C80.6627 28.6312 80.1377 28.2606 79.4759 28.2363C78.8142 28.212 78.2659 28.5431 78.2516 28.9757L78.0045 36.4299C76.8215 36.6975 75.9671 37.419 75.938 38.2957C75.8998 39.4492 77.3044 40.4405 79.0693 40.5053C80.8342 40.5702 82.301 39.6845 82.3393 38.5309C82.3682 37.6542 81.5636 36.8717 80.4013 36.5179ZM79.1212 38.9386C78.6781 38.9223 78.3252 38.6734 78.3348 38.3837C78.3444 38.094 78.7128 37.8715 79.1561 37.8878C79.5992 37.9041 79.9521 38.153 79.9425 38.4428C79.9327 38.7325 79.5644 38.9549 79.1212 38.9386Z" fill="#6B5226"/>
<path d="M49.8796 7.10453C49.3828 6.95952 48.9822 6.56292 48.8925 6.06753C48.7715 5.40013 49.2607 4.80637 49.9853 4.74145L54.1377 4.36845C54.8615 4.3029 55.5475 4.79135 55.6683 5.459C55.7893 6.12641 55.3001 6.72017 54.5755 6.78508L50.4231 7.15808C50.2365 7.17489 50.0523 7.15493 49.8796 7.10453Z" fill="#6B5226"/>
<path d="M33.4131 8.58374C32.9163 8.43873 32.5158 8.04213 32.426 7.54674C32.3051 6.87933 32.7942 6.28558 33.5188 6.22066L44.6874 5.21735C45.4112 5.15167 46.0972 5.64025 46.218 6.3079C46.339 6.97531 45.8498 7.56907 45.1252 7.63398L33.9566 8.63729C33.77 8.6541 33.5858 8.63414 33.4131 8.58374Z" fill="#6B5226"/>
</g>
<defs>
<clipPath id="clip0_1511_7">
<rect width="94" height="157" fill="white"/>
</clipPath>
</defs>
</svg>
