<svg width="541" height="568" viewBox="0 0 541 568" fill="none" xmlns="http://www.w3.org/2000/svg">
<g clip-path="url(#clip0_640_2)">
<path d="M472.148 98.7422L218.534 25.7184C195.825 19.2094 171.645 33.9886 164.487 58.7524L61.1161 417.763C54.0088 442.541 66.6274 467.916 89.3207 474.48L342.934 547.504C354.29 550.759 366.38 543.369 369.96 530.986L486.251 127.103C489.805 114.712 483.496 102.025 472.148 98.7422ZM214.227 40.6769L467.841 113.701C471.624 114.794 473.725 119.025 472.539 123.155L375.629 459.726L115.163 384.729C105.03 381.815 94.0808 383.108 84.4285 388.356L178.196 62.6996C182.967 46.1878 199.086 36.3358 214.227 40.6769ZM356.248 527.037C355.056 531.166 351.026 533.631 347.241 532.545L93.6277 459.522C78.4852 455.161 70.0671 438.233 74.8247 421.71C79.5822 405.187 95.7134 395.328 110.856 399.688L371.322 474.684L356.248 527.037Z" fill="#AF8E53"/>
<path d="M88.5332 425.657C87.3443 429.787 89.4489 434.019 93.2361 435.109L106.945 439.056C110.729 440.146 114.761 437.681 115.95 433.552C117.14 429.419 115.036 425.187 111.252 424.098L97.5431 420.151C93.7559 419.06 89.7231 421.525 88.5332 425.657Z" fill="#AF8E53"/>
<path d="M134.362 446.95L339.994 506.159C343.778 507.248 347.81 504.783 348.999 500.654C350.189 496.522 348.085 492.29 344.301 491.2L138.669 431.992C134.882 430.901 130.849 433.366 129.659 437.499C128.47 441.628 130.575 445.86 134.362 446.95Z" fill="#AF8E53"/>
<path d="M205.613 70.594C209.4 71.6844 213.433 69.2195 214.622 65.0905L216.776 57.6095C217.965 53.4804 215.86 49.2484 212.073 48.1579C208.289 47.0684 204.256 49.5333 203.067 53.6623L200.913 61.1433C199.725 65.2724 201.829 69.5044 205.613 70.594Z" fill="#AF8E53"/>
<path d="M121.624 362.29C125.411 363.38 129.444 360.915 130.634 356.783L206.008 95.0075C207.198 90.875 205.093 86.6429 201.306 85.5525C197.522 84.4629 193.489 86.9278 192.299 91.0603L116.925 352.836C115.735 356.968 117.84 361.2 121.624 362.29Z" fill="#AF8E53"/>
<path d="M169.606 376.105L347.82 427.419C359.176 430.674 371.263 423.284 374.843 410.9L443.757 171.561C447.31 159.173 441.004 146.487 429.655 143.204L251.441 91.8904C240.085 88.6355 227.994 96.0251 224.416 108.405L155.502 347.745C151.948 360.135 158.257 372.823 169.606 376.105ZM238.125 112.352C239.317 108.224 243.349 105.763 247.134 106.849L425.348 158.163C429.131 159.256 431.234 163.484 430.048 167.614L361.134 406.953C359.942 411.081 355.912 413.547 352.127 412.461L173.913 361.147C170.13 360.054 168.025 355.822 169.211 351.692L238.125 112.352Z" fill="#AF8E53"/>
<path d="M209.156 290.301L226.191 295.206L244.243 353.705C244.964 356.041 246.705 357.806 248.917 358.443C249.19 358.522 249.468 358.583 249.748 358.623C252.332 359.019 254.976 357.848 256.639 355.58L351.462 225.983L387.95 236.489C391.734 237.579 395.767 235.114 396.957 230.981C398.146 226.852 396.041 222.62 392.257 221.531L351.132 209.689C348.327 208.881 345.272 210.015 343.413 212.554L253.823 334.996L238.702 286.002C237.985 283.664 236.241 281.898 234.028 281.264L213.464 275.343C209.679 274.253 205.644 276.717 204.455 280.846C203.265 284.979 205.372 289.212 209.156 290.301Z" fill="#AF8E53"/>
<path d="M243.614 170.63L250.47 172.604L237.549 217.48C236.359 221.612 238.463 225.844 242.247 226.934C246.035 228.024 250.067 225.559 251.257 221.427L262.024 184.032L282.586 189.952L271.819 227.347C270.629 231.479 272.733 235.712 276.52 236.802L283.373 238.775C287.16 239.866 291.193 237.401 292.383 233.268C293.572 229.139 291.467 224.907 287.68 223.817L296.294 193.9C298.663 185.639 294.459 177.18 286.893 174.994L266.331 169.074C265.717 168.919 265.096 168.811 264.467 168.752C263.426 163.339 259.719 159.091 254.777 157.646L247.921 155.672C244.137 154.582 240.101 157.046 238.911 161.178C237.722 165.308 239.83 169.54 243.614 170.63Z" fill="#AF8E53"/>
<path d="M355.282 332.376L359.954 333.721C363.738 334.81 367.771 332.346 368.961 328.213C370.15 324.084 368.045 319.852 364.261 318.762L359.589 317.417C351.364 315.042 342.387 318.252 336.775 325.575L336.046 326.526L335.934 325.333C335.073 316.146 329.181 308.654 320.952 306.292L316.28 304.947C312.495 303.857 308.46 306.321 307.271 310.45C306.081 314.583 308.188 318.816 311.972 319.905L316.644 321.251C319.388 322.037 321.353 324.534 321.64 327.598L323.125 343.364L313.483 355.926C311.612 358.365 308.619 359.438 305.877 358.645L301.205 357.3C297.421 356.21 293.385 358.674 292.195 362.807C291.007 366.936 293.114 371.169 296.898 372.258L301.57 373.604C309.795 375.979 318.769 372.768 324.384 365.446L325.114 364.492L325.225 365.688C326.083 374.874 331.979 382.367 340.208 384.729L344.88 386.074C348.664 387.164 352.697 384.699 353.886 380.57C355.075 376.437 352.971 372.205 349.187 371.115L344.515 369.77C341.772 368.984 339.807 366.483 339.52 363.423L338.035 347.657L347.676 335.095C349.548 332.653 352.541 331.583 355.282 332.376Z" fill="#AF8E53"/>
</g>
<defs>
<clipPath id="clip0_640_2">
<rect width="427.972" height="466.994" fill="white" transform="translate(129.214) rotate(16.0629)"/>
</clipPath>
</defs>
</svg>
