<!-- icon666.com - MILLIONS OF FREE VECTOR ICONS --><svg viewBox="0 0 24 24" xmlns="http://www.w3.org/2000/svg"><g id="Layer_2" data-name="Layer 2"><path d="m16 10.75h-8a.75.75 0 0 1 0-1.5h8a.75.75 0 0 1 0 1.5z"></path><path d="m13.5 14.75h-5.5a.75.75 0 0 1 0-1.5h5.5a.75.75 0 0 1 0 1.5z"></path><path d="m12 22.75a10.62 10.62 0 0 1 -5.15-1.33.3.3 0 0 0 -.2 0l-2.65.76a1.73 1.73 0 0 1 -2.18-2.18l.79-2.65a.3.3 0 0 0 0-.2 10.73 10.73 0 0 1 7.62-15.76 10.76 10.76 0 0 1 4.07 21.12 11.47 11.47 0 0 1 -2.3.24zm-5.29-2.87a1.85 1.85 0 0 1 .85.22 9.24 9.24 0 1 0 2.9-17.23 9.23 9.23 0 0 0 -6.56 13.57 1.77 1.77 0 0 1 .15 1.35l-.8 2.65a.25.25 0 0 0 .31.31l2.65-.75a1.68 1.68 0 0 1 .5-.12z"></path></g></svg>