<svg width="32" height="32" viewBox="0 0 32 32" fill="none" xmlns="http://www.w3.org/2000/svg">
<g clip-path="url(#clip0_1028_2)">
<path d="M26 32H6C2.686 32 0 29.314 0 26V6C0 2.686 2.686 0 6 0H26C29.314 0 32 2.686 32 6V26C32 29.314 29.314 32 26 32Z" fill="#FFE0E0"/>
<path d="M11.2388 9.00034C10.9888 9.0079 10.7692 9.13981 10.5855 9.32359L10.2788 9.62973L13.6021 13.0135L14.0845 12.5311C14.3752 12.2404 14.3752 11.7603 14.0845 11.4696L11.938 9.32359C11.7301 9.11567 11.4887 8.99266 11.2388 9.00034ZM9.92432 9.98326L9.57227 10.3348C8.9962 10.9109 9 11.6646 9 12.0126C9 13.4522 9.57555 15.9411 13.0728 19.4383C16.57 22.9355 19.0594 23.5116 20.499 23.5116C20.847 23.5116 21.6007 23.5154 22.1768 22.9393L22.4951 22.6209L19.1719 19.2371L18.8232 19.5863C18.6166 19.7929 18.4642 19.8176 18.3159 19.8001C18.1677 19.7827 18.0144 19.697 17.9023 19.6102C17.2912 19.1371 16.3018 18.4598 15.1768 17.3348C14.0518 16.2098 13.3745 15.2199 12.9014 14.6087C12.8146 14.4967 12.7289 14.3454 12.7114 14.1971C12.694 14.0489 12.7208 13.8945 12.9272 13.6878L13.248 13.367L9.92432 9.98326ZM20.5107 18.2088C20.3182 18.2088 20.1258 18.2817 19.9805 18.4271L19.5254 18.8827L22.8491 22.2669L23.188 21.9281C23.3718 21.7443 23.5031 21.5227 23.5107 21.2728C23.5183 21.0228 23.3959 20.7815 23.188 20.5736L21.0415 18.4271C20.8961 18.2817 20.7033 18.2088 20.5107 18.2088Z" fill="#BB2929"/>
</g>
<defs>
<clipPath id="clip0_1028_2">
<rect width="32" height="32" fill="white"/>
</clipPath>
</defs>
</svg>
