<svg width="67" height="67" viewBox="0 0 67 67" fill="none" xmlns="http://www.w3.org/2000/svg">
<g clip-path="url(#clip0_1040_99)">
<path d="M29.327 54.861L24.765 51.504L26.169 44.337L26.204 44.286L28.31 45.838V45.842L29.562 46.766H29.564L32.424 48.871L33.676 49.798V49.793L35.782 51.347L35.748 51.395L29.327 54.861ZM56.493 3.14902L50.434 11.376L60.019 18.432L66.08 10.205L56.493 3.14902ZM46.652 29.548L55.735 17.211L52.875 15.103L46.652 23.552L43.693 27.57L30.484 45.511L33.348 47.618L43.696 33.565L46.652 29.548ZM24.43 53.189L23.484 58.009L27.81 55.677L24.43 53.189ZM46.652 32.169L43.693 36.183L34.598 48.537L36.707 50.091L43.693 40.604V61.708H2.957V8.08202H3.819V9.89902C3.819 10.716 4.482 11.38 5.298 11.38C6.115 11.38 6.776 10.716 6.776 9.89902V8.08202H8.969V9.89902C8.969 10.716 9.63 11.38 10.448 11.38C11.266 11.38 11.926 10.716 11.926 9.89902V8.08202H14.119V9.89902C14.119 10.716 14.783 11.38 15.598 11.38C16.414 11.38 17.076 10.716 17.076 9.89902V8.08202H19.269V9.89902C19.269 10.716 19.933 11.38 20.747 11.38C21.565 11.38 22.226 10.716 22.226 9.89902V8.08202H24.419V9.89902C24.419 10.716 25.083 11.38 25.897 11.38C26.712 11.38 27.376 10.716 27.376 9.89902V8.08202H29.569V9.89902C29.569 10.716 30.232 11.38 31.047 11.38C31.862 11.38 32.525 10.716 32.525 9.89902V8.08202H34.719V9.89902C34.719 10.716 35.38 11.38 36.197 11.38C37.015 11.38 37.676 10.716 37.676 9.89902V8.08202H39.87V9.89902C39.87 10.716 40.531 11.38 41.348 11.38C42.165 11.38 42.827 10.716 42.827 9.89902V8.08202H43.689V20.534L27.123 43.039L29.23 44.588L43.691 24.95L46.647 20.932L51.62 14.183L49.508 12.627L46.648 16.514V5.12502H42.83V2.89402C42.83 2.07802 42.169 1.41602 41.351 1.41602C40.535 1.41602 39.873 2.07802 39.873 2.89402V5.12502H37.679V2.89402C37.679 2.07802 37.019 1.41602 36.2 1.41602C35.383 1.41602 34.722 2.07802 34.722 2.89402V5.12502H32.528V2.89402C32.528 2.07802 31.868 1.41602 31.05 1.41602C30.232 1.41602 29.572 2.07802 29.572 2.89402V5.12502H27.379V2.89402C27.379 2.07802 26.715 1.41602 25.9 1.41602C25.083 1.41602 24.422 2.07802 24.422 2.89402V5.12502H22.229V2.89402C22.229 2.07802 21.565 1.41602 20.75 1.41602C19.936 1.41602 19.272 2.07802 19.272 2.89402V5.12502H17.079V2.89402C17.079 2.07802 16.415 1.41602 15.601 1.41602C14.786 1.41602 14.122 2.07802 14.122 2.89402V5.12502H11.929V2.89402C11.929 2.07802 11.265 1.41602 10.451 1.41602C9.636 1.41602 8.972 2.07802 8.972 2.89402V5.12502H6.776V2.89402C6.776 2.07802 6.113 1.41602 5.298 1.41602C4.482 1.41602 3.819 2.07802 3.819 2.89402V5.12502H0V64.665H46.652V36.585L59.095 19.687L56.985 18.136L46.652 32.169ZM38.44 14.968H7.549V18.581H38.44V14.968ZM7.549 25.812H38.44V22.198H7.549V25.812ZM7.549 33.042H28.91V29.427H7.549V33.042Z" fill="#031B42" fill-opacity="0.4"/>
</g>
<defs>
<clipPath id="clip0_1040_99">
<rect width="66.08" height="66.08" fill="white"/>
</clipPath>
</defs>
</svg>
