<svg width="113" height="113" viewBox="0 0 113 113" fill="none" xmlns="http://www.w3.org/2000/svg">
<path d="M111.561 88.8099H106.055C102.738 80.9017 102.738 71.3494 106.055 63.4411H111.561C112.356 63.4411 113 62.7968 113 62.0023C113 61.2078 112.356 60.5634 111.561 60.5634H102.389C105.326 54.2348 105.07 46.8931 101.617 40.7426C104.809 34.8606 104.654 27.765 101.146 22.003C100.885 21.5739 100.419 21.3123 99.9171 21.3123H90.0154C89.2209 21.3123 88.5766 21.9566 88.5766 22.7512C88.5766 23.5457 89.2209 24.19 90.0154 24.19H99.0857C101.666 28.9411 101.666 34.6281 99.0857 39.3789H67.2006C68.7416 35.8919 69.1937 32.0116 68.4639 28.2228C68.3137 27.4427 67.5595 26.9313 66.779 27.0821C65.9986 27.2323 65.4881 27.9869 65.6383 28.767C66.339 32.4039 65.7557 36.1409 63.9989 39.3786H59.6101C61.7571 34.5334 61.7571 29.0352 59.6101 24.19H63.9954C64.1756 24.5221 64.3477 24.8585 64.5028 25.2004C64.7436 25.731 65.2665 26.0447 65.8139 26.0447C66.0127 26.0447 66.215 26.003 66.4078 25.9155C67.0726 25.6136 67.3903 24.87 67.1837 24.1897H85.4105C86.205 24.1897 86.8494 23.5454 86.8494 22.7509C86.8494 21.9563 86.205 21.312 85.4105 21.312H15.8691C15.0746 21.312 14.4303 21.9563 14.4303 22.7509C14.4303 23.5454 15.0746 24.1897 15.8691 24.1897H20.5333C23.1146 28.9411 23.1146 34.6272 20.5333 39.3786H1.43886C0.64432 39.3786 0 40.0229 0 40.8174C0 41.612 0.64432 42.2563 1.43886 42.2563H7.05644C10.2182 47.9708 10.2182 54.8489 7.05644 60.5634H1.43886C0.64432 60.5634 0 61.2078 0 62.0023C0 62.7968 0.64432 63.4411 1.43886 63.4411H10.9563C7.52666 72.1413 7.8222 82.4496 11.8496 90.8695C12.0887 91.3693 12.5934 91.6876 13.1477 91.6876H111.561C112.356 91.6876 113 91.0433 113 90.2488C113 89.4542 112.356 88.8099 111.561 88.8099ZM101.613 67.9321H96.6169C95.8224 67.9321 95.178 68.5764 95.178 69.371C95.178 70.1655 95.8224 70.8098 96.6169 70.8098H101.079C100.884 72.16 100.764 73.5238 100.718 74.8913H84.6427C83.8482 74.8913 83.2039 75.5356 83.2039 76.3301C83.2039 77.1247 83.8482 77.769 84.6427 77.769H100.734C100.794 79.1373 100.927 80.5017 101.137 81.8507H92.0114C91.2169 81.8507 90.5726 82.4951 90.5726 83.2896C90.5726 84.0841 91.2169 84.7284 92.0114 84.7284H101.707C102.042 86.1184 102.461 87.4827 102.961 88.8099H68.9051C68.3514 87.4902 67.8898 86.1247 67.5209 84.7284H87.5599C88.3544 84.7284 88.9987 84.0841 88.9987 83.2896C88.9987 82.4951 88.3544 81.8507 87.5599 81.8507H66.9002C66.6708 80.5037 66.5218 79.1391 66.4565 77.769H78.963C79.7575 77.769 80.4018 77.1247 80.4018 76.3301C80.4018 75.5356 79.7575 74.8913 78.963 74.8913H66.4409C66.4901 73.5226 66.619 72.158 66.8314 70.8098H92.4721C93.2667 70.8098 93.911 70.1655 93.911 69.371C93.911 68.5764 93.2667 67.9321 92.4721 67.9321H67.4182C67.8032 66.3937 68.2976 64.8895 68.9051 63.4411H102.961C102.412 64.8987 101.962 66.4009 101.613 67.9321ZM63.992 88.8099C61.8207 83.6254 61.0435 77.5894 61.8029 71.7028C61.9045 70.9146 61.3479 70.1931 60.56 70.0915C59.7718 69.9908 59.0507 70.5465 58.9488 71.3344C58.179 77.3028 58.874 83.4231 60.9002 88.8099H55.0889C51.7712 80.9017 51.7712 71.3494 55.0889 63.4411H60.9053C60.4728 64.5899 60.0921 65.7718 59.7816 66.9836C59.5842 67.7534 60.0484 68.5373 60.8182 68.7347C60.9382 68.7655 61.0582 68.7802 61.1764 68.7802C61.8179 68.7802 62.4026 68.3482 62.5692 67.6984C62.9462 66.2279 63.4239 64.8 63.9926 63.4414H65.8113C62.7946 71.4429 62.7946 80.8087 65.8113 88.8102H63.992V88.8099ZM47.4316 42.2566H49.1208C52.282 47.9706 52.282 54.8494 49.1208 60.5637H47.4316C50.1318 54.7461 50.1318 48.0739 47.4316 42.2566ZM55.4207 24.19H56.4072C58.9874 28.9405 58.9874 34.6281 56.4072 39.3789H55.4207C57.5678 34.5334 57.5678 29.0355 55.4207 24.19ZM52.3439 42.2566H58.0225C61.1842 47.9711 61.1842 54.8492 58.0225 60.5637H52.3439C55.044 54.7461 55.044 48.0739 52.3439 42.2566ZM99.1663 42.2566C102.327 47.9706 102.327 54.8494 99.1663 60.5637H61.2478C63.948 54.7464 63.948 48.0742 61.2478 42.2566H64.8285C64.8291 42.2566 64.83 42.2566 64.8305 42.2566C64.8311 42.2566 99.1663 42.2566 99.1663 42.2566ZM24.8997 35.8557H43.6549C44.4494 35.8557 45.0938 35.2114 45.0938 34.4168C45.0938 33.6223 44.4494 32.978 43.6549 32.978H25.3118C25.3716 32.0447 25.3596 31.1086 25.279 30.1765H36.2862C37.0808 30.1765 37.7251 29.5322 37.7251 28.7377C37.7251 27.9431 37.0808 27.2988 36.2862 27.2988H24.8039C24.5429 26.2418 24.1872 25.2021 23.7391 24.1903H52.2155C52.7591 25.1909 53.1882 26.2326 53.5027 27.2988H41.1991C40.4045 27.2988 39.7602 27.9431 39.7602 28.7377C39.7602 29.5322 40.4045 30.1765 41.1991 30.1765H54.0716C54.1666 31.1077 54.1775 32.0453 54.107 32.978H49.7957C49.0011 32.978 48.3568 33.6223 48.3568 34.4168C48.3568 35.2114 49.0011 35.8557 49.7957 35.8557H53.6193C53.2973 37.0663 52.8293 38.2491 52.2155 39.3789H23.7388C24.2456 38.235 24.6321 37.0551 24.8997 35.8557ZM44.2066 42.2566C44.6281 43.0183 44.9939 43.8008 45.303 44.5985H11.2081C10.946 43.8057 10.6375 43.0238 10.2815 42.2566H44.2066ZM11.3097 57.9148H16.7903C17.5848 57.9148 18.2292 57.2705 18.2292 56.4759C18.2292 55.6814 17.5848 55.0371 16.7903 55.0371H12.0027C12.1345 54.2607 12.2219 53.4788 12.2683 52.6952H35.0583C35.8528 52.6952 36.4972 52.0509 36.4972 51.2563C36.4972 50.4618 35.8528 49.8175 35.0583 49.8175H12.2484C12.1906 49.0333 12.089 48.252 11.9457 47.4759H46.1617C46.3271 48.2503 46.4423 49.0324 46.509 49.8175H39.8166C39.0221 49.8175 38.3777 50.4618 38.3777 51.2563C38.3777 52.0509 39.0221 52.6952 39.8166 52.6952H46.5352C46.4814 53.4799 46.3764 54.2618 46.2241 55.0371H22.0096C21.2151 55.0371 20.5708 55.6814 20.5708 56.4759C20.5708 57.2705 21.2151 57.9148 22.0096 57.9148H45.4175C45.0851 58.8187 44.682 59.7041 44.2066 60.5634H10.2815C10.6835 59.6975 11.0274 58.8132 11.3097 57.9148ZM14.07 63.4414H15.4602C14.5425 65.8771 13.893 68.4616 13.5324 71.1566C13.4268 71.9442 13.9799 72.6682 14.7676 72.7736C14.8323 72.7822 14.8968 72.7865 14.9604 72.7865C15.67 72.7865 16.2879 72.2613 16.3845 71.5385C16.7673 68.6809 17.4988 65.9629 18.5561 63.4414H51.9951C48.9784 71.4429 48.9784 80.8087 51.9951 88.8102H18.5541C17.0464 85.2079 16.1963 81.1494 16.0913 77.0101C16.0712 76.2159 15.4125 75.5934 14.6165 75.6081C13.8219 75.6283 13.1946 76.2887 13.2145 77.0829C13.3181 81.1575 14.091 85.1673 15.4602 88.8099H14.0703C10.5871 80.9037 10.5871 71.3477 14.07 63.4414Z" fill="#031B42" fill-opacity="0.4"/>
</svg>
