<svg width="203" height="184" viewBox="0 0 203 184" fill="none" xmlns="http://www.w3.org/2000/svg">
<g clip-path="url(#clip0_680_2)">
<path d="M118.467 91.2356L108.116 62.7407C107.676 61.5285 106.429 60.7073 105.021 60.7015C103.613 60.6956 102.36 61.5069 101.909 62.715L91.3228 91.1231C91.0965 91.7307 91.0937 92.3882 91.315 92.9973L101.666 121.492C102.106 122.704 103.353 123.526 104.761 123.531C106.169 123.537 107.422 122.726 107.873 121.518L118.459 93.1098C118.685 92.5026 118.688 91.845 118.467 91.2356ZM104.812 111.196L97.8709 92.0875L104.97 73.0372L111.911 92.1457L104.812 111.196Z" fill="#031B42" fill-opacity="0.4"/>
<path d="M164.513 19.8508L136.597 19.7351C135.29 19.7297 134.039 19.9498 132.887 20.3508L132.929 10.0384C132.951 4.91791 128.37 0.733081 122.718 0.709655L87.8224 0.565029C82.1702 0.541603 77.5547 4.68831 77.5334 9.80878L77.4645 26.4438C76.3155 26.0332 75.0668 25.8028 73.7595 25.7974L38.8644 25.6527C33.2122 25.6293 28.5967 29.776 28.5754 34.8965L27.9989 173.992C27.9777 179.113 32.5588 183.298 38.2109 183.321L73.106 183.466C75.8004 183.477 78.2574 182.539 80.0954 181.001C81.9205 182.554 84.3697 183.512 87.0641 183.524L121.959 183.668C124.654 183.679 127.111 182.742 128.949 181.204C130.774 182.757 133.223 183.715 135.917 183.726L163.833 183.842C169.486 183.865 174.101 179.719 174.122 174.598L174.725 29.1796C174.746 24.0591 170.165 19.8743 164.513 19.8508ZM35.0405 53.6937L77.3508 53.869L76.9299 155.425L34.6196 155.25L35.0405 53.6937ZM83.9715 35.1261L83.9723 34.9285L126.283 35.1039L125.809 149.305L83.499 149.129L83.9715 35.1261ZM126.308 28.9789L126.307 29.1765L83.9968 29.0011L84.0247 22.2834L126.335 22.4588L126.308 28.9789ZM83.4744 155.057L125.785 155.232L125.757 161.95L83.4466 161.775L83.4744 155.057ZM132.773 47.7761L168.104 47.9225L167.657 155.801L132.326 155.654L132.773 47.7761ZM136.572 25.6625L164.488 25.7782C166.533 25.7867 168.19 27.3003 168.182 29.1524L168.129 41.9951L132.798 41.8487L132.851 29.006C132.859 27.1539 134.528 25.6541 136.572 25.6625ZM87.7978 6.49241L122.693 6.63704C124.737 6.64551 126.394 8.15915 126.387 10.0113L126.36 16.5314L84.0493 16.356L84.0763 9.8359C84.084 7.98379 85.7534 6.48394 87.7978 6.49241ZM38.8398 31.5801L73.7349 31.7247C75.7794 31.7332 77.4363 33.2469 77.4286 35.099L77.3754 47.9416L35.0651 47.7663L35.1183 34.9236C35.126 33.0715 36.7954 31.5716 38.8398 31.5801ZM73.1306 177.538L38.2355 177.394C36.1911 177.385 34.5341 175.872 34.5418 174.02L34.595 161.177L76.9054 161.352L76.8521 174.195C76.8445 176.047 75.175 177.547 73.1306 177.538ZM121.984 177.741L87.0886 177.596C85.0442 177.588 83.3873 176.074 83.395 174.222L83.422 167.702L125.732 167.877L125.705 174.397C125.698 176.25 124.028 177.749 121.984 177.741ZM163.858 177.914L135.942 177.799C133.897 177.79 132.24 176.277 132.248 174.425L132.301 161.582L167.633 161.728L167.579 174.571C167.572 176.423 165.902 177.923 163.858 177.914Z" fill="#031B42" fill-opacity="0.4"/>
<path d="M163.791 100.907L153.44 72.4126C153 71.2004 151.753 70.3792 150.345 70.3734C148.937 70.3675 147.684 71.1787 147.233 72.3869L136.647 100.795C136.421 101.403 136.418 102.06 136.639 102.669L146.99 131.164C147.43 132.376 148.677 133.197 150.085 133.203C151.493 133.209 152.746 132.398 153.197 131.19L163.783 102.782C164.01 102.174 164.012 101.517 163.791 100.907ZM150.136 120.868L143.195 101.759L150.294 82.709L157.235 101.818L150.136 120.868Z" fill="#031B42" fill-opacity="0.4"/>
<path d="M69.5615 103.678L59.2109 75.1833C58.7706 73.9711 57.5238 73.1499 56.1158 73.1441C54.7078 73.1383 53.4543 73.9495 53.0039 75.1576L42.4175 103.566C42.1912 104.173 42.1885 104.831 42.4097 105.44L52.7603 133.935C53.2007 135.147 54.4474 135.968 55.8554 135.974C57.2634 135.98 58.5169 135.169 58.9673 133.96L69.5538 105.552C69.78 104.945 69.7828 104.288 69.5615 103.678ZM55.9065 123.639L48.9656 104.53L56.0647 85.4798L63.0056 104.588L55.9065 123.639Z" fill="#031B42" fill-opacity="0.4"/>
</g>
<defs>
<clipPath id="clip0_680_2">
<rect width="201.957" height="182.96" fill="white" transform="translate(0.802734 0.204346) rotate(0.237467)"/>
</clipPath>
</defs>
</svg>
