<svg viewBox="0 0 64 64" fill="#C2984D" xmlns="http://www.w3.org/2000/svg"><g id="Server"><path d="m57 4.5h-50a3 3 0 0 0 -3 3v11a3 3 0 0 0 3 3h50a3 3 0 0 0 3-3v-11a3 3 0 0 0 -3-3zm-45 11.5a3 3 0 1 1 3-3 3.00328 3.00328 0 0 1 -3 3zm8 0a3 3 0 1 1 3-3 3.00328 3.00328 0 0 1 -3 3zm18 2h-4a1 1 0 0 1 0-2h4a1 1 0 0 1 0 2zm8 0h-4a1 1 0 0 1 0-2h4a1 1 0 0 1 0 2zm8 0h-4a1 1 0 0 1 0-2h4a1 1 0 0 1 0 2z"></path><path d="m57 23.5h-50a3 3 0 0 0 -3 3v11a3 3 0 0 0 3 3h50a3 3 0 0 0 3-3v-11a3 3 0 0 0 -3-3zm-45 11.5a3 3 0 1 1 3-3 3.00328 3.00328 0 0 1 -3 3zm8 0a3 3 0 1 1 3-3 3.00328 3.00328 0 0 1 -3 3zm18 2h-4a1 1 0 0 1 0-2h4a1 1 0 0 1 0 2zm8 0h-4a1 1 0 0 1 0-2h4a1 1 0 0 1 0 2zm8 0h-4a1 1 0 0 1 0-2h4a1 1 0 0 1 0 2z"></path><path d="m57 42.5h-50a3 3 0 0 0 -3 3v11a3 3 0 0 0 3 3h50a3 3 0 0 0 3-3v-11a3 3 0 0 0 -3-3zm-45 11.5a3 3 0 1 1 3-3 3.00328 3.00328 0 0 1 -3 3zm8 0a3 3 0 1 1 3-3 3.00328 3.00328 0 0 1 -3 3zm18 2h-4a1 1 0 0 1 0-2h4a1 1 0 0 1 0 2zm8 0h-4a1 1 0 0 1 0-2h4a1 1 0 0 1 0 2zm8 0h-4a1 1 0 0 1 0-2h4a1 1 0 0 1 0 2z"></path><circle cx="12" cy="13" r="1"></circle><circle cx="20" cy="13" r="1"></circle><circle cx="12" cy="32" r="1"></circle><circle cx="20" cy="32" r="1"></circle><circle cx="20" cy="51" r="1"></circle><circle cx="12" cy="51" r="1"></circle></g></svg>