<!-- icon666.com - MILLIONS OF FREE VECTOR ICONS --><svg viewBox="0 0 64 64" xmlns="http://www.w3.org/2000/svg"><g id="Fill_1" data-name="Fill 1"><path d="m35.4189 6.484 5.2111 16.3392h15.7681a3.5949 3.5949 0 0 1 2.228 6.416l-12.662 10 5.2114 16.039a3.5948 3.5948 0 0 1 -5.5319 4.0191l-13.6436-9.9128-13.6436 9.9126a3.5948 3.5948 0 0 1 -5.5319-4.0191l5.2114-16.039-12.662-10a3.5949 3.5949 0 0 1 2.228-6.416h15.7681l5.2111-16.339a3.5948 3.5948 0 0 1 6.8378 0z" fill="#ffe145"></path></g><g id="Effect_Line" data-name="Effect Line"><path d="m26.293 27.8232h-5.293a1 1 0 0 1 0-2h4.5625l1.4844-4.6562a1 1 0 0 1 1.9062.6074l-1.707 5.3526a1.001 1.001 0 0 1 -.9531.6962z" fill="#fcf4bb"></path><path d="m46.9863 56.3286a1.0012 1.0012 0 0 1 -.9511-.6914l-3.3565-10.3281a1 1 0 0 1 1.9024-.6182l3.3564 10.3281a1.0015 1.0015 0 0 1 -.9512 1.31z" fill="#bfa934"></path><path d="m20.001 54.1582a1 1 0 0 1 -.5889-1.8091l9-6.5381a1 1 0 0 1 1.1758 1.6182l-9 6.5381a.9975.9975 0 0 1 -.5869.1909z" fill="#bfa934"></path><circle cx="29" cy="18" fill="#fcf4bb" r="1"></circle></g><g id="Line"><path d="m3.2617 24.9106a4.5413 4.5413 0 0 0 1.4922 5.1133l12.1161 9.5679-4.997 15.377a4.5953 4.5953 0 0 0 7.0713 5.1376l13.0557-9.4858 13.0557 9.4858a4.5264 4.5264 0 0 0 5.4023 0 4.5262 4.5262 0 0 0 1.669-5.1372l-4.997-15.3774 12.1162-9.5679a4.5951 4.5951 0 0 0 -2.8477-8.2007h-15.0385l-4.9879-15.6432-.002-.0054a4.5953 4.5953 0 0 0 -8.7422.0054l-4.9879 15.6432h-15.0384a4.54 4.54 0 0 0 -4.3399 3.0874zm20.1083-1.0874a1.0009 1.0009 0 0 0 .9531-.6962l5.209-16.334a2.5948 2.5948 0 0 1 4.9346-.003l5.21 16.337a1.0009 1.0009 0 0 0 .9531.6962h15.7686a2.5946 2.5946 0 0 1 1.6075 4.6314l-12.6621 9.9995a1.0009 1.0009 0 0 0 -.3311 1.0938l5.2119 16.039a2.5949 2.5949 0 0 1 -3.9932 2.9014l-13.6435-9.9131a1.0007 1.0007 0 0 0 -1.1758 0l-13.6435 9.9131a2.5949 2.5949 0 0 1 -3.9932-2.9014l5.2119-16.039a1.0011 1.0011 0 0 0 -.331-1.0938l-12.6622-9.9995a2.5946 2.5946 0 0 1 1.6075-4.6314z"></path></g></svg>