<svg width="611" height="611" viewBox="0 0 611 611" fill="none" xmlns="http://www.w3.org/2000/svg">
<g clip-path="url(#clip0_1051_106)">
<path d="M579.135 218.207L551.799 212.146L547.038 207.181C559.774 182.877 569.008 156.645 566.701 134.063C566.309 130.199 563.057 127.257 559.176 127.257C516.893 127.195 477.241 147.227 451.423 164.04C449.436 165.332 447.508 166.625 445.623 167.911L377.027 152.7C364.515 149.926 351.673 152.192 340.867 159.078L337.28 161.363L334.991 157.771C328.109 146.966 317.428 139.484 304.92 136.711L157.592 104.041C156.135 103.718 154.609 103.836 153.217 104.375L121.406 116.707L94.0662 110.644C89.9818 109.738 85.9375 112.315 85.0318 116.399L9.82535 455.551C8.91964 459.636 11.4958 463.68 15.5802 464.586L235.931 513.448L235.384 515.915C234.478 520 237.054 524.044 241.138 524.95L270.717 531.509C274.801 532.414 278.845 529.838 279.751 525.754L280.298 523.286L500.649 572.149C504.733 573.055 508.778 570.478 509.683 566.394L584.891 227.238C585.795 223.157 583.219 219.113 579.135 218.207ZM90.9172 419.226L230.408 450.158C241.292 452.571 250.272 460.504 254.136 470.936L72.8485 430.735L90.9172 419.226ZM281.77 477.063C289.682 469.243 301.177 465.851 312.057 468.263L451.548 499.195L463.057 517.264L281.77 477.063ZM539.324 221.019L539.645 221.358L475.833 509.126L464.323 491.057L516.617 255.235C523.917 245.282 531.904 233.589 539.324 221.019ZM551.91 142.611C550.983 193.759 489.172 266.246 480.811 275.819L443.713 294.348C441.162 295.623 439.546 298.217 439.523 301.065C439.5 303.913 441.076 306.531 443.601 307.847L452.261 312.348L409.651 349.04L363.818 356.094C395.942 302.692 444.81 234.746 511.478 177.329C514.648 174.599 515.004 169.817 512.274 166.647C509.548 163.477 504.762 163.12 501.595 165.851C436.234 222.141 387.665 288.249 354.902 341.613L350.765 286.993L383.246 241.812L388.491 250.045C390.023 252.446 392.77 253.787 395.603 253.515C398.437 253.243 400.877 251.404 401.925 248.755L417.089 210.302C425.727 201.951 485.59 146.405 551.91 142.611ZM373.748 167.49L429.324 179.814C414.588 191.286 405.757 200.183 405.237 200.708C404.524 201.434 403.96 202.297 403.586 203.246L393.283 229.374L390.012 224.239C388.662 222.119 386.351 220.811 383.835 220.737C381.325 220.669 378.943 221.849 377.474 223.888L363.826 242.872L353.339 240.546C349.254 239.64 345.21 242.216 344.304 246.301C343.399 250.381 345.975 254.429 350.059 255.335L354.208 256.255L336.857 280.392C335.815 281.841 335.319 283.608 335.453 285.386L338.064 319.91L335.849 319.419C331.764 318.513 327.72 321.09 326.814 325.174C325.909 329.255 328.485 333.303 332.569 334.208L339.258 335.692L341.248 361.992L327.104 358.856C323.019 357.95 318.975 360.526 318.069 364.611C317.163 368.695 319.74 372.739 323.824 373.645L334.815 376.082C330.214 384.416 326.118 392.171 322.523 399.216L318.359 398.292C314.274 397.387 310.23 399.963 309.324 404.047C308.418 408.131 310.995 412.176 315.079 413.081L324.991 415.279L325.014 415.284L433.389 439.316C437.469 440.221 441.514 437.645 442.419 433.561C443.325 429.476 440.749 425.432 436.668 424.527L337.812 402.606C341.474 395.528 345.615 387.788 350.241 379.503L442.134 399.88C446.218 400.786 450.262 398.209 451.168 394.125C452.074 390.041 449.498 385.996 445.413 385.091L375.601 369.61L414.098 363.683C415.502 363.47 416.812 362.864 417.89 361.939L426.025 354.932L450.879 360.443C454.963 361.349 459.007 358.773 459.913 354.688C460.819 350.604 458.243 346.56 454.158 345.654L440.353 342.593L470.623 316.532C472.528 314.89 473.493 312.411 473.202 309.918C472.915 307.421 471.405 305.23 469.173 304.071L463.774 301.261L488.899 288.712C489.75 288.288 490.51 287.708 491.147 287.001C491.53 286.574 492.919 285.018 495.053 282.526L450.498 483.45L315.336 453.478C302.61 450.656 289.49 453.128 278.795 460.095L341.676 176.522L349.005 171.854C356.4 167.14 365.19 165.592 373.748 167.49ZM322.216 165.909L326.887 173.243L264.006 456.812C257.262 445.978 246.412 438.194 233.686 435.372L98.5243 405.4L161.707 120.47L301.64 151.5C310.198 153.398 317.505 158.515 322.216 165.909ZM128.522 130.192L145.498 123.613L82.7791 406.45L64.7104 417.96L128.522 130.192ZM98.1821 127.069L112.971 130.349L45.9627 432.532C45.0697 436.559 47.6827 440.671 51.7175 441.566L242.49 483.87L239.21 498.659L26.2543 451.436L98.1821 127.069ZM266.603 515.076L251.813 511.796L257.279 487.149L272.068 490.429L266.603 515.076ZM496.534 555.72L283.578 508.497L286.857 493.708L477.629 536.011C481.664 536.906 485.771 534.284 486.664 530.257L553.672 228.074L568.462 231.353L496.534 555.72Z" fill="#031B42" fill-opacity="0.4"/>
<path d="M196.623 179.931L274.508 197.202C278.593 198.108 282.637 195.532 283.543 191.447C284.448 187.363 281.872 183.319 277.788 182.413L199.902 165.142C195.818 164.236 191.774 166.813 190.868 170.897C189.962 174.981 192.539 179.026 196.623 179.931Z" fill="#031B42" fill-opacity="0.4"/>
<path d="M167.666 214.886L285.976 241.121C290.06 242.027 294.104 239.45 295.01 235.366C295.915 231.286 293.339 227.237 289.255 226.332L170.945 200.097C166.861 199.191 162.816 201.771 161.911 205.852C161.005 209.936 163.582 213.98 167.666 214.886Z" fill="#031B42" fill-opacity="0.4"/>
<path d="M158.921 254.322L277.23 280.557C281.315 281.463 285.359 278.887 286.265 274.803C287.171 270.718 284.594 266.674 280.51 265.768L162.2 239.533C158.116 238.628 154.072 241.204 153.166 245.288C152.26 249.373 154.836 253.417 158.921 254.322Z" fill="#031B42" fill-opacity="0.4"/>
<path d="M150.176 293.759L268.485 319.994C272.57 320.9 276.614 318.324 277.52 314.239C278.425 310.155 275.849 306.111 271.765 305.205L153.455 278.97C149.371 278.064 145.327 280.64 144.421 284.725C143.515 288.809 146.091 292.853 150.176 293.759Z" fill="#031B42" fill-opacity="0.4"/>
<path d="M141.431 333.196L259.74 359.431C263.825 360.336 267.869 357.76 268.775 353.676C269.68 349.591 267.104 345.547 263.02 344.641L144.71 318.406C140.626 317.501 136.581 320.077 135.676 324.161C134.77 328.246 137.346 332.29 141.431 333.196Z" fill="#031B42" fill-opacity="0.4"/>
<path d="M254.275 384.078L135.965 357.843C131.881 356.937 127.836 359.514 126.931 363.598C126.025 367.682 128.601 371.727 132.685 372.632L250.995 398.867C255.08 399.773 259.124 397.197 260.029 393.112C260.935 389.028 258.359 384.984 254.275 384.078Z" fill="#031B42" fill-opacity="0.4"/>
</g>
<defs>
<clipPath id="clip0_1051_106">
<rect width="512" height="512" fill="white" transform="translate(110.843) rotate(12.5029)"/>
</clipPath>
</defs>
</svg>
