<svg width="32" height="32" viewBox="0 0 32 32" fill="none" xmlns="http://www.w3.org/2000/svg">
<g clip-path="url(#clip0_840_51)">
<path d="M26 32H6C2.686 32 0 29.314 0 26V6C0 2.686 2.686 0 6 0H26C29.314 0 32 2.686 32 6V26C32 29.314 29.314 32 26 32Z" fill="#67C3F0"/>
<path d="M14.2781 18.121L14.0141 21.844C14.3931 21.844 14.5561 21.681 14.7531 21.486L16.5281 19.789L20.2071 22.483C20.8811 22.859 21.3571 22.661 21.5391 21.862L23.9541 10.548L23.9551 10.547C24.1691 9.55002 23.5951 9.16002 22.9371 9.40502L8.74308 14.838C7.77508 15.214 7.78908 15.754 8.57808 15.999L12.2061 17.128L20.6351 11.854C21.0321 11.591 21.3921 11.737 21.0961 11.999L14.2781 18.121Z" fill="#0270A5"/>
</g>
<defs>
<clipPath id="clip0_840_51">
<rect width="32" height="32" fill="white"/>
</clipPath>
</defs>
</svg>
