<svg width="32" height="32" viewBox="0 0 32 32" fill="none" xmlns="http://www.w3.org/2000/svg">
<g clip-path="url(#clip0_839_27)">
<path d="M26 32H6C2.686 32 0 29.314 0 26V6C0 2.686 2.686 0 6 0H26C29.314 0 32 2.686 32 6V26C32 29.314 29.314 32 26 32Z" fill="#BCE9FF"/>
<path d="M14.2776 18.121L14.0136 21.844C14.3926 21.844 14.5556 21.681 14.7526 21.486L16.5276 19.789L20.2066 22.483C20.8806 22.859 21.3566 22.661 21.5386 21.862L23.9536 10.548L23.9546 10.547C24.1686 9.55002 23.5946 9.16002 22.9366 9.40502L8.74259 14.838C7.77459 15.214 7.78859 15.754 8.57759 15.999L12.2056 17.128L20.6346 11.854C21.0316 11.591 21.3916 11.737 21.0956 11.999L14.2776 18.121Z" fill="#039BE5"/>
</g>
<defs>
<clipPath id="clip0_839_27">
<rect width="32" height="32" fill="white"/>
</clipPath>
</defs>
</svg>
