<svg width="29" height="29" viewBox="0 0 29 29" fill="none" xmlns="http://www.w3.org/2000/svg">
<g clip-path="url(#clip0_546_35)">
<path d="M14.358 28.8581C22.2878 28.8581 28.7161 22.4297 28.7161 14.5C28.7161 6.57028 22.2878 0.141968 14.358 0.141968C6.42832 0.141968 0 6.57028 0 14.5C0 22.4297 6.42832 28.8581 14.358 28.8581Z" fill="#3DB39E"/>
<path d="M28.0111 10.0554C27.6045 8.80539 27.0325 7.63089 26.3189 6.55774L13.7507 19.6482L13.776 21.105L14.3693 21.1013L28.0111 10.0554Z" fill="#37A18E"/>
<path d="M28.7379 5.79392L26.1776 3.26432C25.8281 2.91889 25.2612 2.91889 24.9118 3.26432L13.9672 14.5377L9.24746 9.87419C8.89743 9.52875 8.33113 9.52875 7.98138 9.87419L5.71196 12.1166C5.36249 12.4618 5.36249 13.0217 5.71196 13.3669L13.287 20.8506C13.4888 21.0501 13.7625 21.1306 14.0256 21.0995C14.2886 21.1303 14.5622 21.0501 14.7641 20.8506L28.738 7.04447C29.0874 6.69904 29.0874 6.13936 28.7379 5.79392Z" fill="#F8F8F8"/>
<path d="M14.7641 20.8505L28.7379 7.04443C29.0874 6.69899 29.0874 6.13931 28.7379 5.79382L28.3201 5.38086L13.9457 19.5193L6.02927 11.8027L5.71227 12.1162C5.3628 12.4614 5.3628 13.0214 5.71227 13.3665L13.2869 20.8505C13.4888 21.0501 13.7625 21.1305 14.0255 21.0995C14.2886 21.1305 14.5622 21.0504 14.7641 20.8505Z" fill="#EBEBEB"/>
</g>
<defs>
<clipPath id="clip0_546_35">
<rect width="29" height="29" fill="white"/>
</clipPath>
</defs>
</svg>
