<svg width="695" height="695" viewBox="0 0 695 695" fill="none" xmlns="http://www.w3.org/2000/svg">
<g clip-path="url(#clip0_1034_39)">
<path d="M586.538 305.687L545.159 166.181C544.505 163.98 543.006 162.129 540.987 161.034L306.894 34.0428C302.693 31.7635 297.437 33.3223 295.158 37.5238L59.2728 472.351C56.9935 476.552 58.5523 481.807 62.7539 484.087L387.289 660.141C391.491 662.42 396.746 660.861 399.025 656.66L585.847 312.276C586.943 310.258 587.191 307.888 586.538 305.687ZM387.936 640.796L78.6183 472.998L306.249 53.3879L529.581 174.542L568.922 307.172L387.936 640.796Z" fill="#163B77" fill-opacity="0.45"/>
<path d="M586.538 305.687L545.159 166.181C544.163 162.824 541.242 160.399 537.761 160.033C534.279 159.669 530.921 161.438 529.251 164.515L480.188 254.958C477.908 259.159 479.467 264.415 483.669 266.694L574.111 315.757C577.187 317.426 580.968 317.076 583.688 314.873C586.407 312.669 587.534 309.043 586.538 305.687ZM499.533 255.603L534.503 191.14L563.997 290.575L499.533 255.603Z" fill="#163B77" fill-opacity="0.45"/>
<path d="M582.367 300.54L491.924 251.476C488.596 249.671 484.483 250.237 481.767 252.874C479.051 255.511 478.364 259.607 480.071 262.985L536.504 374.74C537.314 376.344 538.582 377.622 540.105 378.448C541.312 379.102 542.679 379.473 544.104 379.494C547.323 379.542 550.303 377.798 551.839 374.967L585.848 312.276C588.128 308.074 586.569 302.819 582.367 300.54ZM544.505 352.179L508.001 279.894L566.502 311.63L544.505 352.179Z" fill="#163B77" fill-opacity="0.45"/>
<path d="M342.169 253.738C340.131 249.416 334.974 247.56 330.652 249.596L330.013 249.897C325.698 251.946 323.857 257.102 325.902 261.419C326.72 263.145 328.032 264.475 329.593 265.322C331.933 266.592 334.826 266.768 337.419 265.545L338.031 265.256C342.354 263.218 344.206 258.061 342.169 253.738Z" fill="#163B77" fill-opacity="0.45"/>
<path d="M386.234 234.454C384.444 231.782 381.322 230.322 378.124 230.663C375.558 230.937 373.074 231.362 370.735 231.928C362.472 233.932 357.431 230.977 356.705 230.51C356.254 230.136 355.986 230.008 355.438 229.727C354.426 229.182 351.051 225.44 347.573 217.398C347.017 216.109 346.411 214.83 345.768 213.597C344.291 210.757 341.365 208.966 338.165 208.937C334.964 208.91 332.008 210.652 330.483 213.465L325.165 223.267C323.744 225.887 323.787 229.018 325.193 231.569L338.061 256.013C338.096 256.077 338.166 256.204 338.201 256.268C339.01 257.712 340.198 258.86 341.603 259.622C342.179 259.934 342.79 260.181 343.425 260.358C344.307 260.611 345.239 260.727 346.194 260.686C346.343 260.68 346.49 260.67 346.637 260.656L374.081 258.123C377.019 257.926 379.682 256.238 381.106 253.614L386.648 243.398C388.184 240.571 388.024 237.127 386.234 234.454Z" fill="#163B77" fill-opacity="0.45"/>
<path d="M354.389 252.708C354.461 251.783 354.384 250.839 354.146 249.909C353.858 248.775 353.338 247.695 352.598 246.74C352.188 246.212 351.725 245.74 351.218 245.328C349.876 244.237 348.257 243.589 346.582 243.428C345.483 243.322 344.353 243.424 343.251 243.759C342.85 243.881 342.454 244.032 342.067 244.215L330.647 249.598C326.322 251.635 324.469 256.794 326.508 261.118C327.324 262.851 328.641 264.186 330.205 265.034C330.439 265.161 330.678 265.277 330.924 265.381C332.876 266.218 335.127 266.338 337.241 265.582C337.247 265.58 337.254 265.577 337.26 265.575L337.262 265.575C337.269 265.573 337.278 265.569 337.284 265.567C337.287 265.566 337.291 265.565 337.291 265.565C337.295 265.564 337.3 265.561 337.305 265.56C337.534 265.476 337.761 265.382 337.986 265.278C337.99 265.276 337.992 265.275 337.996 265.273C337.999 265.271 338.002 265.27 338.004 265.268C338.011 265.265 338.02 265.261 338.027 265.257L349.446 259.876C349.45 259.875 349.453 259.874 349.457 259.872L349.461 259.87C349.463 259.869 349.465 259.869 349.466 259.867C349.469 259.867 349.472 259.865 349.472 259.865L349.476 259.863C351.204 259.04 352.537 257.715 353.38 256.146C353.966 255.058 354.298 253.886 354.389 252.708Z" fill="#163B77" fill-opacity="0.45"/>
<path d="M444.546 185.036C446.397 180.267 447.561 171.369 442.957 163.285C443.753 161.536 444.322 159.491 444.384 157.167C444.485 153.464 443.272 147.949 436.922 142.718C436.494 142.365 436.033 142.055 435.546 141.791L397.198 120.988C379.007 111.12 356.179 117.891 346.311 136.082L338.148 151.129C335.436 156.128 334.497 161.934 335.504 167.479C335.867 169.474 335.517 171.619 334.464 173.853C332.467 178.091 334.203 183.154 338.384 185.265C342.564 187.382 347.67 185.788 349.904 181.67L360.211 162.669C363.672 159.178 367.35 159.627 368.751 159.974L380.636 166.421C382.585 167.479 384.67 168.223 386.835 168.633C389.132 169.067 392.776 169.621 397.667 170.281C398.604 170.406 399.469 170.864 400.103 171.563L410.822 183.394C413.686 186.679 413.169 189.992 412.837 191.211L400.32 214.284C398.163 218.261 399.44 223.216 403.239 225.671C403.428 225.793 403.62 225.907 403.814 226.013C407.537 228.032 412.234 227.053 414.835 223.63C414.88 223.571 419.409 217.667 425.263 214.345C428.537 212.486 431.205 209.778 432.977 206.512L444.087 186.031C444.261 185.709 444.415 185.376 444.546 185.036ZM428.256 178.903C427.232 176.549 425.779 174.186 423.781 171.917C423.754 171.886 423.726 171.855 423.698 171.824L412.932 159.94C411.306 158.146 409.396 156.654 407.295 155.515C405.037 154.29 402.559 153.472 399.978 153.123C395.452 152.512 392.018 151.993 390.05 151.621C389.652 151.545 389.262 151.405 388.887 151.202L376.252 144.348C375.925 144.17 375.586 144.014 375.239 143.879C372.254 142.727 367.598 141.92 362.466 142.774C368.189 134.16 379.681 131.179 388.942 136.203L426.452 156.552C426.507 156.603 426.558 156.652 426.604 156.699C424.553 158.164 423.43 160.35 423.226 162.899C423.011 165.586 424.278 168.067 426.281 169.872C429.645 172.903 428.922 176.956 428.497 178.459L428.256 178.903Z" fill="#163B77" fill-opacity="0.45"/>
<path d="M428.815 197.954C430.924 192.804 432.238 181.526 423.781 171.917C423.754 171.886 423.726 171.855 423.698 171.824L412.932 159.94C409.557 156.216 404.956 153.795 399.981 153.125C395.455 152.514 392.021 151.994 390.053 151.623C389.655 151.547 389.264 151.407 388.89 151.204L376.254 144.349C375.927 144.172 375.589 144.016 375.242 143.881C369.221 141.559 356.409 140.636 346.588 151.91C346.172 152.388 345.809 152.911 345.506 153.468L332.182 178.03C332.152 178.086 332.122 178.143 332.092 178.199C331.596 179.165 320.043 202.08 330.3 221.359L330.266 221.296L330.414 221.588C330.861 222.448 331.284 223.339 331.679 224.254C336.222 234.762 341.364 241.677 346.971 244.824C347.434 245.136 348.088 245.546 348.923 245.999C353.216 248.328 362.293 251.79 374.812 248.753C376.414 248.366 378.143 248.071 379.977 247.876L380.479 247.818C387.773 247.127 401.977 243.01 415.136 223.202C415.278 222.988 415.413 222.766 415.536 222.54L428.413 198.801C428.563 198.526 428.697 198.243 428.815 197.954ZM400.508 213.935C391.06 227.996 382.224 230.262 378.836 230.583C378.649 230.601 378.462 230.623 378.274 230.645L378.126 230.662C375.56 230.936 373.075 231.36 370.736 231.927C362.474 233.93 357.433 230.976 356.707 230.508C356.257 230.137 355.988 230.007 355.441 229.725C354.429 229.18 351.053 225.438 347.575 217.396C347.021 216.107 346.414 214.829 345.788 213.625C345.712 213.472 345.636 213.319 345.57 213.197C339.779 202.312 346.992 187.135 347.466 186.164L360.211 162.669C363.672 159.178 367.35 159.627 368.751 159.974L380.636 166.421C382.585 167.479 384.67 168.223 386.835 168.633C389.132 169.067 392.776 169.621 397.667 170.282C398.604 170.406 399.469 170.864 400.103 171.563L410.822 183.394C413.686 186.679 413.169 189.993 412.837 191.211L400.509 213.935L400.508 213.935Z" fill="#163B77" fill-opacity="0.45"/>
<path d="M352.009 246.059C349.437 243.371 345.433 242.63 342.067 244.216L330.17 249.823C325.848 251.858 323.99 257.011 326.023 261.335C326.838 263.072 328.156 264.411 329.724 265.261C332.058 266.527 334.944 266.707 337.534 265.492L349.415 259.919C351.125 259.117 352.544 257.744 353.421 256.072C355.151 252.776 354.581 248.744 352.009 246.059Z" fill="#163B77" fill-opacity="0.45"/>
<path d="M352.214 246.177C349.712 243.454 345.748 242.625 342.36 244.108C338.575 245.765 336.495 249.868 337.386 253.904C337.943 256.426 339.567 258.481 341.716 259.647C343.006 260.347 344.486 260.726 346.037 260.692C349.144 260.623 351.974 258.896 353.455 256.165L353.459 256.158C355.221 252.907 354.716 248.899 352.214 246.177Z" fill="#163B77" fill-opacity="0.45"/>
<path d="M354.379 250.955L354.373 250.909C353.901 247.18 351.062 244.205 347.37 243.511C343.676 242.818 339.943 244.612 338.151 247.916C336.639 250.704 336.786 254.093 338.513 256.755C339.313 257.986 340.396 258.968 341.644 259.645C343.091 260.431 344.761 260.803 346.459 260.672C348.821 260.489 351.004 259.345 352.501 257.51C353.998 255.673 354.675 253.305 354.379 250.955Z" fill="#163B77" fill-opacity="0.45"/>
<path d="M390.902 260.521C391.243 258.009 390.467 255.474 388.777 253.586L380.052 243.828C378.256 241.749 375.536 240.604 372.703 240.865L345.047 243.418L345.045 243.418C344.944 243.426 344.835 243.439 344.743 243.449C342.434 243.721 340.333 244.91 338.912 246.749C337.49 248.587 336.866 250.919 337.182 253.221L341.063 281.525C341.438 284.265 343.099 286.649 345.51 287.957C345.675 288.046 345.845 288.131 346.017 288.211C348.701 289.448 351.83 289.23 354.317 287.633L387.002 266.64C389.135 265.268 390.559 263.033 390.902 260.521ZM356.372 265.737L355.563 259.833L367.241 258.756L356.372 265.737Z" fill="#163B77" fill-opacity="0.45"/>
<path d="M353.985 254.656C354.695 252.436 354.466 249.997 353.378 247.939L340.439 223.362C339.107 220.833 336.664 219.197 333.971 218.82L321.011 216.822C318.505 216.436 315.957 217.168 314.038 218.823C312.119 220.479 311.021 222.892 311.036 225.428L311.262 264.274C311.279 267.229 312.803 269.971 315.303 271.547C315.462 271.648 315.626 271.743 315.791 271.832C318.202 273.14 321.107 273.233 323.611 272.054L337.417 265.546L337.42 265.545L349.451 259.874C351.622 258.852 353.253 256.942 353.985 254.656ZM330.038 249.883L330.034 249.885L328.494 250.611L328.419 237.694L333.883 248.071L330.038 249.883Z" fill="#163B77" fill-opacity="0.45"/>
<path d="M414.559 337.656L422.946 313.399C426.229 303.91 424.124 293.354 417.452 285.848L388.795 253.605C385.618 250.03 380.147 249.709 376.574 252.885C373.001 256.062 372.678 261.533 375.855 265.106L404.512 297.35C407.028 300.181 407.824 304.162 406.585 307.742L398.236 331.982L250.143 251.681L265.903 231.423C268.228 228.434 271.999 226.928 275.744 227.494L318.399 233.936C323.127 234.65 327.537 231.395 328.251 226.67C328.965 221.942 325.708 217.531 320.984 216.818L278.331 210.376C268.403 208.876 258.406 212.867 252.24 220.792L236.48 241.05C233.357 245.065 232.162 250.223 233.204 255.202C234.246 260.181 237.409 264.429 241.881 266.855L389.982 347.197C394.454 349.623 399.737 349.959 404.479 348.118C409.222 346.277 412.895 342.464 414.559 337.656Z" fill="#163B77" fill-opacity="0.45"/>
<path d="M461.915 427.71L216.904 294.796C212.702 292.517 207.447 294.076 205.168 298.278C202.889 302.479 204.447 307.734 208.649 310.014L453.66 442.927C457.862 445.207 463.117 443.648 465.396 439.446C467.675 435.245 466.117 429.99 461.915 427.71Z" fill="#163B77" fill-opacity="0.45"/>
<path d="M441.618 465.125L196.607 332.211C192.405 329.932 187.15 331.491 184.871 335.693C182.592 339.894 184.15 345.149 188.352 347.429L433.363 480.343C437.565 482.622 442.82 481.063 445.099 476.861C447.378 472.66 445.82 467.405 441.618 465.125Z" fill="#163B77" fill-opacity="0.45"/>
<path d="M421.321 502.541L176.31 369.627C172.108 367.347 166.853 368.906 164.574 373.108C162.295 377.309 163.853 382.565 168.055 384.844L413.066 517.758C417.268 520.037 422.523 518.478 424.802 514.277C427.081 510.075 425.523 504.82 421.321 502.541Z" fill="#163B77" fill-opacity="0.45"/>
<path d="M401.02 539.964L156.008 407.05C151.807 404.771 146.552 406.329 144.272 410.531C141.993 414.733 143.552 419.988 147.753 422.267L392.765 555.181C396.966 557.46 402.221 555.901 404.501 551.7C406.78 547.498 405.222 542.244 401.02 539.964Z" fill="#163B77" fill-opacity="0.45"/>
<path d="M335.731 552.972L135.711 444.465C131.51 442.186 126.255 443.744 123.975 447.946C121.696 452.148 123.255 457.403 127.456 459.682L327.475 568.189C331.677 570.468 336.933 568.91 339.212 564.708C341.492 560.506 339.933 555.251 335.731 552.972Z" fill="#163B77" fill-opacity="0.45"/>
</g>
<defs>
<clipPath id="clip0_1034_39">
<rect width="512" height="512" fill="white" transform="translate(244.14) rotate(28.479)"/>
</clipPath>
</defs>
</svg>
