<svg width="494" height="484" viewBox="0 0 494 484" fill="none" xmlns="http://www.w3.org/2000/svg">
<g clip-path="url(#clip0_1034_7)">
<path d="M324.769 125.309C328.542 123.666 330.341 119.439 328.786 115.87L298.167 45.5811C293.51 34.8895 280.525 30.197 269.222 35.1207L20.5036 143.466C9.20063 148.39 3.79401 161.094 8.45143 171.786L135.713 463.927C140.37 474.619 153.355 479.312 164.658 474.388L413.376 366.042C424.679 361.119 430.086 348.414 425.429 337.723L404.686 290.106C403.131 286.537 398.811 284.976 395.038 286.62C391.265 288.263 389.465 292.49 391.02 296.059L411.763 343.676C413.315 347.24 411.513 351.475 407.745 353.116L159.027 461.461C155.259 463.102 150.931 461.538 149.379 457.974L22.1173 165.833C20.5648 162.269 22.367 158.034 26.1347 156.393L274.853 48.0474C278.621 46.4061 282.949 47.9703 284.501 51.5341L315.12 121.823C316.675 125.392 320.995 126.953 324.769 125.309Z" fill="#163B77" fill-opacity="0.45"/>
<path d="M160.066 124.196C125.404 139.295 108.824 178.254 123.106 211.042C130.516 228.052 144.799 240.107 161.668 245.665C161.996 245.796 162.333 245.908 162.684 245.991C178.087 250.8 195.551 250.23 211.871 243.12C228.191 236.011 240.502 223.611 247.471 209.057C247.649 208.743 247.795 208.42 247.923 208.091C255.342 191.952 256.242 173.284 248.832 156.274C234.549 123.486 194.729 109.096 160.066 124.196ZM206.241 230.194C195.083 235.054 183.246 236.003 172.394 233.659C174.012 220.97 182.474 209.788 194.979 204.341C207.484 198.893 221.435 200.311 231.828 207.768C226.154 217.311 217.398 225.334 206.241 230.194ZM173.91 185.835L172.08 181.634C169.596 175.932 172.48 169.156 178.508 166.53C184.536 163.904 191.462 166.407 193.946 172.109L195.776 176.31C198.26 182.012 195.376 188.788 189.348 191.414C183.32 194.04 176.394 191.537 173.91 185.835ZM237.577 193.999C229.458 189.125 220.079 186.669 210.491 186.807C211.996 181.471 211.771 175.705 209.442 170.357L207.611 166.156C202.022 153.326 186.441 147.695 172.877 153.604C159.313 159.512 152.825 174.757 158.414 187.587L160.245 191.788C162.574 197.136 166.643 201.227 171.575 203.759C164.945 210.686 160.356 219.227 158.397 228.491C148.999 223.394 141.268 215.409 136.772 205.089C125.594 179.429 138.57 148.939 165.698 137.122C192.825 125.305 223.988 136.567 235.166 162.227C239.662 172.547 240.244 183.646 237.577 193.999Z" fill="#163B77" fill-opacity="0.45"/>
<path d="M305.08 356.314L268.182 372.387C264.409 374.03 262.61 378.257 264.165 381.827C265.72 385.396 270.04 386.957 273.813 385.313L310.711 369.24C314.484 367.597 316.284 363.37 314.729 359.8C313.174 356.231 308.853 354.67 305.08 356.314Z" fill="#163B77" fill-opacity="0.45"/>
<path d="M289.313 320.119L192.286 362.386C188.513 364.029 186.713 368.256 188.268 371.825C189.823 375.395 194.144 376.956 197.917 375.312L294.944 333.046C298.717 331.402 300.517 327.175 298.962 323.606C297.407 320.036 293.086 318.475 289.313 320.119Z" fill="#163B77" fill-opacity="0.45"/>
<path d="M273.546 283.924L176.519 326.191C172.746 327.835 170.946 332.061 172.501 335.631C174.056 339.2 178.377 340.761 182.15 339.118L279.177 296.851C282.95 295.207 284.75 290.981 283.195 287.411C281.64 283.841 277.319 282.281 273.546 283.924Z" fill="#163B77" fill-opacity="0.45"/>
<path d="M137.224 302.499C135.43 301.85 133.366 301.926 131.562 302.712C129.764 303.495 128.302 304.955 127.556 306.71C126.809 308.466 126.804 310.452 127.544 312.152C128.285 313.852 129.742 315.201 131.537 315.849C133.338 316.495 135.395 316.422 137.193 315.639C138.997 314.853 140.451 313.396 141.205 311.638C141.952 309.882 141.957 307.896 141.217 306.196C140.477 304.496 139.019 303.147 137.224 302.499Z" fill="#163B77" fill-opacity="0.45"/>
<path d="M152.991 338.693C151.19 338.048 149.133 338.121 147.329 338.907C145.531 339.69 144.077 341.146 143.323 342.905C142.575 344.661 142.571 346.647 143.311 348.347C144.052 350.046 145.509 351.396 147.304 352.044C149.105 352.69 151.162 352.617 152.96 351.833C154.764 351.048 156.218 349.591 156.972 347.833C157.719 346.077 157.724 344.09 156.984 342.391C156.243 340.691 154.786 339.342 152.991 338.693Z" fill="#163B77" fill-opacity="0.45"/>
<path d="M168.757 374.888C166.957 374.242 164.899 374.316 163.095 375.101C161.298 375.884 159.844 377.341 159.09 379.1C158.342 380.855 158.338 382.841 159.078 384.541C159.819 386.241 161.275 387.59 163.071 388.239C164.865 388.887 166.929 388.811 168.727 388.028C170.53 387.242 171.992 385.783 172.739 384.027C173.486 382.271 173.491 380.285 172.751 378.585C172.01 376.885 170.553 375.536 168.757 374.888Z" fill="#163B77" fill-opacity="0.45"/>
<path d="M257.779 247.73L160.752 289.996C156.979 291.64 155.18 295.867 156.735 299.436C158.29 303.006 162.61 304.567 166.383 302.923L263.41 260.656C267.184 259.013 268.983 254.786 267.428 251.217C265.873 247.647 261.553 246.086 257.779 247.73Z" fill="#163B77" fill-opacity="0.45"/>
<path d="M372.19 90.48C363.972 89.7464 355.819 92.1522 349.231 97.2545C342.644 102.357 338.412 109.545 337.315 117.493L312.696 295.827C312.562 296.804 312.637 297.79 312.919 298.722L329.205 352.641C330.016 355.324 332.42 357.226 335.33 357.486C336.644 357.603 337.947 357.376 339.123 356.864C340.553 356.241 341.792 355.198 342.628 353.84L373.223 304.106C373.751 303.246 374.094 302.298 374.229 301.32L398.847 122.987C401.113 106.577 389.154 91.9948 372.19 90.48ZM338.748 332.722L330.244 304.567L354.725 306.752L338.748 332.722ZM360.556 292.926L328.325 290.049L348.081 146.941L380.312 149.818L360.556 292.926ZM384.196 121.679L382.268 135.647L350.037 132.77L351.966 118.801C352.54 114.638 354.757 110.873 358.207 108.2C361.658 105.527 365.929 104.267 370.233 104.652C374.537 105.036 378.36 107.019 380.997 110.235C383.635 113.451 384.771 117.515 384.196 121.679Z" fill="#163B77" fill-opacity="0.45"/>
</g>
<defs>
<clipPath id="clip0_1034_7">
<rect width="381.598" height="360.957" fill="white" transform="translate(0 152.398) rotate(-23.5387)"/>
</clipPath>
</defs>
</svg>
