<svg width="317" height="331" viewBox="0 0 317 331" fill="none" xmlns="http://www.w3.org/2000/svg">
<path d="M252.945 44.942L238.864 48.9725L235.342 47.5489C234.485 30.9199 231.508 14.1807 224.285 2.51973C223.051 0.52362 220.768 -0.20428 219.004 0.835733C199.771 12.1351 187.227 33.6552 180.091 49.7177C179.541 50.9527 179.018 52.1724 178.513 53.3773L143.179 63.4914C136.733 65.3364 131.516 70.0104 128.488 76.6512L127.483 78.8555L125.461 77.5154C119.378 73.4848 112.478 72.2791 106.035 74.1234L30.1442 95.8463C29.3938 96.0611 28.7322 96.5342 28.2471 97.2007L17.1617 112.432L3.07855 116.463C0.974622 117.066 -0.15898 119.55 0.546226 122.014L59.104 326.591C59.8092 329.055 62.0859 330.563 64.1899 329.961L177.696 297.471L178.122 298.959C178.827 301.423 181.104 302.932 183.208 302.33L198.444 297.968C200.548 297.366 201.681 294.881 200.976 292.418L200.55 290.929L314.056 258.44C316.16 257.837 317.294 255.353 316.588 252.889L258.03 48.3098C257.325 45.8484 255.049 44.3397 252.945 44.942ZM86.0259 285.104L157.88 264.536C163.486 262.931 169.736 264.838 174.345 269.475L80.9612 296.205L86.0259 285.104ZM188.58 265.4C190.037 259.028 194.334 254.102 199.938 252.497L271.792 231.93L281.964 238.67L188.58 265.4ZM235.62 57.1409L235.859 57.2394L285.545 230.821L275.373 224.081L234.656 81.8325C235.253 74.464 235.685 65.9653 235.62 57.1409ZM219.9 11.1319C233.465 39.1935 225.194 95.1758 224.012 102.622L212.218 122.641C211.407 124.018 211.382 125.862 212.15 127.417C212.918 128.971 214.351 129.973 215.858 130.011L221.025 130.138L211.693 161.511L192.791 177.63C192.789 139.982 196.419 89.9376 211.018 40.8476C211.712 38.5134 210.567 35.8174 208.459 34.8254C206.353 33.8327 204.081 34.9213 203.388 37.2549C189.075 85.3822 185.078 134.347 184.779 172.146L167.964 143.554L170.372 110.281L175.006 113.352C176.359 114.246 177.975 114.239 179.188 113.332C180.401 112.425 181.007 110.771 180.759 109.05L177.137 84.0756C178.779 77.2192 190.797 30.9709 219.9 11.1319ZM145.732 72.4123L174.36 64.2179C170.8 74.4058 169.219 81.6105 169.126 82.0353C169.001 82.6213 168.981 83.2418 169.07 83.8583L171.532 100.827L168.641 98.9116C167.448 98.1208 166.04 98.0285 164.876 98.6628C163.717 99.2983 162.957 100.579 162.847 102.081L161.835 116.062L156.433 117.608C154.329 118.21 153.195 120.695 153.901 123.159C154.605 125.62 156.883 127.131 158.986 126.529L161.124 125.917L159.838 143.692C159.761 144.76 160.018 145.853 160.565 146.784L171.193 164.858L170.051 165.184C167.947 165.787 166.814 168.271 167.519 170.735C168.223 173.196 170.501 174.707 172.605 174.105L176.05 173.119L184.146 186.887L176.86 188.973C174.756 189.575 173.623 192.06 174.328 194.523C175.033 196.987 177.31 198.496 179.414 197.893L185.075 196.273C185.263 202.038 185.522 207.352 185.815 212.147L183.669 212.761C181.565 213.363 180.432 215.848 181.137 218.311C181.842 220.775 184.119 222.284 186.223 221.682L191.328 220.22L191.34 220.217L247.166 204.237C249.268 203.636 250.402 201.151 249.696 198.687C248.991 196.223 246.714 194.715 244.612 195.316L193.69 209.892C193.419 205.062 193.185 199.743 193.022 193.998L240.357 180.449C242.461 179.847 243.594 177.362 242.889 174.898C242.184 172.435 239.907 170.926 237.803 171.528L201.842 181.822L217.717 168.28C218.297 167.788 218.727 167.108 218.964 166.316L220.745 160.325L233.548 156.661C235.652 156.059 236.785 153.574 236.08 151.11C235.375 148.646 233.098 147.138 230.994 147.74L223.883 149.776L230.514 127.491C230.931 126.088 230.692 124.481 229.877 123.204C229.065 121.923 227.779 121.136 226.448 121.104L223.226 121.023L231.213 107.465C231.484 107.007 231.671 106.488 231.767 105.933C231.824 105.598 232.03 104.379 232.318 102.452L267.01 223.65L197.386 243.579C190.83 245.455 185.544 250.316 182.588 256.971L133.626 85.92L135.68 81.417C137.752 76.8716 141.324 73.6741 145.732 72.4123ZM121.88 85.3649L126.008 88.1006L174.969 259.149C168.941 255.066 161.882 253.741 155.327 255.618L85.7027 275.547L36.5068 103.677L108.588 83.0443C112.997 81.7825 117.717 82.6066 121.88 85.3649ZM24.0834 117.858L29.9995 109.731L78.8339 280.338L73.7692 291.439L24.0834 117.858ZM9.44045 124.292L17.0586 122.111L69.2333 304.388C69.9287 306.817 72.2407 308.353 74.3191 307.758L172.589 279.629L175.142 288.55L65.4454 319.95L9.44045 124.292ZM192.081 290.136L184.462 292.316L180.207 277.449L187.825 275.268L192.081 290.136ZM307.693 250.609L197.997 282.008L195.443 273.088L293.713 244.959C295.791 244.364 296.94 241.838 296.245 239.408L244.07 57.1314L251.688 54.9508L307.693 250.609Z" fill="#070707" fill-opacity="0.22"/>
</svg>
