<svg width="297" height="257" viewBox="0 0 297 257" fill="none" xmlns="http://www.w3.org/2000/svg">
<path d="M23.4856 220.792L7.61129 252.36C7.33356 252.912 7.23712 253.518 7.33215 254.112C7.42717 254.707 7.71014 255.269 8.15122 255.739C8.5923 256.209 9.17514 256.569 9.83828 256.782C10.5014 256.996 11.2203 257.053 11.9191 256.95L69.5192 248.426C80.8762 251.892 92.8576 253.665 104.931 253.669C158.227 253.669 202.368 219.891 209.002 176.319C215.292 175.438 221.475 174.077 227.475 172.254L285.078 180.777C285.777 180.88 286.496 180.823 287.159 180.609C287.822 180.396 288.405 180.036 288.846 179.566C289.287 179.096 289.57 178.534 289.665 177.94C289.76 177.345 289.664 176.74 289.386 176.188L273.512 144.62C288.759 128.861 297.061 109.112 297 88.7497C297 39.8134 249.927 0 192.064 0C166.572 0.00106601 141.951 7.85019 122.8 22.0815C103.65 36.3128 91.279 55.9531 87.9982 77.3345C38.1621 84.2038 0.000357777 120.861 0.000357777 164.922C-0.0628038 185.284 8.23867 205.033 23.4856 220.792ZM126.719 28.0659C144.578 14.2828 167.889 6.65051 192.066 6.6704C245.579 6.6704 289.117 43.4912 289.117 88.7513C289.178 108.243 280.953 127.103 265.942 141.893C265.467 142.365 265.157 142.939 265.047 143.551C264.936 144.164 265.029 144.79 265.316 145.36L279.293 173.154L227.798 165.536C227.111 165.434 226.403 165.488 225.749 165.693C220.545 167.323 215.187 168.577 209.733 169.441C209.821 167.945 209.866 166.439 209.868 164.924C209.885 151.79 206.434 138.818 199.766 126.955L200.259 126.798L200.345 126.769C217.914 120.75 231.568 111.889 239.835 101.147C247.194 91.5822 250.003 80.8984 247.74 71.0392C244.645 58.063 233.488 49.6787 219.315 49.6787C212.39 49.6787 204.975 51.7905 197.726 55.8011C190.386 51.6043 183.073 49.4797 175.951 49.4797C161.693 49.4797 150.577 57.9574 147.637 71.0698C146.71 75.2712 146.646 79.5763 147.449 83.7959C134.068 78.761 119.583 76.1654 104.936 76.178C101.959 76.178 99.0128 76.2892 96.098 76.4959C99.4075 57.8517 110.223 40.7448 126.719 28.0642V28.0659ZM156.589 87.6955C154.704 82.7305 154.289 77.4503 155.379 72.3179C157.613 62.3432 165.498 56.1463 175.949 56.1463C181.998 56.1463 188.701 58.3575 195.333 62.5416C196.007 62.9667 196.824 63.1985 197.665 63.203C198.505 63.2075 199.326 62.9845 200.006 62.5666C206.638 58.4964 213.314 56.3452 219.314 56.3452C229.723 56.3452 237.654 62.4799 240.005 72.3318C244.947 93.8712 222.19 112.076 197.426 120.572L196.089 121C186.685 107.107 173.043 95.6053 156.589 87.6944V87.6955ZM104.936 82.8417C158.449 82.8417 201.986 119.663 201.986 164.923C201.986 210.183 158.45 247.004 104.936 247.004C93.4362 246.999 82.03 245.258 71.2532 241.865C70.5985 241.66 69.8915 241.606 69.2038 241.707L17.7086 249.326L31.684 221.529C31.9706 220.959 32.0639 220.333 31.9533 219.721C31.8427 219.108 31.5326 218.534 31.0578 218.062C16.048 203.273 7.82391 184.412 7.88529 164.922C7.88529 119.664 51.4213 82.8417 104.936 82.8417Z" fill="#f48d6b"/>
</svg>
