<svg width="32" height="32" viewBox="0 0 32 32" fill="none" xmlns="http://www.w3.org/2000/svg">
<g clip-path="url(#clip0_990_11)">
<path d="M26 32H6C2.686 32 0 29.314 0 26V6C0 2.686 2.686 0 6 0H26C29.314 0 32 2.686 32 6V26C32 29.314 29.314 32 26 32Z" fill="#6197D7"/>
<path d="M21.277 16.685C21.018 16.358 21.093 16.213 21.277 15.921C21.28 15.918 23.416 12.967 23.635 11.966L23.636 11.965C23.746 11.6 23.636 11.332 23.107 11.332H21.357C20.912 11.332 20.706 11.562 20.597 11.819C20.597 11.819 19.706 13.951 18.446 15.333C18.039 15.732 17.852 15.861 17.629 15.861C17.519 15.861 17.35 15.733 17.35 15.368V11.965C17.35 11.528 17.225 11.332 16.857 11.332H14.106C13.827 11.332 13.661 11.536 13.661 11.726C13.661 12.14 14.291 12.236 14.356 13.403V15.935C14.356 16.489 14.255 16.591 14.032 16.591C13.438 16.591 11.994 14.45 11.139 12.001C10.967 11.526 10.797 11.333 10.349 11.333H8.6C8.101 11.333 8 11.563 8 11.82C8 12.275 8.594 14.535 10.765 17.522C12.212 19.561 14.249 20.666 16.102 20.666C17.216 20.666 17.352 20.421 17.352 19.998C17.352 18.05 17.251 17.866 17.809 17.866C18.068 17.866 18.513 17.994 19.553 18.977C20.741 20.144 20.937 20.666 21.602 20.666H23.352C23.851 20.666 24.104 20.421 23.958 19.937C23.626 18.92 21.378 16.825 21.277 16.685Z" fill="#1C4D87"/>
</g>
<defs>
<clipPath id="clip0_990_11">
<rect width="32" height="32" fill="white"/>
</clipPath>
</defs>
</svg>
