<svg width="32" height="32" viewBox="0 0 32 32" fill="none" xmlns="http://www.w3.org/2000/svg">
<g clip-path="url(#clip0_840_45)">
<path d="M26 32H6C2.686 32 0 29.314 0 26V6C0 2.686 2.686 0 6 0H26C29.314 0 32 2.686 32 6V26C32 29.314 29.314 32 26 32Z" fill="#357A38"/>
<path d="M19.6708 17.538L19.6648 17.588C18.1988 16.858 18.0458 16.76 17.8558 17.044C17.7248 17.241 17.3418 17.687 17.2268 17.819C17.1098 17.949 16.9938 17.959 16.7958 17.869C16.5958 17.769 15.9538 17.559 15.1938 16.879C14.6018 16.349 14.2048 15.699 14.0868 15.499C13.8908 15.162 14.2998 15.114 14.6718 14.41C14.7388 14.27 14.7048 14.16 14.6548 14.061C14.6048 13.961 14.2068 12.981 14.0398 12.59C13.8798 12.201 13.7148 12.25 13.5918 12.25C13.2078 12.217 12.9268 12.222 12.6798 12.479C11.6038 13.662 11.8748 14.881 12.7958 16.179C14.6048 18.547 15.5688 18.983 17.3318 19.588C17.8078 19.739 18.2418 19.718 18.5848 19.669C18.9678 19.608 19.7628 19.188 19.9288 18.718C20.0988 18.248 20.0988 17.858 20.0488 17.768C20.0018 17.678 19.8708 17.628 19.6708 17.538Z" fill="#FAFAFA"/>
<path d="M21.68 10.299C16.554 5.34402 8.07 8.93802 8.067 15.929C8.067 17.326 8.433 18.689 9.13 19.892L8 24L12.223 22.899C17.493 25.745 23.997 21.966 24 15.933C24 13.816 23.173 11.823 21.67 10.326L21.68 10.299ZM22.668 15.911C22.664 21 17.078 24.177 12.66 21.58L12.42 21.437L9.92 22.087L10.59 19.657L10.431 19.407C7.681 15.031 10.84 9.31102 16.048 9.31102C17.817 9.31102 19.478 10.001 20.729 11.251C21.979 12.49 22.668 14.151 22.668 15.911Z" fill="#ECEFF1"/>
</g>
<defs>
<clipPath id="clip0_840_45">
<rect width="32" height="32" fill="white"/>
</clipPath>
</defs>
</svg>
