<!-- icon666.com - MILLIONS OF FREE VECTOR ICONS --><svg viewBox="0 0 64 64" fill="#A1FFEFFF" xmlns="http://www.w3.org/2000/svg"><g id="Icons"><g id="Acorn"><path d="m38 2a9.01 9.01 0 0 0 -9 9v1h6v-1a3 3 0 0 1 3-3 1 1 0 0 0 1-1v-4a1 1 0 0 0 -1-1z"></path><path d="m41 18.586 3.086-3.086-1.5-1.5h-3.172l-1.5 1.5z"></path><path d="m50 18.586 3.728-3.728a7.764 7.764 0 0 0 -3.542-.858h-1.772l-1.5 1.5z"></path><path d="m25.318 17.818h4.364v4.364h-4.364z" transform="matrix(.707 -.707 .707 .707 -6.088 25.303)"></path><path d="m46.914 24.5 1.5 1.5h5.86c.1 0 .188-.021.283-.028l-4.557-4.558z"></path><path d="m41 21.414-3.086 3.086 1.5 1.5h3.172l1.5-1.5z"></path><path d="m32 21.414-3.086 3.086 1.5 1.5h3.172l1.5-1.5z"></path><path d="m34.318 17.818h4.364v4.364h-4.364z" transform="matrix(.707 -.707 .707 .707 -3.452 31.667)"></path><path d="m43.318 17.818h4.364v4.364h-4.364z" transform="matrix(.707 -.707 .707 .707 -.816 38.031)"></path><path d="m56.587 25.173a3.706 3.706 0 0 0 1.413-2.898v-.461a7.787 7.787 0 0 0 -2.6-5.8l-3.986 3.986z"></path><path d="m16.318 17.818h4.364v4.364h-4.364z" transform="matrix(.707 -.707 .707 .707 -8.724 18.939)"></path><path d="m23 18.586 3.086-3.086-1.5-1.5h-3.172l-1.5 1.5z"></path><path d="m32 18.586 3.086-3.086-1.5-1.5h-3.172l-1.5 1.5z"></path><path d="m17.086 15.5-1.5-1.5h-1.772a7.764 7.764 0 0 0 -3.542.858l3.728 3.728z"></path><path d="m23 21.414-3.086 3.086 1.5 1.5h3.172l1.5-1.5z"></path><path d="m14 21.414-4.557 4.558c.1.007.186.028.283.028h5.86l1.5-1.5z"></path><path d="m8.6 16.013a7.787 7.787 0 0 0 -2.6 5.8v.461a3.706 3.706 0 0 0 1.413 2.9l5.173-5.174z"></path><path d="m10 28v8.458c0 11.362 7.035 21.307 17.107 24.185l4.619 1.319a1.007 1.007 0 0 0 .548 0l4.619-1.319c10.072-2.878 17.107-12.823 17.107-24.185v-8.458zm6.29 13.992a1.166 1.166 0 0 1 -.131.008 1 1 0 0 1 -.99-.869 20.4 20.4 0 0 1 -.169-2.671v-5.46a1 1 0 0 1 2 0v5.46a18.492 18.492 0 0 0 .151 2.41 1 1 0 0 1 -.861 1.122zm1.71 4.008a1 1 0 1 1 1-1 1 1 0 0 1 -1 1z"></path></g></g></svg>