<!-- icon666.com - MILLIONS OF FREE VECTOR ICONS --><svg fill="#FFDDA2FF" version="1.1" id="Layer_1" xmlns="http://www.w3.org/2000/svg" xmlns:xlink="http://www.w3.org/1999/xlink" x="0px" y="0px" viewBox="0 0 503.607 503.607" style="enable-background:new 0 0 503.607 503.607;" xml:space="preserve"><g><g><g><path d="M109.115,470.033h285.377c4.642,0,8.393-3.76,8.393-8.393s-3.752-8.393-8.393-8.393H109.115 c-4.642,0-8.393,3.76-8.393,8.393S104.473,470.033,109.115,470.033z"></path><path d="M360.918,201.443H142.689v117.508h218.229V201.443z M209.836,235.016h83.934c4.642,0,8.393,3.76,8.393,8.393 s-3.752,8.393-8.393,8.393h-83.934c-4.642,0-8.393-3.76-8.393-8.393S205.195,235.016,209.836,235.016z M318.951,285.377H184.656 c-4.642,0-8.393-3.76-8.393-8.393c0-4.633,3.752-8.393,8.393-8.393h134.295c4.642,0,8.393,3.76,8.393,8.393 C327.344,281.617,323.592,285.377,318.951,285.377z"></path><path d="M176.262,83.934c1.771,0,3.542,0.562,5.036,1.679l20.144,15.108V0h-50.361v100.721l20.144-15.108 C172.72,84.497,174.491,83.934,176.262,83.934z"></path><path d="M436.459,0h-218.23v117.508c0,3.181-1.796,6.085-4.642,7.512c-1.183,0.588-2.476,0.881-3.752,0.881 c-1.779,0-3.559-0.571-5.036-1.679l-28.538-21.403l-28.538,21.403c-2.535,1.905-5.934,2.216-8.788,0.797 c-2.845-1.427-4.642-4.331-4.642-7.512V0h-33.574C77.581,0,58.754,18.827,58.754,41.967v419.672 c0,23.141,18.826,41.967,41.967,41.967h335.738c4.642,0,8.393-3.76,8.393-8.393v-67.148V8.393C444.852,3.76,441.101,0,436.459,0z M125.902,193.049c0-4.633,3.752-8.393,8.393-8.393h235.016c4.642,0,8.393,3.76,8.393,8.393v134.295 c0,4.633-3.752,8.393-8.393,8.393H134.295c-4.642,0-8.393-3.76-8.393-8.393V193.049z M428.066,486.82H100.721 c-13.883,0-25.18-11.298-25.18-25.18s11.298-25.18,25.18-25.18h327.344V486.82z"></path></g></g></g></svg>