<!-- icon666.com - MILLIONS OF FREE VECTOR ICONS --><svg fill="#FFC6A0FF" clip-rule="evenodd" fill-rule="evenodd" stroke-linejoin="round" stroke-miterlimit="2" viewBox="0 0 32 32" xmlns="http://www.w3.org/2000/svg"><path d="m23.896 4.03c-1.574-1.632-3.689-2.53-5.956-2.53h-3.88c-2.267 0-4.383.898-5.957 2.53-1.574 1.631-2.396 3.777-2.315 6.043l.431 12.08c.167 4.68 3.967 8.347 8.651 8.347h2.26c4.683 0 8.483-3.667 8.65-8.347l.432-12.08c.081-2.266-.742-4.412-2.316-6.043zm.885 18.087c-.148 4.14-3.509 7.383-7.651 7.383h-2.26c-4.143 0-7.504-3.243-7.651-7.383l-.432-12.08c-.071-1.992.652-3.878 2.036-5.313 1.384-1.434 3.244-2.224 5.237-2.224h1.44v2.092c-.581.207-1 .757-1 1.408v6c0 .651.419 1.201 1 1.408v4.592c0 .276.223.5.5.5.276 0 .5-.224.5-.5v-4.592c.58-.207 1-.757 1-1.408v-6c0-.651-.42-1.201-1-1.408v-2.092h1.44c1.993 0 3.853.79 5.237 2.224 1.384 1.435 2.106 3.321 2.036 5.313zm-1.872.689c-.905 2.155-2.79 3.809-5.042 4.424-.266.073-.423.347-.35.614.06.222.262.368.482.368.044 0 .088-.006.132-.017 2.546-.695 4.677-2.565 5.7-5.002.107-.255-.013-.548-.268-.655-.252-.106-.548.013-.654.268zm-6.909-10.306c-.276 0-.5-.224-.5-.5v-6c0-.276.224-.5.5-.5s.5.224.5.5v6c0 .276-.224.5-.5.5z" fill-rule="nonzero"></path></svg>