<!-- icon666.com - MILLIONS OF FREE VECTOR ICONS --><svg fill="#FFC6A0FF" version="1.1" id="Capa_1" xmlns="http://www.w3.org/2000/svg" xmlns:xlink="http://www.w3.org/1999/xlink" x="0px" y="0px" viewBox="0 0 334.8 334.8" style="enable-background:new 0 0 334.8 334.8;" xml:space="preserve"><g><g><path d="M310.025,89.118h-45.141l-7.53,16.2H307.8h2.226c6.212,0,8.574,2.36,8.574,8.575v150.251 c0,6.217-2.362,13.975-8.574,13.975H30.175c-6.215,0-13.975-7.758-13.975-13.975V113.893c0-6.215,7.76-8.575,13.975-8.575h195.46 l7.535-16.2H30.175C15,89.118,0,98.718,0,113.893v150.251c0,15.172,15,30.175,30.175,30.175h279.851 c15.177,0,24.774-15.003,24.774-30.175V113.893C334.8,98.718,325.202,89.118,310.025,89.118z"></path><polygon points="207.89,144.159 207.984,143.269 208.364,142.453 220.609,116.118 86.4,116.118 86.4,267.318 297,267.318 297,116.118 252.323,116.118 234.441,154.582 233.998,155.531 233.233,156.246 214.244,174.036 203.645,183.972 205.185,169.524 "></polygon><path d="M27,267.318h48.6v-151.2H27V267.318z M37.8,126.918h27v21.6h-27V126.918z M37.8,159.318h27v21.6h-27V159.318z M51.3,221.418c7.831,0,14.175,6.344,14.175,14.175s-6.344,14.175-14.175,14.175s-14.175-6.344-14.175-14.175 S43.469,221.418,51.3,221.418z"></path><polygon points="278.026,48.051 261.742,40.481 256.753,51.21 273.101,58.64 "></polygon><polygon points="268.545,68.43 252.197,61 239.124,89.118 231.588,105.318 226.568,116.118 213.263,144.731 210.558,170.097 229.542,152.304 246.375,116.118 251.396,105.318 258.931,89.118 "></polygon></g></g></svg>