<!-- icon666.com - MILLIONS OF FREE VECTOR ICONS --><svg fill="#FFC6A0FF"
 version="1.1" id="Layer_1" xmlns="http://www.w3.org/2000/svg" xmlns:xlink="http://www.w3.org/1999/xlink" x="0px" y="0px" viewBox="0 0 512 512" style="enable-background:new 0 0 512 512;" xml:space="preserve"><g><g><path d="M485.517,70.731h-15.89c-69.738-22.952-144.772-22.952-213.628,0c-67.09-23.834-146.538-23.834-213.628,0h-15.89H0 v344.276v17.655v26.483h512v-26.483v-17.655V70.731H485.517z M308.966,132.524h123.586c5.297,0,8.828,3.531,8.828,8.828 s-3.531,8.828-8.828,8.828H308.966c-5.297,0-8.828-3.531-8.828-8.828C300.138,136.938,303.669,132.524,308.966,132.524z M441.379,185.49c0,0.883,0,2.648-0.883,3.531c0,0.883-0.883,1.766-1.766,2.648c-1.766,1.766-3.531,2.648-6.179,2.648 c-2.648,0-4.414-0.883-6.179-2.648c-0.883-0.883-1.766-1.766-1.766-2.648c-0.883-0.883-0.883-2.648-0.883-3.531 c0-2.648,0.883-4.414,2.648-6.179c0.883-0.883,1.766-1.766,2.648-1.766c3.531-1.766,7.062-0.883,9.71,1.766 C440.497,181.076,441.379,183.724,441.379,185.49z M308.966,176.662h79.448c5.297,0,8.828,3.531,8.828,8.828 s-3.531,8.828-8.828,8.828h-79.448c-5.297,0-8.828-3.531-8.828-8.828C300.138,181.076,303.669,176.662,308.966,176.662z M308.966,220.8h123.586c5.297,0,8.828,3.531,8.828,8.828s-3.531,8.828-8.828,8.828H308.966c-5.297,0-8.828-3.531-8.828-8.828 C300.138,225.214,303.669,220.8,308.966,220.8z M440.497,277.297c0,0.883-0.883,1.766-1.766,2.648 c-1.766,1.766-3.531,2.648-6.179,2.648c-2.648,0-4.414-0.883-6.179-2.648c-1.766-1.766-2.648-3.531-2.648-6.179 c0-0.883,0-2.648,0.883-3.531c0.883-0.883,0.883-1.766,1.766-2.648c2.648-2.648,6.179-3.531,9.71-1.766 c0.883,0.883,1.766,0.883,2.648,1.766s1.766,1.766,1.766,2.648c0.883,1.766,0.883,2.648,0.883,3.531 S441.379,276.414,440.497,277.297z M441.379,317.904c0,5.297-3.531,8.828-8.828,8.828h-88.276c-5.297,0-8.828-3.531-8.828-8.828 c0-5.297,3.531-8.828,8.828-8.828h88.276C437.848,309.076,441.379,313.49,441.379,317.904z M308.966,264.938h79.448 c5.297,0,8.828,3.531,8.828,8.828s-3.531,8.828-8.828,8.828h-79.448c-5.297,0-8.828-3.531-8.828-8.828 C300.138,269.352,303.669,264.938,308.966,264.938z M302.786,311.724c3.531-3.531,8.828-3.531,12.359,0 c1.766,1.766,2.648,4.414,2.648,6.179c0,2.648-0.883,4.414-2.648,6.179c-0.883,0.883-1.766,1.766-2.648,1.766 s-2.648,0.883-3.531,0.883s-2.648,0-3.531-0.883c-0.883-0.883-1.766-0.883-2.648-1.766c-1.766-1.766-2.648-3.531-2.648-6.179 C300.138,316.138,301.021,313.49,302.786,311.724z M286.014,414.124c1.766-0.883,4.414-0.883,6.179-1.766 c2.648-0.883,5.297-1.766,7.945-2.648c1.766-0.883,4.414-0.883,6.179-1.766c2.648-0.883,5.297-0.883,7.945-1.766 c1.766-0.883,4.414-0.883,6.179-1.766c2.648-0.883,5.297-0.883,7.062-1.766c1.766,0,3.531-0.883,6.179-0.883 c2.648-0.883,5.297-0.883,7.945-0.883c1.766,0,3.531-0.883,5.297-0.883c4.414-0.883,7.945-0.883,12.359-1.766 c1.766,0,2.648,0,4.414,0c2.648,0,5.297,0,7.945-0.883c1.766,0,3.531,0,5.297,0c2.648,0,4.414,0,7.062,0c1.766,0,3.531,0,5.297,0 c2.648,0,4.414,0,6.179,0c1.766,0,3.531,0,5.297,0s4.414,0,6.179,0.883c1.766,0,3.531,0,5.297,0.883 c1.766,0,4.414,0.883,6.179,0.883c1.766,0,3.531,0.883,4.414,0.883c1.766,0,4.414,0.883,6.179,1.766 c1.766,0,2.648,0.883,4.414,0.883c1.766,0.883,4.414,0.883,6.179,1.766c1.766,0,2.648,0.883,4.414,0.883 c2.648,0.883,4.414,1.766,7.062,2.648c0.883,0,2.648,0.883,3.531,0.883c3.531,0.883,7.062,2.648,9.71,4.414l1.766,0.883H282.483 C284.248,415.007,285.131,414.124,286.014,414.124z M123.586,132.524h79.448c5.297,0,8.828,3.531,8.828,8.828 s-3.531,8.828-8.828,8.828h-79.448c-5.297,0-8.828-3.531-8.828-8.828C114.759,136.938,118.29,132.524,123.586,132.524z M80.331,137.821c0-0.883,0.883-1.766,1.766-2.648c2.648-2.648,6.179-3.531,9.71-1.766c0.883,0.883,1.766,0.883,2.648,1.766 c0.883,0.883,1.766,1.766,1.766,2.648s0.883,2.648,0.883,3.531c0,2.648-0.883,4.414-2.648,6.179 c-1.766,1.766-3.531,2.648-6.179,2.648c-2.648,0-4.414-0.883-6.179-2.648s-2.648-3.531-2.648-6.179 C79.448,140.469,79.448,139.586,80.331,137.821z M88.276,176.662h114.759c5.297,0,8.828,3.531,8.828,8.828 s-3.531,8.828-8.828,8.828H88.276c-5.297,0-8.828-3.531-8.828-8.828C79.448,181.076,82.979,176.662,88.276,176.662z M209.214,235.807c-1.766,1.766-3.531,2.648-6.179,2.648s-4.414-0.883-6.179-2.648s-2.648-3.531-2.648-6.179 s0.883-4.414,2.648-6.179c3.531-3.531,8.828-3.531,12.359,0c1.766,1.766,2.648,4.414,2.648,6.179 C211.862,232.276,210.979,234.041,209.214,235.807z M211.862,273.766c0,5.297-3.531,8.828-8.828,8.828h-79.448 c-5.297,0-8.828-3.531-8.828-8.828s3.531-8.828,8.828-8.828h79.448C208.331,264.938,211.862,269.352,211.862,273.766z M88.276,220.8h79.448c5.297,0,8.828,3.531,8.828,8.828s-3.531,8.828-8.828,8.828H88.276c-5.297,0-8.828-3.531-8.828-8.828 C79.448,225.214,82.979,220.8,88.276,220.8z M80.331,270.234c0-0.883,0.883-1.766,1.766-2.648c3.531-3.531,8.828-3.531,12.359,0 c0.883,0.883,1.766,1.766,1.766,2.648c0,0.883,0.883,1.766,0.883,3.531c0,2.648-0.883,4.414-2.648,6.179 c-0.883,0.883-1.766,1.766-2.648,1.766s-2.648,0.883-3.531,0.883c-2.648,0-4.414-0.883-6.179-2.648 c-1.766-1.766-2.648-3.531-2.648-6.179C79.448,272.883,79.448,272,80.331,270.234z M88.276,309.076h114.759 c5.297,0,8.828,3.531,8.828,8.828c0,5.297-3.531,8.828-8.828,8.828H88.276c-5.297,0-8.828-3.531-8.828-8.828 C79.448,313.49,82.979,309.076,88.276,309.076z M47.669,414.124c3.531-1.766,7.062-2.648,10.593-4.414 c0.883-0.883,2.648-0.883,3.531-1.766c2.648-0.883,4.414-1.766,7.062-2.648c1.766,0.883,3.531,0,4.414,0 c1.766-0.883,4.414-0.883,6.179-1.766c1.766,0,3.531-0.883,5.297-0.883c1.766-0.883,4.414-0.883,6.179-0.883 s3.531-0.883,5.297-0.883S100.634,400,102.4,400c1.766,0,3.531-0.883,5.297-0.883c1.766,0,4.414,0,6.179-0.883 c1.766,0,3.531,0,5.297,0s4.414,0,6.179,0s3.531,0,5.297,0c2.648,0,4.414,0,7.062,0c1.766,0,3.531,0,5.297,0 c2.648,0,5.297,0,7.945,0.883c1.766,0,2.648,0,4.414,0c4.414,0,7.945,0.883,12.359,1.766c1.766,0,3.531,0.883,4.414,0.883 c2.648,0,5.297,0.883,7.945,1.766c1.766,0,3.531,0.883,5.297,0.883c2.648,0.883,5.297,0.883,7.945,1.766 c1.766,0,3.531,0.883,5.297,1.766c2.648,0.883,5.297,0.883,7.945,1.766c1.766,0.883,3.531,0.883,6.179,1.766 c2.648,0.883,5.297,1.766,7.945,2.648c1.766,0.883,3.531,0.883,5.297,1.766c0.883,0,2.648,0.883,3.531,0.883H45.903 L47.669,414.124z M17.655,88.386h8.828v326.621h-8.828V88.386z M494.345,441.49H17.655v-8.828h476.69V441.49z M494.345,415.007 h-8.828V88.386h8.828V415.007z"></path></g></g></svg>