<!-- icon666.com - MILLIONS OF FREE VECTOR ICONS --><svg fill="#FFDDA2FF" version="1.1" id="Layer_1" xmlns="http://www.w3.org/2000/svg" xmlns:xlink="http://www.w3.org/1999/xlink" x="0px" y="0px" viewBox="0 0 503.607 503.607" style="enable-background:new 0 0 503.607 503.607;" xml:space="preserve"><g><g><path d="M430.088,15.948c-2.518-4.197-6.715-6.715-10.911-7.554l-15.108-3.357c-9.233-2.518-18.466,3.357-20.984,12.59 l-7.554,27.698c-4.197-0.839-8.393,1.679-10.072,5.875v1.679l-26.859,5.875c-2.518,0.839-5.036,2.518-5.875,5.875L299.15,173.744 c-1.679,4.197,0.839,9.233,5.875,10.072c0.839,0,1.679,0,2.518,0c3.357,0,6.715-2.518,8.393-5.875l31.895-104.918l14.269-3.357 L325.17,218.229h-60.433V117.508c5.036,0,8.393-3.357,8.393-8.393V33.574h8.393v50.361c0,5.036,3.357,8.393,8.393,8.393 s8.393-3.357,8.393-8.393V25.18c0-5.036-3.357-8.393-8.393-8.393h-16.787V8.393c0-5.036-3.357-8.393-8.393-8.393h-50.361 c-5.036,0-8.393,3.357-8.393,8.393v100.721c0,5.036,3.357,8.393,8.393,8.393v100.721h-15.108L146.39,96.525l-0.839-0.839v-0.839 L85.117,19.305c-1.679-2.518-5.875-4.197-9.233-2.518c-3.357,1.679-5.875,5.036-5.036,9.233l13.43,94.846v0.839 c0,0.839,0,0.839,0,1.679l41.967,94.846h-4.197c-5.036,0-8.393,3.357-8.393,8.393v25.18h302.164v-25.18 c0-5.036-3.357-8.393-8.393-8.393h-14.269l37.771-152.761c0.839-2.518,0-4.197-0.839-6.715c-0.839-1.679-2.518-2.518-4.197-3.357 l6.715-26.02C433.445,24.341,432.606,20.144,430.088,15.948z M99.386,107.436l-7.554-53.718l33.574,41.967L99.386,107.436z M256.344,100.721H222.77V16.787h33.574V100.721z M415.819,25.18l-5.875,26.859l-17.626-4.197l6.715-26.02 c0-0.839,0.839-0.839,0.839-0.839l15.948,3.357C415.819,25.18,415.819,25.18,415.819,25.18z"></path></g></g><g><g><path d="M264.737,268.59c-51.2,0-92.328,41.128-92.328,92.328s41.128,92.328,92.328,92.328s92.328-41.128,92.328-92.328 S315.937,268.59,264.737,268.59z M339.439,344.971l-31.056,30.216l7.554,42.807c0.839,3.357-0.839,6.715-3.357,8.393 c-1.679,0.839-3.357,1.679-5.036,1.679c-1.679,0-2.518,0-4.197-0.839l-38.61-20.984l-38.61,20.144 c-2.518,1.679-5.875,0.839-9.233-0.839c-2.518-1.679-4.197-5.036-3.357-8.393l7.554-42.807l-31.056-30.216 c-2.518-2.518-3.357-5.875-2.518-8.393c1.679-2.518,4.197-5.036,7.554-5.036l43.646-6.715l19.305-34.413 c3.357-5.036,11.751-5.036,14.269,0l19.305,34.413l43.646,6.715c3.357,0.839,5.875,2.518,6.715,5.875 C342.796,339.934,341.957,343.292,339.439,344.971z"></path></g></g><g><g><path d="M294.953,365.954l21.823-21.823l-30.216-4.197c-2.518,0-5.036-1.679-5.875-4.197l-14.269-25.18l-14.269,25.18 c-1.679,2.518-3.357,4.197-5.875,4.197l-31.895,5.036l21.823,21.823c1.679,1.679,3.357,4.197,2.518,6.715l-5.036,30.216 l27.698-14.269c0.839-0.839,2.518-0.839,4.197-0.839s2.518,0,4.197,0.839l27.698,14.269l-5.036-30.216 C291.596,370.99,293.275,367.633,294.953,365.954z"></path></g></g><g><g><path d="M155.622,360.918c0-38.61,20.144-73.023,51.2-92.328h-93.167v184.656h93.167 C175.767,433.941,155.622,399.528,155.622,360.918z"></path></g></g><g><g><path d="M322.652,268.59c31.056,19.305,51.2,53.718,51.2,92.328s-20.144,73.023-51.2,92.328h93.167V268.59H322.652z"></path></g></g><g><g><path d="M113.655,470.033c0,18.466,15.108,33.574,33.574,33.574h235.016c18.466,0,33.574-15.108,33.574-33.574H113.655z"></path></g></g></svg>