<!-- icon666.com - MILLIONS OF FREE VECTOR ICONS --><svg fill="#A1FFEFFF" xmlns="http://www.w3.org/2000/svg" viewBox="0 0 64 64"><g id="plantpot"><circle cx="30" cy="39" r="1"></circle><path d="M51.96143,21.27441a.99971.99971,0,0,0-.88477-1.27148,16.16663,16.16663,0,0,0-5.03894.39593,38.3223,38.3223,0,0,0,.9613-9.44671,1.00113,1.00113,0,0,0-1.3706-.88086,21.63472,21.63472,0,0,0-7.084,4.56152A30.32557,30.32557,0,0,0,32.7666,2.35742a1.03456,1.03456,0,0,0-1.5332,0,30.3186,30.3186,0,0,0-5.78638,12.321,21.576,21.576,0,0,0-7.08911-4.60712,1.00114,1.00114,0,0,0-1.37061.88086,38.21424,38.21424,0,0,0,.95722,9.44238,16.13221,16.13221,0,0,0-5.03485-.3916.99971.99971,0,0,0-.88477,1.27148c.03223.11316,2.60285,8.72712,10.83881,12.72559H19a3.00328,3.00328,0,0,0-3,3v4a2.995,2.995,0,0,0,2,2.81567V57a5.00588,5.00588,0,0,0,5,5H41a5.00588,5.00588,0,0,0,5-5V43.81573A2.99507,2.99507,0,0,0,48,41V37a3.00328,3.00328,0,0,0-3-3H41.11743C49.356,30.0022,51.9292,21.38757,51.96143,21.27441ZM32.001,4.666C33.5708,6.89551,37,12.50781,37,19a37.78356,37.78356,0,0,1-.73779,7.58124,31.3715,31.3715,0,0,0-4.269,6.13727,31.41139,31.41139,0,0,0-4.25147-6.12A37.75416,37.75416,0,0,1,27,19C27,12.52344,30.43164,6.89941,32.001,4.666ZM14.38623,21.9541c8.9668.11817,14.22559,8.55469,15.99512,11.98828C19.92188,33.18555,15.65918,25.10547,14.38623,21.9541ZM21,53a1,1,0,1,1,1-1A1,1,0,0,1,21,53Zm2-7H22v2a1,1,0,0,1-2,0V45a.99974.99974,0,0,1,1-1h2a1,1,0,0,1,0,2ZM45,36a1.001,1.001,0,0,1,1,1v4a1.001,1.001,0,0,1-1,1H19a1.001,1.001,0,0,1-1-1V40h8a1,1,0,0,0,0-2H18V37a1.001,1.001,0,0,1,1-1ZM33.606,33.94141c1.76953-3.43457,7.0205-11.86328,15.97949-11.98731C48.28271,25.08691,43.939,33.17285,33.606,33.94141Z"></path><circle cx="32" cy="23" r="1"></circle><path d="M32,20a.99974.99974,0,0,0,1-1V10a1,1,0,0,0-2,0v9A.99974.99974,0,0,0,32,20Z"></path></g></svg>