<!-- icon666.com - MILLIONS OF FREE VECTOR ICONS --><svg fill="#FFDDA2FF" xmlns="http://www.w3.org/2000/svg" viewBox="0 0 64 64"><g id="Icons"><g id="Rainbow"><path d="M18,44a5.966,5.966,0,0,0-1.391.165A5.947,5.947,0,0,0,12,42a6.036,6.036,0,0,0-4.488,2.02A6,6,0,0,0,8,56H18a6,6,0,0,0,0-12Z"></path><path d="M32,16A20.023,20.023,0,0,1,52,36v4a7.97,7.97,0,0,1,2,.263V36a22,22,0,0,0-44,0v4.263A7.97,7.97,0,0,1,12,40V36A20.023,20.023,0,0,1,32,16Z"></path><path d="M32,12A24.028,24.028,0,0,1,56,36v5.085a8.083,8.083,0,0,1,1.432,1.044A7.918,7.918,0,0,1,60,43.084V36A28,28,0,0,0,4,36v7.084a7.918,7.918,0,0,1,2.568-.955A8.083,8.083,0,0,1,8,41.085V36A24.028,24.028,0,0,1,32,12Z"></path><path d="M32,20A16.019,16.019,0,0,1,48,36v5.076a7.9,7.9,0,0,1,2-.817V36a18,18,0,0,0-36,0v4.259a7.9,7.9,0,0,1,2,.817V36A16.019,16.019,0,0,1,32,20Z"></path><path d="M42,36v7.083A7.941,7.941,0,0,1,46,42V36a14,14,0,0,0-28,0v6a7.941,7.941,0,0,1,4,1.083V36a10,10,0,0,1,20,0Z"></path><path d="M56.488,44.02A6.036,6.036,0,0,0,52,42a5.947,5.947,0,0,0-4.609,2.165A6,6,0,1,0,46,56H56a6,6,0,0,0,.488-11.98Z"></path></g></g></svg>