<!-- icon666.com - MILLIONS OF FREE VECTOR ICONS --><svg fill="#A1FFEFFF" xmlns="http://www.w3.org/2000/svg" viewBox="0 0 64 64"><g id="sunny"><path d="M20.68262,29.00049a1.00148,1.00148,0,0,1-.94287-1.334,12.97609,12.97609,0,0,1,9.01074-8.25683.99989.99989,0,0,1,.499,1.93652,10.97821,10.97821,0,0,0-7.624,6.98731A1.00069,1.00069,0,0,1,20.68262,29.00049Z"></path><path d="M57.169,35.52783C56.15234,34.30127,55,32.91113,55,32s1.15234-2.30127,2.169-3.52783c1.47753-1.78321,3.00585-3.62647,2.418-5.43555-.61084-1.88086-2.98974-2.48389-5.29-3.06738-1.49708-.3794-3.19336-.80957-3.687-1.48779-.50537-.69434-.3916-2.45752-.291-4.0127.15185-2.35059.30859-4.78125-1.27-5.93018-1.563-1.13671-3.812-.24511-5.98682.61719-1.46.5791-3.11474,1.23535-3.95166.96387-.772-.25049-1.6914-1.71045-2.50244-2.99854C35.33154,5.09521,34.01172,3,32,3c-2.01221,0-3.33154,2.09521-4.60791,4.12109-.811,1.28809-1.73047,2.74805-2.50244,2.99854-.84033.26953-2.4917-.38477-3.95215-.96387-2.17432-.8623-4.42285-1.7539-5.98682-.6167-1.57861,1.14893-1.42187,3.57959-1.27,5.93018.10059,1.55517.21436,3.31836-.291,4.01269-.49365.67823-2.18994,1.1084-3.687,1.4878-2.3003.58349-4.6792,1.18652-5.29,3.06738-.5874,1.80908.94092,3.65234,2.41845,5.43506C7.84766,29.69873,9,31.08887,9,32s-1.15234,2.30127-2.16895,3.52783C5.35352,37.311,3.8252,39.1543,4.41309,40.96338c.61084,1.88086,2.98974,2.48389,5.29,3.06738,1.49707.3794,3.19335.80957,3.687,1.48779.50537.69434.3916,2.45752.291,4.0127-.15185,2.35059-.30859,4.78125,1.27,5.93018,1.56348,1.1372,3.812.2456,5.98682-.61719,1.46-.57861,3.11474-1.23535,3.95166-.96387.772.25049,1.6914,1.71045,2.50244,2.99854C28.66846,58.90479,29.98828,61,32,61c2.01221,0,3.33154-2.09521,4.60791-4.12109.811-1.28809,1.73047-2.748,2.50244-2.99854.83838-.273,2.49121.38477,3.95214.96387,2.17481.86279,4.42335,1.75439,5.98683.6167,1.57861-1.14893,1.42187-3.57959,1.27-5.93018-.10059-1.55517-.21436-3.31836.291-4.01269.49365-.67823,2.18994-1.1084,3.687-1.4878,2.3003-.58349,4.6792-1.18652,5.29-3.06738C60.1748,39.15381,58.64648,37.31055,57.169,35.52783ZM47,32A15,15,0,1,1,32,17,15.017,15.017,0,0,1,47,32Z"></path><circle cx="20" cy="32" r="1"></circle></g></svg>