<!-- icon666.com - MILLIONS OF FREE VECTOR ICONS --><svg id="Layer_1" viewBox="0 0 64 64" fill="#FFFFFF9C" xmlns="http://www.w3.org/2000/svg"><g><path d="m4.7 60.4v.6c0 .8.7 1.5 1.5 1.5h7.9c.8 0 1.5-.7 1.5-1.5v-.6c0-.6-.5-1.1-1.1-1.1h-8.8c-.6 0-1 .5-1 1.1zm44.5 0v.6c0 .8.7 1.5 1.5 1.5h7.9c.8 0 1.5-.7 1.5-1.5v-.6c0-.6-.5-1.1-1.1-1.1h-8.8c-.5 0-1 .5-1 1.1zm6.5-33.9c-1.7 0-3.1 1.4-3.1 3.1s1.4 3.1 3.1 3.1 3.1-1.4 3.1-3.1-1.4-3.1-3.1-3.1zm0 0c-1.7 0-3.1 1.4-3.1 3.1s1.4 3.1 3.1 3.1 3.1-1.4 3.1-3.1-1.4-3.1-3.1-3.1zm0 0c-1.7 0-3.1 1.4-3.1 3.1s1.4 3.1 3.1 3.1 3.1-1.4 3.1-3.1-1.4-3.1-3.1-3.1zm0 0c-1.7 0-3.1 1.4-3.1 3.1s1.4 3.1 3.1 3.1 3.1-1.4 3.1-3.1-1.4-3.1-3.1-3.1zm4.4-9.7h-56.2c-2.1 0-3.9 1.7-3.9 3.9v32.6c0 2.1 1.7 3.9 3.9 3.9h56.2c2.1 0 3.9-1.7 3.9-3.9v-32.6c0-2.2-1.7-3.9-3.9-3.9zm-12.2 33.2c0 2.2-1.8 3.9-3.9 3.9h-36.9c-2.1.1-3.9-1.7-3.9-3.9v-26.1c0-2.1 1.8-3.9 3.9-3.9h36.8c2.2 0 3.9 1.8 3.9 3.9v26.1zm10.9-1.9h-6.2c-.6 0-1.1-.5-1.1-1.1s.5-1.1 1.1-1.1h6.2c.6 0 1.1.5 1.1 1.1s-.5 1.1-1.1 1.1zm0-4.8h-6.2c-.6 0-1.1-.5-1.1-1.1s.5-1.1 1.1-1.1h6.2c.6 0 1.1.5 1.1 1.1s-.5 1.1-1.1 1.1zm-3.1-8.5c-2.9 0-5.2-2.3-5.2-5.2s2.3-5.2 5.2-5.2 5.2 2.3 5.2 5.2-2.3 5.2-5.2 5.2zm0-8.3c-1.7 0-3.1 1.4-3.1 3.1s1.4 3.1 3.1 3.1 3.1-1.4 3.1-3.1-1.4-3.1-3.1-3.1zm-11.8-4.4h-36.8c-1 0-1.8.8-1.8 1.8v26.1c0 1 .8 1.8 1.8 1.8h36.8c1 0 1.8-.8 1.8-1.8v-26.1c0-1-.8-1.8-1.8-1.8zm-17.6 14.2-10.3 10.3c-.2.2-.5.3-.8.3s-.5-.1-.7-.3c-.4-.4-.4-1.1 0-1.5l10.3-10.3c.4-.4 1.1-.4 1.5 0s.4 1.1 0 1.5zm2.7-8.9-10.2 10.3c-.2.2-.5.3-.8.3s-.5-.1-.8-.3c-.4-.4-.4-1.1 0-1.5l10.3-10.3c.4-.4 1.1-.4 1.5 0 .5.4.5 1.1 0 1.5zm26.7-.9c-1.7 0-3.1 1.4-3.1 3.1s1.4 3.1 3.1 3.1 3.1-1.4 3.1-3.1-1.4-3.1-3.1-3.1zm0 0c-1.7 0-3.1 1.4-3.1 3.1s1.4 3.1 3.1 3.1 3.1-1.4 3.1-3.1-1.4-3.1-3.1-3.1z"></path><g><path d="m45.1 3.3-11.1 11c-.2.2-.5.3-.8.3h-4.2c-.3 0-.6-.1-.8-.3l-11.1-11c-.4-.4-.4-1.1 0-1.5s1.1-.4 1.5 0l11.7 11.7c.4.4 1.1.4 1.5 0l11.8-11.7c.4-.4 1.1-.4 1.5 0s.4 1.1 0 1.5z"></path></g></g></svg>